<svg width="640" height="455" xmlns="http://www.w3.org/2000/svg" preserveAspectRatio="xMidYMid meet">

 <g>
  <title>background</title>
  <rect fill="none" id="canvas_background" height="457" width="642" y="-1" x="-1"/>
 </g>
 <g>
  <title>Layer 1</title>
  <g transform="translate(0,680) scale(0.10000000149011612,-0.10000000149011612) " id="svg_1" fill="#000000">
   <path stroke="null" id="svg_2" d="m3537.516676,3638.575747c0,-5 -18,-6 -40,-2c-44,7 -173,-16 -217,-39c-15,-8 -34,-15 -41,-15c-7,0 -39,-12 -70,-27c-31,-15 -59,-27 -62,-27c-12,-2 -114,-66 -105,-66c6,0 -5,-8 -24,-18c-19,-9 -39,-26 -45,-36c-6,-11 -19,-29 -28,-40c-17,-18 -27,-20 -108,-17c-88,3 -170,-2 -175,-10c-4,-5 3,-22 15,-38c12,-18 16,-32 11,-36c-6,-3 -3,-20 9,-43c36,-71 71,-163 65,-172c-4,-6 -2,-10 4,-10c15,0 26,22 23,50c-2,24 -2,24 14,-5c21,-37 27,-149 7,-129c-16,16 -43,8 -43,-13c0,-13 -3,-13 -25,1c-18,12 -50,16 -117,17c-85,1 -91,2 -68,14c23,13 23,14 5,16c-17,1 -16,2 5,9l25,8l-25,1c-15,1 -32,-5 -40,-11c-8,-7 -6,-3 4,10c11,12 14,22 8,22c-6,0 -14,-4 -17,-10c-3,-5 -11,-10 -16,-10c-5,0 -2,11 7,25c14,22 14,25 1,25c-27,0 -78,59 -72,83c5,17 -1,25 -24,35c-17,8 -35,11 -41,7c-5,-3 -22,1 -37,9l-28,15l28,1l28,0l-28,24c-19,17 -32,21 -40,14c-11,-9 -53,5 -53,18c0,2 9,0 20,-6c19,-10 20,-10 8,9c-7,12 -16,21 -21,21c-4,0 -5,4 -2,10c3,6 -1,7 -9,4c-18,-7 -41,40 -30,58c4,7 2,8 -5,4c-6,-4 -9,-16 -6,-27c5,-15 3,-18 -12,-13c-10,3 -3,-8 17,-26c19,-18 27,-29 18,-26c-9,2 -19,0 -22,-7c-2,-7 -5,-2 -5,11c-1,13 -5,21 -10,18c-5,-3 -14,8 -21,24c-7,17 -16,30 -21,30c-5,0 -9,4 -9,10c0,5 7,7 15,4c8,-4 15,-1 15,6c0,6 -4,9 -9,6c-5,-4 -12,0 -14,6c-4,10 -6,10 -6,0c-1,-7 -5,-10 -11,-7c-14,9 -12,-1 6,-38l17,-32l-22,19c-21,19 -21,19 -21,0c0,-16 -2,-16 -10,-4c-5,9 -5,19 1,27c15,17 1,59 -14,44c-9,-9 -8,-14 2,-20c10,-7 11,-10 0,-16c-8,-5 -21,2 -36,21c-13,16 -21,22 -18,13c9,-25 -12,-33 -25,-9c-11,21 -30,27 -30,9c0,-5 4,-8 9,-5c8,5 14,-12 23,-69c2,-11 10,-27 18,-35c9,-8 11,-12 4,-7c-6,4 -19,5 -28,1c-11,-4 -16,-1 -16,10c0,11 -9,16 -29,16c-16,0 -34,7 -41,16c-8,8 -23,20 -34,25c-13,7 -9,1 9,-15c17,-14 26,-25 22,-26c-4,0 -2,-10 5,-22c15,-29 19,-50 7,-42c-5,3 -9,0 -9,-5c0,-6 -5,-11 -11,-11c-6,0 -8,8 -4,19c3,11 -3,28 -14,42c-12,14 -20,18 -21,11c0,-7 -5,-10 -12,-6c-7,4 -8,3 -4,-5c4,-6 11,-9 16,-6c8,5 25,-24 21,-38c-1,-5 12,-26 29,-47c16,-21 30,-42 30,-47c0,-6 11,-22 25,-37c13,-14 22,-26 20,-26c-1,0 39,-43 91,-95c52,-52 99,-95 104,-95c6,0 19,-5 30,-12c15,-10 23,-9 39,6c21,19 21,19 21,-32c0,-45 -3,-52 -20,-52c-11,0 -20,-5 -20,-11c0,-6 7,-8 16,-5c8,3 12,2 9,-4c-6,-9 8,-14 29,-11c4,1 14,-6 22,-16c12,-16 13,-17 14,-1c0,9 -5,20 -10,23c-8,5 -7,11 1,21c15,19 33,18 25,-2c-3,-8 -2,-12 4,-9c6,3 10,-1 10,-9c0,-9 5,-16 10,-16c6,0 10,-7 10,-15c0,-8 8,-15 18,-15c10,0 23,-5 30,-12c16,-16 16,4 0,22c-11,12 -10,12 5,1c9,-7 17,-20 17,-27c0,-8 7,-14 15,-14c8,0 15,-4 15,-10c0,-5 7,-10 15,-10c8,0 15,-4 15,-9c0,-12 63,-3 71,11c9,15 49,-17 49,-39c0,-18 16,-17 24,2c3,8 14,15 24,15c39,0 81,71 50,83c-7,3 10,3 37,1l50,-5l-32,15c-18,8 -48,22 -68,32c-34,16 -35,16 -55,-7c-11,-13 -17,-29 -15,-36c3,-9 -5,-11 -28,-6c-18,3 -33,7 -35,8c-4,3 31,70 42,77c18,12 68,6 108,-14c21,-10 43,-18 50,-18c7,0 31,-16 53,-36c23,-21 32,-33 21,-29c-19,6 -19,5 -1,-15c18,-20 18,-20 -14,-9c-45,16 -49,5 -6,-15c36,-17 43,-30 24,-41c-6,-4 -8,-13 -5,-20c6,-15 -20,-29 -48,-26c-15,2 -17,-1 -12,-16c22,-55 22,-55 -72,-52c-106,4 -127,-2 -173,-52c-43,-46 -64,-48 -107,-11c-26,22 -32,35 -34,74c-2,27 -7,48 -13,48c-12,0 -75,71 -75,84c0,4 9,6 21,3c20,-5 20,-5 2,16c-10,12 -23,27 -28,33c-6,6 -37,24 -69,40c-48,23 -55,30 -42,39c12,9 13,14 4,23c-15,15 -31,16 -22,1c4,-7 1,-10 -7,-7c-7,2 -16,15 -20,29c-4,13 -7,21 -8,16c-2,-12 -70,54 -76,73c-3,9 -15,22 -28,29c-24,13 -77,82 -77,101c0,7 -30,46 -66,88c-39,44 -63,80 -60,89c3,8 -5,26 -19,41c-25,26 -36,57 -13,34c24,-24 31,-11 7,15c-13,14 -17,23 -9,19c8,-4 6,0 -4,8c-11,9 -16,16 -12,16c5,0 1,12 -9,26c-16,25 -16,25 7,13c22,-12 22,-11 8,7c-8,10 -24,27 -35,37c-17,16 -17,18 -2,13c18,-6 24,9 7,19c-5,3 -10,11 -10,17c0,6 9,3 20,-7c11,-10 20,-14 20,-10c0,5 17,-7 37,-26c33,-31 35,-31 14,-5c-15,20 -18,32 -10,36c8,6 8,14 -1,31c-11,21 -9,21 19,-6c25,-23 31,-26 25,-10c-7,19 -7,19 13,2c20,-17 21,-17 26,4c5,20 8,21 23,8c13,-11 18,-11 21,-1c3,6 10,12 16,12c5,0 7,-3 4,-7c-4,-3 1,-12 11,-19c14,-10 20,-10 34,3c15,13 18,13 22,2c12,-39 16,-40 11,-4c-5,36 -4,38 7,18c7,-12 16,-21 20,-20c4,1 14,-7 23,-18c14,-17 16,-17 11,-2c-9,29 13,19 34,-15c19,-32 20,-32 21,-8c0,23 1,23 8,5c8,-19 9,-18 13,5l5,25l11,-25l11,-25l1,25c0,20 2,22 11,10c8,-11 12,-12 16,-2c6,15 33,16 33,1c0,-5 -4,-7 -10,-4c-12,8 -13,-5 -1,-23c6,-10 10,-8 14,9c7,26 -8,49 -32,49c-9,0 -22,5 -28,11c-6,6 -29,15 -50,19c-21,4 -90,21 -154,38c-173,45 -286,59 -351,43c-73,-16 -116,-48 -124,-89c-11,-57 14,-108 105,-212c127,-145 161,-186 230,-280c79,-107 170,-204 235,-252c97,-72 106,-82 142,-158c9,-19 35,-56 58,-81c22,-25 54,-62 69,-82c16,-21 37,-37 48,-37c12,0 17,-4 13,-11c-12,-20 117,-7 149,14c16,11 45,21 65,23l37,4l-29,-14c-23,-11 -25,-14 -11,-20c9,-3 22,-3 27,1c7,4 8,1 3,-7c-6,-10 -4,-12 7,-7c9,3 24,-1 35,-8c28,-22 38,-17 12,6c-13,11 -17,17 -9,13c8,-4 29,-7 47,-6c19,2 33,-2 33,-9c0,-6 -7,-9 -15,-5c-9,3 -15,0 -15,-9c0,-13 25,-20 52,-16c4,0 5,-6 2,-14c-7,-18 -14,-18 -38,0c-24,18 -38,19 -35,3c3,-21 -12,-48 -27,-48c-9,0 -14,-12 -14,-34c0,-19 -5,-38 -10,-41c-6,-4 -8,-11 -5,-16c3,-5 -3,-18 -13,-29c-23,-25 -43,-111 -38,-165c2,-22 -1,-46 -8,-54c-8,-12 -8,-13 2,-7c8,5 12,0 12,-16c0,-17 -3,-19 -9,-9c-14,21 -20,-41 -17,-182c2,-125 -5,-167 -23,-139c-6,11 -11,10 -25,-3c-24,-25 -39,-55 -26,-55c6,0 16,11 22,25c12,28 28,33 28,10c0,-8 -4,-15 -10,-15c-5,0 -17,-22 -27,-50c-10,-27 -21,-50 -25,-50c-11,0 -10,18 2,25c6,3 10,14 10,23c0,11 -7,5 -20,-16c-11,-18 -19,-36 -18,-40c3,-13 -13,-72 -20,-72c-4,0 -18,-23 -31,-50c-28,-59 -41,-59 -17,0c9,22 14,40 11,40c-9,0 -55,-87 -55,-104c0,-10 -6,-16 -17,-14c-22,4 -65,-69 -60,-100c3,-12 0,-25 -4,-28c-13,-8 -11,-44 2,-44c8,0 8,-5 -1,-15c-9,-10 -9,-15 -1,-15c6,0 11,-6 11,-14c0,-8 5,-16 11,-18c8,-3 9,-21 4,-57c-5,-36 -10,-49 -16,-40c-6,10 -9,11 -9,2c0,-7 -5,-13 -10,-13c-7,0 -7,8 1,22c9,17 9,23 0,26c-9,3 -9,7 0,18c24,29 1,23 -27,-8c-19,-20 -23,-29 -11,-25c9,4 17,3 17,-2c0,-5 -9,-11 -20,-14c-11,-3 -20,-10 -20,-17c0,-6 5,-8 13,-4c6,4 0,-5 -15,-21c-16,-15 -29,-37 -30,-49c-3,-51 -7,-73 -14,-95c-6,-21 -5,-23 14,-19c12,4 20,2 16,-3c-3,-5 -11,-9 -19,-9c-7,0 -15,-6 -18,-14c-8,-21 -1,-51 12,-48c7,1 6,-6 -3,-20c-12,-19 -22,-69 -17,-88c3,-10 13,-156 14,-188c0,-24 4,-31 14,-27c11,4 14,-4 13,-33c-1,-20 -1,-39 0,-42c5,-11 12,-68 15,-135c2,-38 11,-90 20,-115c22,-62 124,-260 146,-286c11,-11 19,-32 19,-47c0,-15 5,-27 10,-27c16,0 33,-47 25,-67c-7,-16 -9,-15 -14,7c-7,24 -7,24 -30,-14c-13,-21 -25,-56 -26,-78c-3,-60 67,-327 120,-458c26,-63 51,-131 57,-150c5,-19 13,-44 18,-55c5,-11 11,-31 13,-45c16,-77 37,-144 47,-150c7,-5 10,-16 6,-25c-15,-39 51,-103 90,-88c17,6 19,30 3,35c-7,2 -7,11 1,30c12,25 9,65 -16,233c-2,17 -6,42 -7,58c-2,15 -8,32 -14,38c-7,7 -9,34 -6,68c4,46 2,61 -12,75c-14,14 -17,28 -12,71c4,40 1,62 -12,86c-23,42 -16,79 14,79c13,0 26,7 29,17c6,14 12,11 42,-18c20,-19 42,-46 50,-62c8,-15 20,-27 28,-27c7,0 21,-9 31,-20c10,-11 22,-17 26,-14c5,3 9,-2 9,-10c0,-8 7,-19 17,-24c16,-9 35,-97 34,-153c-1,-14 6,-46 15,-70c13,-34 16,-77 15,-186c-1,-92 2,-144 9,-148c6,-4 27,5 46,20c19,15 48,30 64,35c25,7 31,5 46,-18c9,-15 23,-31 31,-35c7,-4 13,-17 13,-28c0,-10 4,-27 9,-37c34,-68 66,-208 57,-255c-4,-20 -18,-50 -32,-66c-21,-26 -55,-92 -54,-106c1,-12 -16,-31 -43,-48c-21,-14 -26,-23 -21,-42c3,-13 0,-55 -6,-93c-11,-58 -10,-78 4,-133c19,-77 19,-79 6,-79c-5,0 -10,6 -10,14c0,19 -27,46 -46,46c-22,0 -17,-48 10,-105c19,-39 26,-46 31,-33c10,26 24,22 36,-8c7,-21 6,-31 -6,-44c-8,-9 -15,-33 -15,-54c0,-23 -5,-39 -15,-42c-8,-4 -15,-17 -15,-31c0,-19 4,-24 16,-19c9,3 33,6 53,6c35,0 38,2 34,23c-6,29 16,48 45,40c28,-7 28,-27 1,-46c-18,-13 -4,-15 138,-21c87,-3 215,-9 284,-12l126,-6l6,24c10,37 8,55 -9,73c-11,10 -15,27 -11,48c2,17 1,44 -4,59c-6,21 -2,39 17,73c14,25 24,55 21,67c-3,20 -5,19 -12,-9c-4,-18 -11,-33 -15,-33c-17,0 -19,50 -8,147c10,86 9,107 -3,129c-8,16 -14,54 -13,93c0,55 -2,61 -10,39c-5,-16 -13,-28 -18,-28c-4,0 -8,-8 -8,-17c-1,-20 -29,-74 -30,-58c-11,89 -9,164 5,197c8,21 15,50 15,65c0,28 44,83 66,83c7,0 16,15 19,32c4,18 12,38 17,45c24,30 48,201 49,348c1,289 14,503 31,522c9,10 22,47 29,83c7,36 17,70 22,75c6,6 8,2 4,-12c-3,-16 -1,-23 9,-23c10,0 14,-9 12,-27c-2,-17 2,-27 8,-26c25,5 28,-95 18,-523c-4,-154 -2,-183 11,-194c8,-7 16,-27 16,-44c1,-17 3,-23 6,-14c7,27 23,21 36,-12c7,-19 18,-30 30,-30c13,0 17,5 13,15c-3,9 0,15 7,15c17,0 60,76 52,90c-3,5 -3,16 2,23c4,6 9,20 10,29c2,9 10,36 18,60c9,24 18,58 21,76c2,19 13,50 24,70l20,37l-6,-55c-3,-30 -10,-70 -16,-88c-11,-38 -13,-136 -4,-327c5,-112 9,-141 21,-143c9,-2 15,-15 15,-32c0,-33 19,-80 32,-80c5,0 6,5 3,10c-8,13 -3,13 31,0c30,-12 44,1 51,45c2,11 8,24 13,29c13,13 88,-13 108,-38c9,-12 33,-33 53,-48l37,-27l-6,-66c-4,-61 -3,-69 27,-117c35,-56 37,-83 13,-178c-7,-25 -14,-57 -17,-73c-9,-44 -39,-67 -89,-67c-53,0 -131,33 -151,64c-9,14 -35,28 -65,36c-34,9 -49,18 -46,27c3,7 1,13 -4,13c-6,0 -10,12 -11,28c-1,22 -3,20 -11,-13c-19,-78 -5,-146 52,-251c29,-54 62,-127 75,-163l22,-66l109,3c60,2 145,7 189,13c44,5 102,12 128,15c57,6 97,20 97,33c0,6 21,21 48,33c52,27 95,89 73,111c-6,6 -11,7 -11,2c0,-17 -87,-16 -101,1c-8,10 -9,18 -3,22c5,4 17,19 27,35c14,22 16,39 11,95c-4,37 -13,84 -20,106c-8,21 -14,54 -14,73c0,30 -10,46 -67,105c-59,60 -72,68 -98,65c-39,-6 -64,25 -65,80c0,51 8,73 26,73c9,0 14,11 14,31c0,27 3,30 23,24c36,-12 42,-23 23,-44c-12,-13 -16,-28 -12,-44c8,-33 42,-74 53,-64c14,14 9,163 -6,181c-8,10 -11,27 -8,46c4,16 2,32 -3,35c-6,4 -7,17 -4,29c3,14 0,29 -9,37c-7,8 -19,24 -26,37c-10,18 -9,22 3,22c9,0 20,9 26,21c10,17 8,21 -9,26c-16,4 -21,13 -20,42c0,20 -9,79 -20,131c-11,52 -24,149 -27,215c-4,66 -10,125 -14,130c-4,6 -10,24 -14,40c-5,22 -4,26 4,15c7,-11 9,3 5,49c-2,35 -9,68 -16,72c-7,4 -9,14 -6,24c4,9 3,14 -2,11c-11,-7 -36,89 -32,126c1,15 -5,38 -13,50c-9,12 -16,18 -16,13c0,-5 -7,0 -15,11c-8,10 -15,29 -15,42c0,12 -5,22 -11,22c-7,0 -8,7 -4,18c12,26 13,85 3,105c-10,20 -28,23 -28,4c0,-7 -6,-22 -14,-32c-14,-19 -15,-19 -35,5c-26,31 -27,50 -2,50c21,0 31,19 31,60c0,17 9,38 21,49c18,16 20,26 14,57c-15,81 -16,119 -4,142c9,16 10,25 3,30c-20,13 -38,57 -36,86c3,29 -29,107 -56,138c-7,9 -11,21 -8,27c4,6 0,21 -9,35c-9,13 -15,31 -13,38c3,17 -52,128 -64,128c-4,0 -8,-7 -8,-15c0,-8 -4,-15 -8,-15c-11,0 -44,59 -38,69c3,4 -6,13 -19,19c-24,11 -25,10 -19,-16c4,-15 11,-33 17,-40c8,-10 7,-16 -1,-21c-9,-6 -7,-14 8,-33c16,-21 18,-31 9,-55c-7,-21 -7,-50 0,-94c13,-78 14,-220 2,-251c-48,-125 -55,-220 -22,-287c29,-56 11,-45 -24,15c-26,45 -27,50 -17,113c6,36 15,84 21,106c25,86 19,307 -9,340c-5,6 -7,14 -5,17c10,9 -26,222 -39,236c-10,10 -12,-9 -10,-97c2,-115 -8,-151 -44,-151c-15,-1 -15,-2 2,-15c19,-15 19,-15 -2,-15c-12,0 -22,-4 -22,-10c0,-5 6,-10 14,-10c24,0 27,-28 4,-32c-25,-4 -37,-28 -14,-28c23,0 20,-15 -6,-28l-23,-11l22,-6c23,-7 21,-35 -2,-35c-8,0 -12,-10 -10,-25c1,-16 -3,-25 -12,-25c-8,0 -12,-4 -9,-9c10,-16 -5,-41 -25,-41c-26,0 -24,-15 4,-28c21,-10 20,-11 -10,-11c-26,-1 -31,-4 -26,-17c4,-10 -1,-22 -11,-29c-14,-10 -15,-17 -6,-41c13,-34 13,-39 0,-40c-5,-1 -14,-2 -19,-3c-4,0 -6,-12 -4,-24c4,-20 -2,-27 -33,-42c-21,-10 -49,-21 -63,-25c-14,-3 -24,-8 -22,-11c9,-8 -20,-49 -30,-43c-7,4 -7,10 0,17c16,16 13,30 -5,23c-19,-7 -64,21 -64,41c0,25 -58,-28 -71,-66c-6,-18 -9,-48 -6,-67c5,-29 2,-37 -22,-54c-16,-11 -36,-37 -46,-57c-9,-21 -23,-51 -31,-67c-8,-16 -14,-36 -14,-45c0,-9 -7,-34 -15,-56c-16,-46 -20,-109 -6,-100c6,3 15,-4 21,-16c16,-29 4,-133 -15,-126c-16,7 -38,-39 -30,-64c10,-30 -12,-60 -39,-53c-13,3 -27,1 -30,-5c-11,-17 -29,-13 -22,4c8,21 -17,29 -43,15c-23,-12 -26,-8 -11,20c14,25 -15,55 -71,74c-39,14 -42,13 -46,-5c-5,-18 -6,-18 -18,-3c-11,16 -14,16 -34,-3c-13,-12 -30,-19 -42,-16c-13,4 -19,0 -19,-11c0,-11 -9,-16 -27,-16c-42,0 -57,-14 -49,-44c9,-36 -4,-33 -46,12c-30,31 -35,43 -32,77c3,48 -31,126 -62,139c-25,11 -70,74 -80,110c-3,15 -13,30 -21,33c-11,4 -13,28 -11,117c2,61 -1,137 -5,170c-8,58 -30,106 -49,106c-19,0 -48,-37 -42,-53c3,-10 1,-17 -5,-17c-6,0 -11,-12 -11,-27c0,-16 -4,-35 -10,-43c-6,-9 -5,-17 2,-21c18,-11 -12,-67 -33,-62c-11,3 -15,11 -12,20c8,19 -33,52 -64,53c-25,0 -29,10 -12,27c8,8 -6,10 -52,7l-64,-4l33,21c38,25 42,42 8,33c-29,-7 -43,11 -19,25c15,9 13,10 -14,11c-23,0 -33,5 -33,15c0,8 -5,15 -11,15c-8,0 -8,5 1,15c10,12 9,16 -3,21c-9,3 -14,11 -11,18c3,7 -7,18 -21,26c-14,7 -25,19 -25,26c0,7 -11,26 -25,42c-18,22 -21,32 -13,40c8,8 8,12 1,12c-17,0 -39,60 -24,69c8,5 3,11 -13,19c-17,8 -24,17 -21,31c5,25 -20,77 -43,91c-12,6 -13,12 -6,17c18,13 16,80 -3,87c-12,5 -14,15 -10,41c3,19 2,35 -3,35c-5,0 -4,14 2,30c5,17 8,36 5,43c-3,8 3,18 13,24c15,10 17,8 13,-23c-3,-32 -2,-34 21,-28c17,4 27,1 34,-12c5,-9 18,-18 28,-19c11,-1 27,-6 37,-10c10,-4 42,-5 72,-3c30,3 55,3 55,1c0,-2 -15,-11 -32,-19l-33,-14l38,6c22,4 37,2 37,-4c0,-16 39,-21 73,-10c37,13 69,39 106,88c15,20 36,36 51,38c28,3 44,23 27,34c-13,8 -16,60 -4,69c4,3 10,32 12,65c3,32 7,74 10,92c4,18 2,32 -4,32c-6,0 -4,15 5,35c18,45 18,45 -13,45l-27,0l22,16c15,10 21,22 17,34c-3,10 2,25 12,36c10,10 17,19 16,21c-2,2 -2,5 -2,8c1,3 3,10 4,15c1,6 3,14 4,19c0,4 20,21 44,36c23,15 53,40 67,56c14,15 43,36 65,45c32,13 36,18 22,23c-14,5 -4,13 40,35c32,16 52,31 45,33c-7,3 -24,-3 -38,-12c-14,-9 -28,-14 -31,-11c-3,3 13,14 35,24c34,15 39,21 29,32c-9,10 -9,11 1,6c6,-4 12,-3 12,2c0,5 8,12 18,14c10,3 19,12 19,21c0,12 -5,14 -18,7c-10,-6 -27,-6 -40,-2c-21,8 -20,9 12,22c19,8 54,35 78,60c42,44 43,45 20,51c-23,5 -23,6 6,14l30,8l-25,7c-23,8 -24,8 -3,9c12,1 27,11 34,22c11,21 10,22 -22,15c-24,-4 -30,-3 -19,4c8,5 23,10 32,10c9,0 21,6 25,14c4,7 15,16 23,19c10,4 8,6 -7,6c-34,1 -36,19 -3,26c17,4 28,11 24,16c-3,5 2,9 10,9c19,0 21,11 5,27c-8,8 -5,15 8,24c23,17 37,49 21,49c-6,0 -8,3 -5,7c4,3 -1,12 -11,19c-15,12 -14,14 15,20c36,7 35,24 -1,24c-13,0 -29,6 -35,14c-9,11 -6,15 16,21c21,5 24,8 12,16c-9,6 -10,9 -1,9c21,0 13,20 -13,32c-29,13 -32,25 -7,31c9,3 2,5 -17,6l-34,1l23,20c20,18 21,20 5,20c-18,0 -18,1 1,16c10,8 14,13 8,10c-7,-3 -17,1 -24,9c-14,17 -14,17 15,33c17,10 14,11 -22,12c-49,0 -55,11 -16,29c21,10 24,14 13,21c-12,7 -9,11 10,19c22,8 22,10 5,11c-12,0 -16,3 -9,8c6,4 13,15 17,25c6,15 3,17 -14,12c-18,-6 -20,-4 -14,16c6,18 4,21 -10,15c-25,-9 -38,3 -23,22c11,13 10,15 -15,10c-27,-5 -27,-5 -11,13c15,17 13,24 -8,20c-14,-2 -9,16 8,30c14,11 14,13 0,21c-12,7 -13,14 -6,33c5,14 7,25 4,25c-4,0 -1,6 5,13c6,8 8,17 4,20c-3,4 4,19 18,34c13,15 16,21 6,14c-15,-12 -17,-12 -11,3c3,9 10,16 14,16c4,0 10,14 14,30c3,17 26,51 51,77c28,28 42,49 35,53c-18,11 18,34 56,35c18,1 31,-2 28,-7c-3,-4 -1,-8 5,-8c6,0 20,-18 31,-39c11,-22 26,-44 32,-48c7,-4 13,-15 13,-23c0,-8 15,-23 34,-32c30,-15 35,-15 48,-2c9,8 23,12 34,9c14,-5 17,-2 13,9c-4,10 0,13 14,10c10,-3 34,1 53,9c21,10 27,16 16,16c-28,1 -11,18 25,25c42,8 88,29 88,38c0,5 9,8 19,8c10,0 29,9 42,20c21,18 22,19 4,14c-15,-4 -17,-4 -6,4c8,6 20,8 27,5c14,-5 63,26 64,42c1,6 19,30 42,55c23,25 35,37 28,27c-7,-9 -10,-20 -8,-23c8,-8 38,25 38,42c0,8 5,14 10,14c6,0 10,-10 10,-21c0,-18 3,-19 15,-9c8,6 14,15 13,18c-2,17 3,32 10,31c22,-4 32,3 32,21c0,11 7,23 15,26c8,4 12,10 9,15c-3,5 4,10 15,10c12,1 26,3 31,4c6,1 13,3 18,4c4,0 20,12 35,26c15,14 27,22 27,18c0,-5 17,-7 39,-5c21,2 42,-1 45,-7c12,-19 29,-12 23,9c-3,11 -1,20 5,20c5,0 6,6 2,13c-6,9 -5,9 7,0c17,-13 32,-6 42,20c5,13 1,17 -15,17c-18,0 -19,-2 -7,-17c8,-11 4,-10 -11,3c-14,12 -51,27 -82,34c-69,14 -122,58 -133,110c-22,101 -97,196 -215,272c-76,49 -139,80 -149,73c-5,-3 -11,-1 -13,4c-1,6 -14,12 -28,15c-14,3 -42,10 -63,15c-20,5 -47,6 -59,3c-14,-3 -19,-1 -14,6c4,7 2,10 -6,8c-7,-2 -29,-7 -48,-10c-25,-4 -31,-3 -20,4c11,7 5,9 -22,7c-21,-1 -38,-6 -38,-11zm357,-165c65,-18 108,-121 62,-149c-18,-11 -21,-11 -25,5c-5,19 -44,26 -59,11c-4,-4 -13,-4 -21,-1c-8,3 -14,1 -14,-5c0,-5 -12,-12 -27,-15c-30,-6 -101,27 -83,38c6,4 8,15 5,26c-13,40 68,114 112,103c6,-2 29,-8 50,-13zm-1893,-136c11,-8 17,-17 14,-20c-3,-3 -16,3 -29,14c-27,23 -14,28 15,6zm-54,-90c0,-10 -40,9 -44,21c-4,11 0,11 19,-2c14,-9 25,-18 25,-19zm1170,-25c0,-5 -5,-10 -11,-10c-5,0 -7,5 -4,10c3,6 8,10 11,10c2,0 4,-4 4,-10zm-1217,-17c-3,-7 -9,-10 -14,-7c-14,8 -11,21 5,21c8,0 12,-6 9,-14zm1257,2c0,-2 -10,-9 -22,-15c-22,-11 -22,-10 -4,4c21,17 26,19 26,11zm110,1c0,-2 -8,-10 -17,-17c-16,-13 -17,-12 -4,4c13,16 21,21 21,13zm-75,-46c-3,-5 -11,-10 -16,-10c-6,0 -7,5 -4,10c3,6 11,10 16,10c6,0 7,-4 4,-10zm-50,-10c-3,-5 -1,-10 6,-10c7,0 10,-3 6,-6c-9,-9 -28,6 -22,17c4,5 8,9 11,9c3,0 2,-4 -1,-10zm39,-25c-4,-8 -11,-15 -16,-15c-6,0 -5,6 2,15c7,8 14,15 16,15c2,0 1,-7 -2,-15zm543,-39c-3,-8 -22,-17 -42,-20c-42,-8 -40,-15 7,-26c31,-7 31,-8 6,-9c-37,-1 -78,19 -78,38c0,12 2,13 8,3c6,-9 12,-6 20,12c13,30 75,52 80,29c2,-8 1,-20 -1,-27zm-607,30c0,-2 -7,-7 -16,-10c-8,-3 -12,-2 -9,4c6,10 25,14 25,6zm-676,-53c23,-28 17,-30 -12,-4c-12,10 -19,21 -15,25c3,3 7,5 7,4c1,-2 10,-13 20,-25zm1131,-13c3,-5 1,-10 -4,-10c-6,0 -11,5 -11,10c0,6 2,10 4,10c3,0 8,-4 11,-10zm-622,-40c-3,-12 -8,-19 -11,-16c-5,6 5,36 12,36c2,0 2,-9 -1,-20zm682,10c4,-7 -3,-9 -19,-6c-18,3 -23,1 -20,-9c4,-10 -1,-12 -15,-8c-17,4 -19,8 -10,19c13,16 55,19 64,4zm605,6c0,-3 -4,-8 -10,-11c-5,-3 -10,-1 -10,4c0,6 5,11 10,11c6,0 10,-2 10,-4zm-540,-22c0,-2 -7,-4 -15,-4c-8,0 -15,4 -15,10c0,5 7,7 15,4c8,-4 15,-8 15,-10zm-762,-54c-13,-40 -28,-48 -28,-15c0,15 4,24 10,20c6,-3 10,1 10,9c0,9 4,16 9,16c6,0 6,-12 -1,-30zm-230,-115c-3,-12 -29,-8 -43,7c-7,6 -1,8 18,6c15,-2 26,-7 25,-13zm-438,-25c0,-5 -5,-10 -11,-10c-5,0 -7,5 -4,10c3,6 8,10 11,10c2,0 4,-4 4,-10zm483,-367c-7,-2 -19,-2 -25,0c-7,3 -2,5 12,5c14,0 19,-2 13,-5zm-81,-285c-9,-9 -12,-7 -12,12c0,19 3,21 12,12c9,-9 9,-15 0,-24zm-357,-1252c-9,-13 -23,-27 -31,-30c-11,-4 -9,3 6,24c25,36 48,41 25,6zm10,-53c-4,-10 -8,-24 -8,-31c0,-8 -4,-9 -10,-3c-11,11 0,51 15,51c6,0 7,-7 3,-17zm-94,-50c-10,-17 -10,-16 -11,3c0,23 13,41 18,25c2,-6 -1,-18 -7,-28zm444,-272c-15,-29 -33,-47 -40,-39c-4,4 44,68 51,68c2,0 -2,-13 -11,-29zm1644,-814c6,-18 9,-81 7,-142c-4,-137 -4,-135 -15,-135c-10,0 -10,-2 -13,175c-2,72 -7,137 -12,145c-8,13 -7,13 7,2c9,-8 21,-28 26,-45zm-389,-5c0,-15 -2,-15 -10,-2c-13,20 -13,33 0,25c6,-3 10,-14 10,-23zm376,-357c-3,-28 -16,-47 -16,-22c0,16 10,47 15,47c2,0 2,-11 1,-25zm-1679,-107c-3,-8 -6,-5 -6,6c-1,11 2,17 5,13c3,-3 4,-12 1,-19zm1653,-28c0,-11 -4,-20 -9,-20c-5,0 -7,9 -4,20c3,11 7,20 9,20c2,0 4,-9 4,-20zm-33,-132c-3,-8 -6,-5 -6,6c-1,11 2,17 5,13c3,-3 4,-12 1,-19zm410,-120c-3,-8 -6,-5 -6,6c-1,11 2,17 5,13c3,-3 4,-12 1,-19zm-1418,-130c13,-4 12,-5 -1,-10c-10,-4 -23,2 -35,14c-18,20 -18,21 2,11c11,-6 27,-12 34,-15zm46,-68c3,-6 -1,-7 -9,-4c-18,7 -21,14 -7,14c6,0 13,-4 16,-10zm-105,-106c0,-21 -4,-33 -10,-29c-5,3 -10,22 -10,41c0,21 4,33 10,29c6,-3 10,-22 10,-41zm250,-5c0,-5 -4,-9 -10,-9c-5,0 -10,7 -10,16c0,8 5,12 10,9c6,-3 10,-10 10,-16zm-9,-475c17,-34 27,-44 46,-44c34,0 60,-60 43,-101c-14,-33 -32,-50 -57,-53c-19,-3 -72,77 -79,118c-1,12 -6,40 -10,63c-4,29 -2,48 6,58c16,20 27,12 51,-41zm1017,-446c7,-7 55,-15 110,-18c82,-5 103,-10 133,-30c18,-14 48,-32 64,-40c29,-15 30,-17 30,-87c0,-40 -5,-77 -11,-83c-6,-6 -24,-7 -43,-4c-29,6 -31,9 -26,36c6,23 1,34 -24,60l-31,32l0,-28c0,-44 -24,-25 -31,24c-3,24 -11,46 -17,48c-7,2 -12,9 -12,15c0,8 -22,12 -63,12c-55,0 -66,3 -90,27c-32,32 -67,29 -39,-3c9,-10 22,-19 28,-19c12,0 24,-22 24,-41c0,-6 -9,-8 -19,-4c-11,3 -36,-1 -56,-10c-21,-8 -39,-15 -42,-15c-2,0 -1,17 3,38c13,75 76,126 112,90z"/>
   <path stroke="null" id="svg_3" d="m3942.516676,3592.575747c3,-5 13,-10 22,-10c14,0 83,-34 111,-55c8,-5 42,-39 77,-74c53,-55 64,-72 75,-120c7,-31 17,-62 24,-70c8,-12 8,-13 -1,-7c-7,4 -13,2 -13,-4c0,-6 7,-13 15,-16c8,-4 15,-14 15,-24c0,-23 46,-53 71,-47c10,3 21,1 24,-4c9,-13 55,-7 55,8c0,7 -18,30 -40,52c-52,51 -103,119 -125,165c-24,51 -123,138 -198,174c-70,33 -122,49 -112,32z"/>
   <path stroke="null" id="svg_4" d="m1907.516676,3392.575747c6,-11 13,-20 16,-20c2,0 0,9 -6,20c-6,11 -13,20 -16,20c-2,0 0,-9 6,-20z"/>
   <path stroke="null" id="svg_5" d="m1887.516676,3378.575747c0,-2 8,-10 18,-17c15,-13 16,-12 3,4c-13,16 -21,21 -21,13z"/>
   <path stroke="null" id="svg_6" d="m1927.516676,3345.575747c0,-13 5,-23 10,-23c13,0 13,11 0,30c-8,12 -10,11 -10,-7z"/>
   <path stroke="null" id="svg_7" d="m1887.516676,3348.575747c0,-2 8,-10 18,-17c15,-13 16,-12 3,4c-13,16 -21,21 -21,13z"/>
   <path stroke="null" id="svg_8" d="m2227.516676,3321.575747c0,-23 35,-65 43,-52c4,6 -5,23 -18,39c-18,21 -25,24 -25,13z"/>
   <path stroke="null" id="svg_9" d="m2622.516676,3282.575747c3,-5 8,-10 11,-10c2,0 4,5 4,10c0,6 -5,10 -11,10c-5,0 -7,-4 -4,-10z"/>
   <path stroke="null" id="svg_10" d="m2300.516676,3268.575747c0,-8 6,-12 14,-9c7,3 13,0 13,-6c0,-6 12,-11 27,-11c26,0 25,1 -12,20c-22,11 -40,20 -40,20c-1,0 -2,-6 -2,-14z"/>
   <path stroke="null" id="svg_11" d="m1812.516676,3243.575747c-3,-5 -1,-12 5,-16c5,-3 10,1 10,9c0,18 -6,21 -15,7z"/>
   <path stroke="null" id="svg_12" d="m2357.516676,3211.575747c0,-5 5,-7 10,-4c6,3 10,8 10,11c0,2 -4,4 -10,4c-5,0 -10,-5 -10,-11z"/>
   <path stroke="null" id="svg_13" d="m2387.516676,3198.575747c0,-2 7,-7 16,-10c8,-3 12,-2 9,4c-6,10 -25,14 -25,6z"/>
   <path stroke="null" id="svg_14" d="m2467.516676,3187.575747c0,-2 10,-10 23,-16c20,-11 21,-11 8,4c-13,16 -31,23 -31,12z"/>
   <path stroke="null" id="svg_15" d="m2427.516676,3157.575747c0,-8 2,-15 4,-15c2,0 6,7 10,15c3,8 1,15 -4,15c-6,0 -10,-7 -10,-15z"/>
   <path stroke="null" id="svg_16" d="m4620.516676,3135.575747c-32,-11 -43,-20 -43,-35c0,-11 -8,-22 -19,-25c-31,-8 -32,-31 -3,-53c60,-46 77,-64 77,-86c1,-13 -3,-24 -8,-24c-4,0 -5,-4 -2,-10c4,-6 -1,-7 -12,-3c-10,3 -15,3 -11,-2c4,-4 2,-15 -5,-23c-10,-13 -9,-14 1,-8c7,4 15,1 18,-9c5,-11 10,-13 19,-5c9,8 15,8 20,0c3,-5 1,-10 -5,-10c-6,0 -8,-5 -4,-12c5,-8 2,-9 -9,-5c-40,15 -65,-31 -34,-62c10,-10 8,-11 -7,-5c-16,6 -18,4 -14,-19c3,-15 1,-24 -3,-21c-5,3 -9,1 -9,-5c0,-5 -3,-16 -6,-25c-4,-11 -1,-16 10,-16c9,0 16,7 16,15c0,9 6,15 13,13c19,-4 107,25 107,35c0,5 7,7 15,3c8,-3 15,-1 15,4c0,6 5,10 10,10c6,0 10,-4 10,-10c0,-10 -72,-50 -90,-50c-6,0 -43,-15 -83,-33c-73,-35 -183,-76 -207,-79c-3,0 -16,-5 -30,-10c-36,-15 -70,-18 -70,-6c0,5 -12,0 -27,-11c-14,-12 -34,-19 -43,-16c-10,3 -23,-1 -30,-10c-7,-8 -21,-15 -31,-15c-10,0 -21,-9 -24,-20c-3,-11 -12,-20 -18,-20c-7,0 -31,-8 -54,-17c-76,-32 -78,-108 -3,-81c24,8 35,8 37,1c4,-10 29,-8 63,4c8,4 19,5 24,4c5,-1 12,3 16,10c5,7 13,8 21,3c28,-17 59,-12 81,14c43,49 101,102 112,102c6,0 5,-5 -2,-12c-7,-7 -12,-16 -12,-22c0,-6 5,-5 11,1c6,6 18,9 25,6c8,-3 17,2 20,11c3,9 10,16 15,16c6,0 5,-8 -1,-19c-14,-28 -12,-38 3,-16c9,11 19,15 26,10c10,-6 11,-3 2,13c-8,15 -7,20 2,19c46,-1 97,4 94,11c-3,4 6,8 19,8c24,2 54,25 54,43c0,6 9,15 20,21c18,10 24,7 21,-12c0,-4 9,-10 20,-13c15,-5 29,1 49,20c16,16 28,31 27,34c-1,3 5,16 12,29c7,13 10,30 7,38c-3,9 -1,12 4,9c6,-3 10,3 10,14c0,12 5,21 11,21c6,0 9,9 6,20c-3,11 -1,20 4,20c5,0 9,4 9,9c0,7 28,75 48,114c2,4 -5,4 -15,0c-15,-6 -16,-5 -5,9c11,13 11,33 1,105c-6,48 -16,93 -22,98c-7,7 -8,4 -4,-7c4,-10 2,-18 -3,-18c-6,0 -10,4 -10,10c0,40 -147,61 -227,33z"/>
   <path stroke="null" id="svg_17" d="m4485.516676,3125.575747c7,-3 16,-2 19,1c4,3 -2,6 -13,5c-11,0 -14,-3 -6,-6z"/>
   <path stroke="null" id="svg_18" d="m2557.516676,3011.575747c0,-5 5,-7 10,-4c6,3 10,8 10,11c0,2 -4,4 -10,4c-5,0 -10,-5 -10,-11z"/>
   <path stroke="null" id="svg_19" d="m4612.516676,2952.575747c-3,-5 -1,-10 4,-10c6,0 11,5 11,10c0,6 -2,10 -4,10c-3,0 -8,-4 -11,-10z"/>
   <path stroke="null" id="svg_20" d="m4402.516676,2882.575747c-3,-5 -1,-10 4,-10c6,0 11,5 11,10c0,6 -2,10 -4,10c-3,0 -8,-4 -11,-10z"/>
   <path stroke="null" id="svg_21" d="m4482.516676,2882.575747c-3,-5 -2,-10 4,-10c5,0 13,5 16,10c3,6 2,10 -4,10c-5,0 -13,-4 -16,-10z"/>
   <path stroke="null" id="svg_22" d="m4553.516676,2877.575747c4,-8 10,-12 15,-9c14,8 10,24 -6,24c-9,0 -12,-6 -9,-15z"/>
   <path stroke="null" id="svg_23" d="m4311.516676,2847.575747c-18,-14 -18,-14 5,-10c29,5 53,25 30,25c-8,0 -24,-7 -35,-15z"/>
   <path stroke="null" id="svg_24" d="m4221.516676,2807.575747c-18,-13 -18,-14 4,-8c12,3 25,9 28,14c8,14 -10,11 -32,-6z"/>
   <path stroke="null" id="svg_25" d="m4534.516676,2816.575747c-3,-3 -3,-12 0,-20c4,-11 9,-12 19,-3c8,6 11,15 8,20c-6,10 -18,12 -27,3z"/>
   <path stroke="null" id="svg_26" d="m4400.516676,2796.575747c-8,-22 5,-30 23,-12c14,14 14,16 -1,21c-9,4 -18,1 -22,-9z"/>
   <path stroke="null" id="svg_27" d="m4462.516676,2802.575747c3,-5 13,-10 21,-10c8,0 14,5 14,10c0,6 -9,10 -21,10c-11,0 -17,-4 -14,-10z"/>
   <path stroke="null" id="svg_28" d="m4333.516676,2776.575747c-4,-11 -1,-14 11,-12c9,2 18,9 21,16c6,18 -25,15 -32,-4z"/>
   <path stroke="null" id="svg_29" d="m4284.516676,2748.575747c-3,-8 -3,-17 0,-20c9,-9 34,15 27,25c-8,13 -21,11 -27,-5z"/>
   <path stroke="null" id="svg_30" d="m4546.516676,2755.575747c-11,-3 -14,-12 -11,-32c2,-16 -1,-32 -7,-35c-6,-4 -11,-14 -11,-23c0,-13 3,-13 15,-3c9,7 13,15 11,17c-2,3 2,22 9,44c8,21 13,38 12,38c-1,-1 -9,-3 -18,-6z"/>
   <path stroke="null" id="svg_31" d="m4217.516676,2727.575747c-11,-13 -10,-14 4,-9c9,3 16,10 16,15c0,13 -6,11 -20,-6z"/>
   <path stroke="null" id="svg_32" d="m4472.516676,2732.575747c-4,-6 -3,-16 3,-22c6,-6 12,-6 17,2c4,6 3,16 -3,22c-6,6 -12,6 -17,-2z"/>
   <path stroke="null" id="svg_33" d="m4357.516676,2702.575747c0,-5 5,-10 10,-10c6,0 10,5 10,10c0,6 -4,10 -10,10c-5,0 -10,-4 -10,-10z"/>
   <path stroke="null" id="svg_34" d="m4413.516676,2700.575747c3,-4 9,-8 15,-8c5,0 9,4 9,8c0,5 -7,9 -15,9c-8,0 -12,-4 -9,-9z"/>
   <path stroke="null" id="svg_35" d="m2330.516676,2636.575747c16,-8 25,-20 21,-26c-4,-6 -3,-8 4,-4c6,3 13,2 17,-4c3,-5 11,-10 16,-10c6,0 7,5 4,10c-3,6 1,10 9,10c9,0 16,4 16,10c0,10 -63,30 -95,30c-17,-1 -15,-3 8,-16z"/>
   <path stroke="null" id="svg_36" d="m4408.516676,2466.575747c0,-11 3,-14 6,-6c3,7 2,16 -1,19c-3,4 -6,-2 -5,-13z"/>
   <path stroke="null" id="svg_37" d="m2574.516676,1688.575747c-4,-10 -5,-21 -2,-24c9,-9 17,6 13,25c-3,17 -4,17 -11,-1z"/>
   <path stroke="null" id="svg_38" d="m3737.516676,1592.575747c0,-7 -7,-9 -16,-6c-11,4 -15,2 -11,-8c4,-10 1,-13 -8,-10c-19,8 -30,-33 -13,-54c12,-15 11,-16 -4,-3c-10,7 -25,10 -34,7c-14,-5 -14,-9 -3,-23c8,-10 9,-14 2,-10c-13,8 -59,-34 -79,-72c-11,-20 -10,-29 3,-55l16,-31l-22,19l-21,19l6,-33c7,-32 6,-32 -17,-20c-22,12 -23,12 -10,-4c9,-10 11,-20 5,-24c-5,-4 -9,-38 -9,-77c0,-38 -4,-73 -9,-77c-6,-4 -5,-13 3,-22c9,-11 10,-16 2,-16c-8,0 -7,-10 3,-34c13,-31 13,-34 -1,-29c-12,5 -14,3 -7,-8c4,-8 8,-24 9,-35c0,-12 8,-31 18,-42c14,-15 15,-21 5,-25c-10,-4 -10,-6 0,-6c6,-1 12,-6 12,-11c0,-6 -11,-8 -27,-4c-23,6 -25,4 -20,-12c6,-16 5,-17 -6,-4c-7,8 -23,24 -37,35c-20,16 -22,16 -11,2c23,-30 5,-30 -24,0c-22,22 -26,24 -20,8c19,-52 23,-75 14,-80c-5,-4 -9,-1 -9,4c0,6 -4,11 -10,11c-5,0 -7,-7 -4,-15c4,-8 1,-15 -4,-15c-6,0 -13,8 -15,18c-2,9 -5,4 -5,-13c0,-16 -2,-38 -4,-47c-4,-18 -21,-40 -18,-23c1,6 1,19 0,30c-1,15 -6,10 -20,-18c-9,-21 -30,-51 -46,-66c-35,-33 -59,-75 -69,-121c-7,-31 -6,-33 9,-21c20,17 20,10 1,-36c-17,-40 -20,-73 -6,-73c5,0 7,-18 5,-40c-2,-23 1,-40 7,-40c6,0 8,-4 5,-9c-8,-13 4,-42 15,-35c5,3 9,-2 9,-10c0,-20 14,-20 30,-1c18,21 24,11 10,-15c-10,-19 -9,-20 7,-12c29,15 67,29 76,28c5,0 14,10 22,23l13,24l6,-21c9,-28 18,-28 54,3c19,15 33,21 37,15c11,-17 25,-11 35,15c8,22 14,24 45,20c27,-3 35,-1 35,12c0,12 3,13 14,4c20,-17 89,-4 82,15c-4,11 5,14 38,14c25,0 46,3 48,8c2,4 16,17 32,30c24,19 26,22 10,23c-11,1 4,5 31,9c28,5 72,16 98,25c38,14 48,22 44,36c-4,15 2,20 29,25c19,3 37,11 41,18c12,18 14,95 4,132c-6,21 -6,34 0,34c14,0 11,36 -5,50c-8,6 -12,18 -9,26c3,8 0,14 -7,14c-7,0 -10,7 -6,16c7,19 -30,84 -47,84c-7,0 -4,7 6,14c23,18 14,59 -19,81c-13,8 -24,21 -24,27c0,6 9,3 20,-7c11,-10 20,-14 20,-9c-1,14 -26,44 -33,38c-3,-3 -11,-3 -17,1c-8,5 -8,11 1,21c9,11 6,22 -12,49c-13,19 -30,33 -36,30c-7,-2 -18,5 -24,17c-10,18 -9,20 7,14c18,-6 18,-5 2,8c-10,7 -18,16 -18,20c0,3 -16,28 -35,55c-19,26 -35,52 -35,56c0,4 -16,27 -35,51c-37,45 -59,90 -50,104c3,5 0,12 -6,16c-8,5 -8,9 1,14c9,5 9,9 1,14c-6,4 -11,2 -11,-4zm240,-427c0,-7 -3,-13 -6,-13c-12,0 -34,29 -34,46c0,16 1,16 20,-1c11,-10 20,-24 20,-32z"/>
   <path stroke="null" id="svg_39" d="m2376.516676,1445.575747c-13,-16 -12,-17 4,-4c16,13 21,21 13,21c-2,0 -10,-8 -17,-17z"/>
   <path stroke="null" id="svg_40" d="m4182.516676,782.575747c-3,-5 4,-30 16,-56c16,-35 23,-44 30,-33c13,20 11,29 -6,29c-10,0 -15,10 -15,29c0,31 -14,49 -25,31z"/>
   <path stroke="null" id="svg_41" d="m4297.516676,598.575747c0,-8 7,-16 15,-20c13,-4 14,-2 5,14c-13,23 -20,26 -20,6z"/>
   <path stroke="null" id="svg_42" d="m2522.516676,-208.424253c-11,-17 1,-21 15,-4c8,9 8,15 2,15c-6,0 -14,-5 -17,-11z"/>
   <path stroke="null" id="svg_43" d="m2658.516676,-274.424253c7,-12 15,-20 18,-17c3,2 -3,12 -13,22c-17,16 -18,16 -5,-5z"/>
   <path stroke="null" id="svg_44" d="m3748.516676,-1643.424253c0,-11 3,-14 6,-6c3,7 2,16 -1,19c-3,4 -6,-2 -5,-13z"/>
   <path stroke="null" id="svg_45" d="m4310.516676,-1825.424253c-17,-11 -20,-44 -4,-50c9,-3 11,0 7,7c-4,7 -2,19 5,27c14,16 9,26 -8,16z"/>
   <path stroke="null" id="svg_46" d="m2579.516676,-2306.424253c-37,-34 -41,-51 -12,-51c13,0 27,14 40,40c24,48 16,51 -28,11z"/>
   <path stroke="null" id="svg_47" d="m2381.516676,-2356.424253c-42,-26 -48,-38 -23,-44c14,-4 20,-11 16,-20c-3,-8 1,-23 9,-34c13,-17 14,-16 8,10c-5,20 0,36 20,61c14,19 26,37 26,40c0,12 -26,5 -56,-13z"/>
   <path stroke="null" id="svg_48" d="m2757.516676,-2394.424253c12,-16 24,-26 27,-25c3,2 9,-2 14,-10c5,-8 0,-26 -11,-46c-11,-18 -20,-40 -20,-48c0,-8 -4,-14 -10,-14c-5,0 -10,-9 -10,-20c0,-11 6,-20 14,-20c7,0 16,-9 19,-19c3,-14 1,-18 -9,-14c-8,3 -14,9 -14,15c0,5 -6,5 -16,0c-9,-5 -25,-7 -36,-4c-17,4 -18,6 -3,29c18,26 11,48 -6,23c-8,-11 -9,-9 -4,9c5,16 4,21 -4,17c-7,-5 -9,-1 -5,8c10,27 -40,19 -70,-10c-18,-18 -26,-22 -26,-12c0,8 9,23 21,34c19,17 59,84 59,99c0,4 -13,-3 -30,-15c-16,-12 -30,-27 -30,-33c0,-7 -18,-28 -40,-47c-36,-31 -41,-41 -44,-88c-4,-49 -2,-53 22,-59c14,-3 120,-3 236,0c254,7 280,13 216,50c-20,12 -30,26 -30,42c0,15 -5,23 -12,20c-7,-3 -21,8 -30,25c-13,23 -24,30 -49,30c-26,0 -30,2 -19,15c16,19 3,37 -21,30c-11,-4 -19,-2 -19,5c0,15 -50,60 -67,60c-11,0 -9,-7 7,-27zm55,-211c-8,-8 -25,20 -19,30c3,4 -2,8 -12,8c-13,0 -11,4 7,19l24,19l3,-35c2,-19 1,-38 -3,-41z"/>
   <path stroke="null" id="svg_49" d="m4094.516676,-2381.424253c-4,-11 1,-29 14,-47c23,-32 37,-33 21,-2c-6,10 -14,29 -19,42c-8,22 -10,22 -16,7z"/>
   <path stroke="null" id="svg_50" d="m2474.516676,-2407.424253c-14,-16 -31,-30 -38,-30c-7,0 -9,-8 -5,-22c3,-13 6,-29 6,-35c0,-23 18,-14 29,15c20,47 42,82 52,82c5,0 9,5 9,10c0,20 -29,9 -53,-20z"/>
   <path stroke="null" id="svg_51" d="m4067.516676,-2473.424253c-10,-11 -11,-20 -4,-32c15,-23 34,-27 34,-7c0,12 5,15 16,11c22,-8 13,14 -13,31c-17,12 -22,11 -33,-3z"/>
   <path stroke="null" id="svg_52" d="m2497.516676,-2482.424253c-6,-8 -10,-19 -8,-26c2,-6 9,0 16,15c13,29 10,33 -8,11z"/>
   <path stroke="null" id="svg_53" d="m3914.516676,-2489.424253c4,-22 4,-22 -10,-5c-18,22 -32,7 -24,-26c6,-24 -17,-59 -46,-70c-10,-4 -17,-13 -15,-20c4,-9 61,-13 231,-15c125,-1 227,1 227,6c0,4 -9,15 -20,25c-11,9 -20,24 -20,34c0,13 -3,14 -12,5c-7,-7 -18,-12 -25,-12c-11,0 -11,4 -1,19c7,11 16,17 20,15c4,-3 8,2 8,10c0,18 -20,32 -21,14c0,-7 -5,-2 -10,11c-5,13 -15,21 -23,18c-7,-3 -18,-1 -24,5c-7,7 -9,-5 -5,-41c3,-34 1,-51 -6,-51c-7,0 -14,6 -17,14c-5,13 -44,19 -44,6c0,-3 -11,-17 -23,-32c-25,-29 -91,-46 -116,-29c-16,11 -6,31 16,31c13,0 15,8 9,46c-7,56 -12,64 -36,64c-14,0 -17,-6 -13,-22z"/>
   <path stroke="null" id="svg_54" d="m4257.516676,-2470.424253c0,-13 35,-104 42,-112c7,-7 8,-3 5,10c-3,11 -11,39 -17,63c-6,23 -15,42 -20,42c-6,0 -10,-1 -10,-3z"/>
   <path stroke="null" id="svg_55" d="m2478.516676,-2543.424253c0,-11 3,-14 6,-6c3,7 2,16 -1,19c-3,4 -6,-2 -5,-13z"/>
  </g>
 </g>
</svg>