<svg width="147" height="35" xmlns="http://www.w3.org/2000/svg" preserveAspectRatio="xMidYMid meet" stroke="null">
 <g stroke="null">
  <title stroke="null">background</title>
  <rect x="-1" y="-1" width="149" height="37" id="canvas_background" fill="none" stroke="null"/>
 </g>
 <defs stroke="null">
  <linearGradient y2="1" x2="1" y1="0" x1="0" id="svg_58">
   <stop offset="0.40234" stop-color="#ff006a"/>
   <stop offset="1" stop-color="#00ff95"/>
  </linearGradient>
 </defs>
 <g stroke="null">
  <title stroke="null">Layer 1</title>
  <path transform="rotate(179.475 71.5893 27.9076)" stroke="url(#svg_58)" fill-opacity="0.3" fill="url(#svg_58)" stroke-width="0" opacity="undefined" d="m-4.35332,-4.28785l151.88523,0l0,64.39091l-151.88523,0l0,-64.39091z" id="svg_70"/>
  <g stroke="null" stroke-width="0" fill="#000000" id="svg_1" transform="rotate(-0.52906 15.0299 18.3746) translate(0 680) scale(0.1 -0.1)">
   <path stroke="null" d="m171.59719,6784.24505c0,-0.26778 -1.36541,-0.32133 -3.03425,-0.10711c-3.33768,0.37489 -13.12314,-0.85689 -16.46081,-2.08867c-1.13784,-0.42845 -2.57911,-0.80333 -3.11011,-0.80333c-0.53099,0 -2.9584,-0.64267 -5.30994,-1.446c-2.35154,-0.80333 -4.47553,-1.446 -4.70309,-1.446c-0.91028,-0.10711 -8.64762,-3.53467 -7.96491,-3.53467c0.45514,0 -0.37928,-0.42845 -1.82055,-0.964c-1.44127,-0.482 -2.9584,-1.39245 -3.41353,-1.928c-0.45514,-0.58911 -1.44127,-1.55311 -2.12397,-2.14223c-1.28956,-0.964 -2.04812,-1.07111 -8.19248,-0.91045c-6.67535,0.16067 -12.89558,-0.10711 -13.27485,-0.53556c-0.30342,-0.26778 0.22757,-1.17822 1.13784,-2.03511c0.91028,-0.964 1.2137,-1.71378 0.83442,-1.928c-0.45514,-0.16067 -0.22757,-1.07111 0.68271,-2.30289c2.73083,-3.80245 5.3858,-8.72956 4.93066,-9.21156c-0.30342,-0.32133 -0.15172,-0.53556 0.30342,-0.53556c1.13784,0 1.97227,1.17822 1.7447,2.67778c-0.15172,1.28534 -0.15172,1.28534 1.06199,-0.26778c1.59298,-1.98156 2.04812,-7.97978 0.53099,-6.90868c-1.2137,0.85689 -3.26182,0.42845 -3.26182,-0.69622c0,-0.69622 -0.22757,-0.69622 -1.8964,0.05356c-1.36541,0.64267 -3.79282,0.85689 -8.87519,0.91045c-6.44778,0.05356 -6.90292,0.10711 -5.15823,0.74978c1.7447,0.69622 1.7447,0.74978 0.37928,0.85689c-1.28956,0.05356 -1.2137,0.10711 0.37928,0.482l1.8964,0.42845l-1.8964,0.05356c-1.13784,0.05356 -2.4274,-0.26778 -3.03425,-0.58911c-0.60685,-0.37489 -0.45514,-0.16067 0.30342,0.53556c0.83442,0.64267 1.06199,1.17822 0.60685,1.17822c-0.45514,0 -1.06199,-0.21422 -1.28956,-0.53556c-0.22757,-0.26778 -0.83442,-0.53556 -1.2137,-0.53556c-0.37928,0 -0.15172,0.58911 0.53099,1.33889c1.06199,1.17822 1.06199,1.33889 0.07585,1.33889c-2.04812,0 -5.91679,3.15978 -5.46165,4.44512c0.37928,0.91045 -0.07585,1.33889 -1.82055,1.87445c-1.28956,0.42845 -2.65497,0.58911 -3.11011,0.37489c-0.37928,-0.16067 -1.66884,0.05356 -2.80668,0.482l-2.12397,0.80333l2.12397,0.05356l2.12397,0l-2.12397,1.28534c-1.44127,0.91045 -2.4274,1.12467 -3.03425,0.74978c-0.83442,-0.482 -4.02039,0.26778 -4.02039,0.964c0,0.10711 0.68271,0 1.51713,-0.32133c1.44127,-0.53556 1.51713,-0.53556 0.60685,0.482c-0.53099,0.64267 -1.2137,1.12467 -1.59298,1.12467c-0.30342,0 -0.37928,0.21422 -0.15172,0.53556c0.22757,0.32133 -0.07585,0.37489 -0.68271,0.21422c-1.36541,-0.37489 -3.11011,2.14223 -2.27569,3.10623c0.30342,0.37489 0.15172,0.42845 -0.37928,0.21422c-0.45514,-0.21422 -0.68271,-0.85689 -0.45514,-1.446c0.37928,-0.80333 0.22757,-0.964 -0.91028,-0.69622c-0.75856,0.16067 -0.22757,-0.42845 1.28956,-1.39245c1.44127,-0.964 2.04812,-1.55311 1.36541,-1.39245c-0.68271,0.10711 -1.44127,0 -1.66884,-0.37489c-0.15172,-0.37489 -0.37928,-0.10711 -0.37928,0.58911c-0.07585,0.69622 -0.37928,1.12467 -0.75856,0.964c-0.37928,-0.16067 -1.06199,0.42845 -1.59298,1.28534c-0.53099,0.91045 -1.2137,1.60667 -1.59298,1.60667c-0.37928,0 -0.68271,0.21422 -0.68271,0.53556c0,0.26778 0.53099,0.37489 1.13784,0.21422c0.60685,-0.21422 1.13784,-0.05356 1.13784,0.32133c0,0.32133 -0.30342,0.482 -0.68271,0.32133c-0.37928,-0.21422 -0.91028,0 -1.06199,0.32133c-0.30342,0.53556 -0.45514,0.53556 -0.45514,0c-0.07585,-0.37489 -0.37928,-0.53556 -0.83442,-0.37489c-1.06199,0.482 -0.91028,-0.05356 0.45514,-2.03511l1.28956,-1.71378l-1.66884,1.01756c-1.59298,1.01756 -1.59298,1.01756 -1.59298,0c0,-0.85689 -0.15172,-0.85689 -0.75856,-0.21422c-0.37928,0.482 -0.37928,1.01756 0.07585,1.446c1.13784,0.91045 0.07585,3.15978 -1.06199,2.35645c-0.68271,-0.482 -0.60685,-0.74978 0.15172,-1.07111c0.75856,-0.37489 0.83442,-0.53556 0,-0.85689c-0.60685,-0.26778 -1.59298,0.10711 -2.73083,1.12467c-0.98613,0.85689 -1.59298,1.17822 -1.36541,0.69622c0.68271,-1.33889 -0.91028,-1.76734 -1.8964,-0.482c-0.83442,1.12467 -2.27569,1.446 -2.27569,0.482c0,-0.26778 0.30342,-0.42845 0.68271,-0.26778c0.60685,0.26778 1.06199,-0.64267 1.7447,-3.69534c0.15172,-0.58911 0.75856,-1.446 1.36541,-1.87445c0.68271,-0.42845 0.83442,-0.64267 0.30342,-0.37489c-0.45514,0.21422 -1.44127,0.26778 -2.12397,0.05356c-0.83442,-0.21422 -1.2137,-0.05356 -1.2137,0.53556c0,0.58911 -0.68271,0.85689 -2.19984,0.85689c-1.2137,0 -2.57911,0.37489 -3.11011,0.85689c-0.60685,0.42845 -1.7447,1.07111 -2.57911,1.33889c-0.98613,0.37489 -0.68271,0.05356 0.68271,-0.80333c1.28956,-0.74978 1.97227,-1.33889 1.66884,-1.39245c-0.30342,0 -0.15172,-0.53556 0.37928,-1.17822c1.13784,-1.55311 1.44127,-2.67778 0.53099,-2.24934c-0.37928,0.16067 -0.68271,0 -0.68271,-0.26778c0,-0.32133 -0.37928,-0.58911 -0.83442,-0.58911c-0.45514,0 -0.60685,0.42845 -0.30342,1.01756c0.22757,0.58911 -0.22757,1.49956 -1.06199,2.24934c-0.91028,0.74978 -1.51713,0.964 -1.59298,0.58911c0,-0.37489 -0.37928,-0.53556 -0.91028,-0.32133c-0.53099,0.21422 -0.60685,0.16067 -0.30342,-0.26778c0.30342,-0.32133 0.83442,-0.482 1.2137,-0.32133c0.60685,0.26778 1.8964,-1.28534 1.59298,-2.03511c-0.07585,-0.26778 0.91028,-1.39245 2.19984,-2.51712c1.2137,-1.12467 2.27569,-2.24934 2.27569,-2.51712c0,-0.32133 0.83442,-1.17822 1.8964,-1.98156c0.98613,-0.74978 1.66884,-1.39245 1.51713,-1.39245c-0.07585,0 2.9584,-2.30289 6.90292,-5.08779c3.94452,-2.78489 7.50977,-5.08779 7.88906,-5.08779c0.45514,0 1.44127,-0.26778 2.27569,-0.64267c1.13784,-0.53556 1.7447,-0.482 2.9584,0.32133c1.59298,1.01756 1.59298,1.01756 1.59298,-1.71378c0,-2.41 -0.22757,-2.78489 -1.51713,-2.78489c-0.83442,0 -1.51713,-0.26778 -1.51713,-0.58911c0,-0.32133 0.53099,-0.42845 1.2137,-0.26778c0.60685,0.16067 0.91028,0.10711 0.68271,-0.21422c-0.45514,-0.482 0.60685,-0.74978 2.19984,-0.58911c0.30342,0.05356 1.06199,-0.32133 1.66884,-0.85689c0.91028,-0.85689 0.98613,-0.91045 1.06199,-0.05356c0,0.482 -0.37928,1.07111 -0.75856,1.23178c-0.60685,0.26778 -0.53099,0.58911 0.07585,1.12467c1.13784,1.01756 2.50326,0.964 1.8964,-0.10711c-0.22757,-0.42845 -0.15172,-0.64267 0.30342,-0.482c0.45514,0.16067 0.75856,-0.05356 0.75856,-0.482c0,-0.482 0.37928,-0.85689 0.75856,-0.85689c0.45514,0 0.75856,-0.37489 0.75856,-0.80333c0,-0.42845 0.60685,-0.80333 1.36541,-0.80333c0.75856,0 1.7447,-0.26778 2.27569,-0.64267c1.2137,-0.85689 1.2137,0.21422 0,1.17822c-0.83442,0.64267 -0.75856,0.64267 0.37928,0.05356c0.68271,-0.37489 1.28956,-1.07111 1.28956,-1.446c0,-0.42845 0.53099,-0.74978 1.13784,-0.74978c0.60685,0 1.13784,-0.21422 1.13784,-0.53556c0,-0.26778 0.53099,-0.53556 1.13784,-0.53556c0.60685,0 1.13784,-0.21422 1.13784,-0.482c0,-0.64267 4.77895,-0.16067 5.3858,0.58911c0.68271,0.80333 3.71696,-0.91045 3.71696,-2.08867c0,-0.964 1.2137,-0.91045 1.82055,0.10711c0.22757,0.42845 1.06199,0.80333 1.82055,0.80333c2.9584,0 6.14436,3.80245 3.79282,4.44512c-0.53099,0.16067 0.75856,0.16067 2.80668,0.05356l3.79282,-0.26778l-2.4274,0.80333c-1.36541,0.42845 -3.6411,1.17822 -5.15823,1.71378c-2.57911,0.85689 -2.65497,0.85689 -4.17209,-0.37489c-0.83442,-0.69622 -1.28956,-1.55311 -1.13784,-1.928c0.22757,-0.482 -0.37928,-0.58911 -2.12397,-0.32133c-1.36541,0.16067 -2.50326,0.37489 -2.65497,0.42845c-0.30342,0.16067 2.35154,3.7489 3.18596,4.12379c1.36541,0.64267 5.15823,0.32133 8.19248,-0.74978c1.59298,-0.53556 3.26182,-0.964 3.79282,-0.964c0.53099,0 2.35154,-0.85689 4.02039,-1.928c1.7447,-1.12467 2.4274,-1.76734 1.59298,-1.55311c-1.44127,0.32133 -1.44127,0.26778 -0.07585,-0.80333c1.36541,-1.07111 1.36541,-1.07111 -1.06199,-0.482c-3.41353,0.85689 -3.71696,0.26778 -0.45514,-0.80333c2.73083,-0.91045 3.26182,-1.60667 1.82055,-2.19578c-0.45514,-0.21422 -0.60685,-0.69622 -0.37928,-1.07111c0.45514,-0.80333 -1.51713,-1.55311 -3.6411,-1.39245c-1.13784,0.10711 -1.28956,-0.05356 -0.91028,-0.85689c1.66884,-2.94556 1.66884,-2.94556 -5.46165,-2.78489c-8.04077,0.21422 -9.63375,-0.10711 -13.12314,-2.78489c-3.26182,-2.46356 -4.8548,-2.57067 -8.11663,-0.58911c-1.97227,1.17822 -2.4274,1.87445 -2.57911,3.96312c-0.15172,1.446 -0.53099,2.57067 -0.98613,2.57067c-0.91028,0 -5.68922,3.80245 -5.68922,4.49867c0,0.21422 0.68271,0.32133 1.59298,0.16067c1.51713,-0.26778 1.51713,-0.26778 0.15172,0.85689c-0.75856,0.64267 -1.7447,1.446 -2.12397,1.76734c-0.45514,0.32133 -2.80668,1.28534 -5.23409,2.14223c-3.6411,1.23178 -4.17209,1.60667 -3.18596,2.08867c0.91028,0.482 0.98613,0.74978 0.30342,1.23178c-1.13784,0.80333 -2.35154,0.85689 -1.66884,0.05356c0.30342,-0.37489 0.07585,-0.53556 -0.53099,-0.37489c-0.53099,0.10711 -1.2137,0.80333 -1.51713,1.55311c-0.30342,0.69622 -0.53099,1.12467 -0.60685,0.85689c-0.15172,-0.64267 -5.30994,2.892 -5.76508,3.90956c-0.22757,0.482 -1.13784,1.17822 -2.12397,1.55311c-1.82055,0.69622 -5.84094,4.39156 -5.84094,5.40912c0,0.37489 -2.27569,2.46356 -5.00652,4.7129c-2.9584,2.35645 -4.77895,4.28445 -4.55138,4.76645c0.22757,0.42845 -0.37928,1.39245 -1.44127,2.19578c-1.8964,1.39245 -2.73083,3.05267 -0.98613,1.82089c1.82055,-1.28534 2.35154,-0.58911 0.53099,0.80333c-0.98613,0.74978 -1.28956,1.23178 -0.68271,1.01756c0.60685,-0.21422 0.45514,0 -0.30342,0.42845c-0.83442,0.482 -1.2137,0.85689 -0.91028,0.85689c0.37928,0 0.07585,0.64267 -0.68271,1.39245c-1.2137,1.33889 -1.2137,1.33889 0.53099,0.69622c1.66884,-0.64267 1.66884,-0.58911 0.60685,0.37489c-0.60685,0.53556 -1.82055,1.446 -2.65497,1.98156c-1.28956,0.85689 -1.28956,0.964 -0.15172,0.69622c1.36541,-0.32133 1.82055,0.482 0.53099,1.01756c-0.37928,0.16067 -0.75856,0.58911 -0.75856,0.91045c0,0.32133 0.68271,0.16067 1.51713,-0.37489c0.83442,-0.53556 1.51713,-0.74978 1.51713,-0.53556c0,0.26778 1.28956,-0.37489 2.80668,-1.39245c2.50326,-1.66022 2.65497,-1.66022 1.06199,-0.26778c-1.13784,1.07111 -1.36541,1.71378 -0.75856,1.928c0.60685,0.32133 0.60685,0.74978 -0.07585,1.66022c-0.83442,1.12467 -0.68271,1.12467 1.44127,-0.32133c1.8964,-1.23178 2.35154,-1.39245 1.8964,-0.53556c-0.53099,1.01756 -0.53099,1.01756 0.98613,0.10711c1.51713,-0.91045 1.59298,-0.91045 1.97227,0.21422c0.37928,1.07111 0.60685,1.12467 1.7447,0.42845c0.98613,-0.58911 1.36541,-0.58911 1.59298,-0.05356c0.22757,0.32133 0.75856,0.64267 1.2137,0.64267c0.37928,0 0.53099,-0.16067 0.30342,-0.37489c-0.30342,-0.16067 0.07585,-0.64267 0.83442,-1.01756c1.06199,-0.53556 1.51713,-0.53556 2.57911,0.16067c1.13784,0.69622 1.36541,0.69622 1.66884,0.10711c0.91028,-2.08867 1.2137,-2.14223 0.83442,-0.21422c-0.37928,1.928 -0.30342,2.03511 0.53099,0.964c0.53099,-0.64267 1.2137,-1.12467 1.51713,-1.07111c0.30342,0.05356 1.06199,-0.37489 1.7447,-0.964c1.06199,-0.91045 1.2137,-0.91045 0.83442,-0.10711c-0.68271,1.55311 0.98613,1.01756 2.57911,-0.80333c1.44127,-1.71378 1.51713,-1.71378 1.59298,-0.42845c0,1.23178 0.07585,1.23178 0.60685,0.26778c0.60685,-1.01756 0.68271,-0.964 0.98613,0.26778l0.37928,1.33889l0.83442,-1.33889l0.83442,-1.33889l0.07585,1.33889c0,1.07111 0.15172,1.17822 0.83442,0.53556c0.60685,-0.58911 0.91028,-0.64267 1.2137,-0.10711c0.45514,0.80333 2.50326,0.85689 2.50326,0.05356c0,-0.26778 -0.30342,-0.37489 -0.75856,-0.21422c-0.91028,0.42845 -0.98613,-0.26778 -0.07585,-1.23178c0.45514,-0.53556 0.75856,-0.42845 1.06199,0.482c0.53099,1.39245 -0.60685,2.62423 -2.4274,2.62423c-0.68271,0 -1.66884,0.26778 -2.12397,0.58911c-0.45514,0.32133 -2.19984,0.80333 -3.79282,1.01756c-1.59298,0.21422 -6.82707,1.12467 -11.68187,2.03511c-13.12314,2.41 -21.6949,3.15978 -26.62556,2.30289c-5.53751,-0.85689 -8.79933,-2.57067 -9.40618,-4.76645c-0.83442,-3.05267 1.06199,-5.78401 7.96491,-11.35379c9.63375,-7.76556 12.21287,-9.96134 17.44695,-14.99557c5.99264,-5.73045 12.89558,-10.92534 17.82623,-13.49601c7.35806,-3.85601 8.04077,-4.39156 10.77159,-8.46178c0.68271,-1.01756 2.65497,-2.99912 4.39966,-4.33801c1.66884,-1.33889 4.09624,-3.32045 5.23409,-4.39156c1.2137,-1.12467 2.80668,-1.98156 3.6411,-1.98156c0.91028,0 1.28956,-0.21422 0.98613,-0.58911c-0.91028,-1.07111 8.87519,-0.37489 11.30259,0.74978c1.2137,0.58911 3.41353,1.12467 4.93066,1.23178l2.80668,0.21422l-2.19984,-0.74978c-1.7447,-0.58911 -1.8964,-0.74978 -0.83442,-1.07111c0.68271,-0.16067 1.66884,-0.16067 2.04812,0.05356c0.53099,0.21422 0.60685,0.05356 0.22757,-0.37489c-0.45514,-0.53556 -0.30342,-0.64267 0.53099,-0.37489c0.68271,0.16067 1.82055,-0.05356 2.65497,-0.42845c2.12397,-1.17822 2.88254,-0.91045 0.91028,0.32133c-0.98613,0.58911 -1.28956,0.91045 -0.68271,0.69622c0.60685,-0.21422 2.19984,-0.37489 3.56525,-0.32133c1.44127,0.10711 2.50326,-0.10711 2.50326,-0.482c0,-0.32133 -0.53099,-0.482 -1.13784,-0.26778c-0.68271,0.16067 -1.13784,0 -1.13784,-0.482c0,-0.69622 1.8964,-1.07111 3.94452,-0.85689c0.30342,0 0.37928,-0.32133 0.15172,-0.74978c-0.53099,-0.964 -1.06199,-0.964 -2.88254,0c-1.82055,0.964 -2.88254,1.01756 -2.65497,0.16067c0.22757,-1.12467 -0.91028,-2.57067 -2.04812,-2.57067c-0.68271,0 -1.06199,-0.64267 -1.06199,-1.82089c0,-1.01756 -0.37928,-2.03511 -0.75856,-2.19578c-0.45514,-0.21422 -0.60685,-0.58911 -0.37928,-0.85689c0.22757,-0.26778 -0.22757,-0.964 -0.98613,-1.55311c-1.7447,-1.33889 -3.26182,-5.94468 -2.88254,-8.83667c0.15172,-1.17822 -0.07585,-2.46356 -0.60685,-2.892c-0.60685,-0.64267 -0.60685,-0.69622 0.15172,-0.37489c0.60685,0.26778 0.91028,0 0.91028,-0.85689c0,-0.91045 -0.22757,-1.01756 -0.68271,-0.482c-1.06199,1.12467 -1.51713,-2.19578 -1.28956,-9.74712c0.15172,-6.69446 -0.37928,-8.94378 -1.7447,-7.44423c-0.45514,0.58911 -0.83442,0.53556 -1.8964,-0.16067c-1.82055,-1.33889 -2.9584,-2.94556 -1.97227,-2.94556c0.45514,0 1.2137,0.58911 1.66884,1.33889c0.91028,1.49956 2.12397,1.76734 2.12397,0.53556c0,-0.42845 -0.30342,-0.80333 -0.75856,-0.80333c-0.37928,0 -1.28956,-1.17822 -2.04812,-2.67778c-0.75856,-1.446 -1.59298,-2.67778 -1.8964,-2.67778c-0.83442,0 -0.75856,0.964 0.15172,1.33889c0.45514,0.16067 0.75856,0.74978 0.75856,1.23178c0,0.58911 -0.53099,0.26778 -1.51713,-0.85689c-0.83442,-0.964 -1.44127,-1.928 -1.36541,-2.14223c0.22757,-0.69622 -0.98613,-3.85601 -1.51713,-3.85601c-0.30342,0 -1.36541,-1.23178 -2.35154,-2.67778c-2.12397,-3.15978 -3.11011,-3.15978 -1.28956,0c0.68271,1.17822 1.06199,2.14223 0.83442,2.14223c-0.68271,0 -4.17209,-4.65934 -4.17209,-5.56979c0,-0.53556 -0.45514,-0.85689 -1.28956,-0.74978c-1.66884,0.21422 -4.93066,-3.69534 -4.55138,-5.35556c0.22757,-0.64267 0,-1.33889 -0.30342,-1.49956c-0.98613,-0.42845 -0.83442,-2.35645 0.15172,-2.35645c0.60685,0 0.60685,-0.26778 -0.07585,-0.80333c-0.68271,-0.53556 -0.68271,-0.80333 -0.07585,-0.80333c0.45514,0 0.83442,-0.32133 0.83442,-0.74978c0,-0.42845 0.37928,-0.85689 0.83442,-0.964c0.60685,-0.16067 0.68271,-1.12467 0.30342,-3.05267c-0.37928,-1.928 -0.75856,-2.62423 -1.2137,-2.14223c-0.45514,0.53556 -0.68271,0.58911 -0.68271,0.10711c0,-0.37489 -0.37928,-0.69622 -0.75856,-0.69622c-0.53099,0 -0.53099,0.42845 0.07585,1.17822c0.68271,0.91045 0.68271,1.23178 0,1.39245c-0.68271,0.16067 -0.68271,0.37489 0,0.964c1.82055,1.55311 0.07585,1.23178 -2.04812,-0.42845c-1.44127,-1.07111 -1.7447,-1.55311 -0.83442,-1.33889c0.68271,0.21422 1.28956,0.16067 1.28956,-0.10711c0,-0.26778 -0.68271,-0.58911 -1.51713,-0.74978c-0.83442,-0.16067 -1.51713,-0.53556 -1.51713,-0.91045c0,-0.32133 0.37928,-0.42845 0.98613,-0.21422c0.45514,0.21422 0,-0.26778 -1.13784,-1.12467c-1.2137,-0.80333 -2.19984,-1.98156 -2.27569,-2.62423c-0.22757,-2.73134 -0.53099,-3.90956 -1.06199,-5.08779c-0.45514,-1.12467 -0.37928,-1.23178 1.06199,-1.01756c0.91028,0.21422 1.51713,0.10711 1.2137,-0.16067c-0.22757,-0.26778 -0.83442,-0.482 -1.44127,-0.482c-0.53099,0 -1.13784,-0.32133 -1.36541,-0.74978c-0.60685,-1.12467 -0.07585,-2.73134 0.91028,-2.57067c0.53099,0.05356 0.45514,-0.32133 -0.22757,-1.07111c-0.91028,-1.01756 -1.66884,-3.69534 -1.28956,-4.7129c0.22757,-0.53556 0.98613,-8.35467 1.06199,-10.06845c0,-1.28534 0.30342,-1.66022 1.06199,-1.446c0.83442,0.21422 1.06199,-0.21422 0.98613,-1.76734c-0.07585,-1.07111 -0.07585,-2.08867 0,-2.24934c0.37928,-0.58911 0.91028,-3.64178 1.13784,-7.23c0.15172,-2.03511 0.83442,-4.82001 1.51713,-6.1589c1.66884,-3.32045 9.40618,-13.92446 11.07502,-15.31691c0.83442,-0.58911 1.44127,-1.71378 1.44127,-2.51712c0,-0.80333 0.37928,-1.446 0.75856,-1.446c1.2137,0 2.50326,-2.51712 1.8964,-3.58823c-0.53099,-0.85689 -0.68271,-0.80333 -1.06199,0.37489c-0.53099,1.28534 -0.53099,1.28534 -2.27569,-0.74978c-0.98613,-1.12467 -1.8964,-2.99912 -1.97227,-4.17734c-0.22757,-3.21334 5.08237,-17.51269 9.10276,-24.52847c1.97227,-3.37401 3.86867,-7.01578 4.32381,-8.03334c0.37928,-1.01756 0.98613,-2.35645 1.36541,-2.94556c0.37928,-0.58911 0.83442,-1.66022 0.98613,-2.41c1.2137,-4.12379 2.80668,-7.712 3.56525,-8.03334c0.53099,-0.26778 0.75856,-0.85689 0.45514,-1.33889c-1.13784,-2.08867 3.86867,-5.51623 6.82707,-4.7129c1.28956,0.32133 1.44127,1.60667 0.22757,1.87445c-0.53099,0.10711 -0.53099,0.58911 0.07585,1.60667c0.91028,1.33889 0.68271,3.48112 -1.2137,12.47846c-0.15172,0.91045 -0.45514,2.24934 -0.53099,3.10623c-0.15172,0.80333 -0.60685,1.71378 -1.06199,2.03511c-0.53099,0.37489 -0.68271,1.82089 -0.45514,3.64178c0.30342,2.46356 0.15172,3.26689 -0.91028,4.01667c-1.06199,0.74978 -1.28956,1.49956 -0.91028,3.80245c0.30342,2.14223 0.07585,3.32045 -0.91028,4.60579c-1.7447,2.24934 -1.2137,4.2309 1.06199,4.2309c0.98613,0 1.97227,0.37489 2.19984,0.91045c0.45514,0.74978 0.91028,0.58911 3.18596,-0.964c1.51713,-1.01756 3.18596,-2.46356 3.79282,-3.32045c0.60685,-0.80333 1.51713,-1.446 2.12397,-1.446c0.53099,0 1.59298,-0.482 2.35154,-1.07111c0.75856,-0.58911 1.66884,-0.91045 1.97227,-0.74978c0.37928,0.16067 0.68271,-0.10711 0.68271,-0.53556c0,-0.42845 0.53099,-1.01756 1.28956,-1.28534c1.2137,-0.482 2.65497,-5.1949 2.57911,-8.194c-0.07585,-0.74978 0.45514,-2.46356 1.13784,-3.7489c0.98613,-1.82089 1.2137,-4.12379 1.13784,-9.96134c-0.07585,-4.92712 0.15172,-7.712 0.68271,-7.92623c0.45514,-0.21422 2.04812,0.26778 3.48939,1.07111c1.44127,0.80333 3.6411,1.60667 4.8548,1.87445c1.8964,0.37489 2.35154,0.26778 3.48939,-0.964c0.68271,-0.80333 1.7447,-1.66022 2.35154,-1.87445c0.53099,-0.21422 0.98613,-0.91045 0.98613,-1.49956c0,-0.53556 0.30342,-1.446 0.68271,-1.98156c2.57911,-3.64178 5.00652,-11.13956 4.32381,-13.65668c-0.30342,-1.07111 -1.36541,-2.67778 -2.4274,-3.53467c-1.59298,-1.39245 -4.17209,-4.92712 -4.09624,-5.6769c0.07585,-0.64267 -1.2137,-1.66022 -3.26182,-2.57067c-1.59298,-0.74978 -1.97227,-1.23178 -1.59298,-2.24934c0.22757,-0.69622 0,-2.94556 -0.45514,-4.98068c-0.83442,-3.10623 -0.75856,-4.17734 0.30342,-7.12289c1.44127,-4.12379 1.44127,-4.2309 0.45514,-4.2309c-0.37928,0 -0.75856,0.32133 -0.75856,0.74978c0,1.01756 -2.04812,2.46356 -3.48939,2.46356c-1.66884,0 -1.28956,-2.57067 0.75856,-5.62334c1.44127,-2.08867 1.97227,-2.46356 2.35154,-1.76734c0.75856,1.39245 1.82055,1.17822 2.73083,-0.42845c0.53099,-1.12467 0.45514,-1.66022 -0.45514,-2.35645c-0.60685,-0.482 -1.13784,-1.76734 -1.13784,-2.892c0,-1.23178 -0.37928,-2.08867 -1.13784,-2.24934c-0.60685,-0.21422 -1.13784,-0.91045 -1.13784,-1.66022c0,-1.01756 0.30342,-1.28534 1.2137,-1.01756c0.68271,0.16067 2.50326,0.32133 4.02039,0.32133c2.65497,0 2.88254,0.10711 2.57911,1.23178c-0.45514,1.55311 1.2137,2.57067 3.41353,2.14223c2.12397,-0.37489 2.12397,-1.446 0.07585,-2.46356c-1.36541,-0.69622 -0.30342,-0.80333 10.46817,-1.12467c6.5995,-0.16067 16.30911,-0.482 21.54319,-0.64267l9.55789,-0.32133l0.45514,1.28534c0.75856,1.98156 0.60685,2.94556 -0.68271,3.90956c-0.83442,0.53556 -1.13784,1.446 -0.83442,2.57067c0.15172,0.91045 0.07585,2.35645 -0.30342,3.15978c-0.45514,1.12467 -0.15172,2.08867 1.28956,3.90956c1.06199,1.33889 1.82055,2.94556 1.59298,3.58823c-0.22757,1.07111 -0.37928,1.01756 -0.91028,-0.482c-0.30342,-0.964 -0.83442,-1.76734 -1.13784,-1.76734c-1.28956,0 -1.44127,2.67778 -0.60685,7.87267c0.75856,4.60579 0.68271,5.73045 -0.22757,6.90868c-0.60685,0.85689 -1.06199,2.892 -0.98613,4.98068c0,2.94556 -0.15172,3.26689 -0.75856,2.08867c-0.37928,-0.85689 -0.98613,-1.49956 -1.36541,-1.49956c-0.30342,0 -0.60685,-0.42845 -0.60685,-0.91045c-0.07585,-1.07111 -2.19984,-3.96312 -2.27569,-3.10623c-0.83442,4.76645 -0.68271,8.78312 0.37928,10.55045c0.60685,1.12467 1.13784,2.67778 1.13784,3.48112c0,1.49956 3.33768,4.44512 5.00652,4.44512c0.53099,0 1.2137,0.80333 1.44127,1.71378c0.30342,0.964 0.91028,2.03511 1.28956,2.41c1.82055,1.60667 3.6411,10.76467 3.71696,18.63736c0.07585,15.47757 1.06199,26.93847 2.35154,27.95603c0.68271,0.53556 1.66884,2.51712 2.19984,4.44512c0.53099,1.928 1.28956,3.7489 1.66884,4.01667c0.45514,0.32133 0.60685,0.10711 0.30342,-0.64267c-0.22757,-0.85689 -0.07585,-1.23178 0.68271,-1.23178c0.75856,0 1.06199,-0.482 0.91028,-1.446c-0.15172,-0.91045 0.15172,-1.446 0.60685,-1.39245c1.8964,0.26778 2.12397,-5.08779 1.36541,-28.00958c-0.30342,-8.24756 -0.15172,-9.80067 0.83442,-10.38979c0.60685,-0.37489 1.2137,-1.446 1.2137,-2.35645c0.07585,-0.91045 0.22757,-1.23178 0.45514,-0.74978c0.53099,1.446 1.7447,1.12467 2.73083,-0.64267c0.53099,-1.01756 1.36541,-1.60667 2.27569,-1.60667c0.98613,0 1.28956,0.26778 0.98613,0.80333c-0.22757,0.482 0,0.80333 0.53099,0.80333c1.28956,0 4.55138,4.07023 3.94452,4.82001c-0.22757,0.26778 -0.22757,0.85689 0.15172,1.23178c0.30342,0.32133 0.68271,1.07111 0.75856,1.55311c0.15172,0.482 0.75856,1.928 1.36541,3.21334c0.68271,1.28534 1.36541,3.10623 1.59298,4.07023c0.15172,1.01756 0.98613,2.67778 1.82055,3.7489l1.51713,1.98156l-0.45514,-2.94556c-0.22757,-1.60667 -0.75856,-3.7489 -1.2137,-4.7129c-0.83442,-2.03511 -0.98613,-7.28356 -0.30342,-17.51269c0.37928,-5.99823 0.68271,-7.55134 1.59298,-7.65845c0.68271,-0.10711 1.13784,-0.80333 1.13784,-1.71378c0,-1.76734 1.44127,-4.28445 2.4274,-4.28445c0.37928,0 0.45514,0.26778 0.22757,0.53556c-0.60685,0.69622 -0.22757,0.69622 2.35154,0c2.27569,-0.64267 3.33768,0.05356 3.86867,2.41c0.15172,0.58911 0.60685,1.28534 0.98613,1.55311c0.98613,0.69622 6.67535,-0.69622 8.19248,-2.03511c0.68271,-0.64267 2.50326,-1.76734 4.02039,-2.57067l2.80668,-1.446l-0.45514,-3.53467c-0.30342,-3.26689 -0.22757,-3.69534 2.04812,-6.26601c2.65497,-2.99912 2.80668,-4.44512 0.98613,-9.5329c-0.53099,-1.33889 -1.06199,-3.05267 -1.28956,-3.90956c-0.68271,-2.35645 -2.9584,-3.58823 -6.75121,-3.58823c-4.02039,0 -9.93718,1.76734 -11.4543,3.42756c-0.68271,0.74978 -2.65497,1.49956 -4.93066,1.928c-2.57911,0.482 -3.71696,0.964 -3.48939,1.446c0.22757,0.37489 0.07585,0.69622 -0.30342,0.69622c-0.45514,0 -0.75856,0.64267 -0.83442,1.49956c-0.07585,1.17822 -0.22757,1.07111 -0.83442,-0.69622c-1.44127,-4.17734 -0.37928,-7.81911 3.94452,-13.44246c2.19984,-2.892 4.70309,-6.80157 5.68922,-8.72956l1.66884,-3.53467l8.26833,0.16067c4.55138,0.10711 10.99916,0.37489 14.33684,0.69622c3.33768,0.26778 7.73734,0.64267 9.70961,0.80333c4.32381,0.32133 7.35806,1.07111 7.35806,1.76734c0,0.32133 1.59298,1.12467 3.6411,1.76734c3.94452,1.446 7.20635,4.76645 5.53751,5.94468c-0.45514,0.32133 -0.83442,0.37489 -0.83442,0.10711c0,-0.91045 -6.5995,-0.85689 -7.66149,0.05356c-0.60685,0.53556 -0.68271,0.964 -0.22757,1.17822c0.37928,0.21422 1.28956,1.01756 2.04812,1.87445c1.06199,1.17822 1.2137,2.08867 0.83442,5.08779c-0.30342,1.98156 -0.98613,4.49867 -1.51713,5.6769c-0.60685,1.12467 -1.06199,2.892 -1.06199,3.90956c0,1.60667 -0.75856,2.46356 -5.08237,5.62334c-4.47553,3.21334 -5.46165,3.64178 -7.43392,3.48112c-2.9584,-0.32133 -4.8548,1.33889 -4.93066,4.28445c0,2.73134 0.60685,3.90956 1.97227,3.90956c0.68271,0 1.06199,0.58911 1.06199,1.66022c0,1.446 0.22757,1.60667 1.7447,1.28534c2.73083,-0.64267 3.18596,-1.23178 1.7447,-2.35645c-0.91028,-0.69622 -1.2137,-1.49956 -0.91028,-2.35645c0.60685,-1.76734 3.18596,-3.96312 4.02039,-3.42756c1.06199,0.74978 0.68271,8.72956 -0.45514,9.69356c-0.60685,0.53556 -0.83442,1.446 -0.60685,2.46356c0.30342,0.85689 0.15172,1.71378 -0.22757,1.87445c-0.45514,0.21422 -0.53099,0.91045 -0.30342,1.55311c0.22757,0.74978 0,1.55311 -0.68271,1.98156c-0.53099,0.42845 -1.44127,1.28534 -1.97227,1.98156c-0.75856,0.964 -0.68271,1.17822 0.22757,1.17822c0.68271,0 1.51713,0.482 1.97227,1.12467c0.75856,0.91045 0.60685,1.12467 -0.68271,1.39245c-1.2137,0.21422 -1.59298,0.69622 -1.51713,2.24934c0,1.07111 -0.68271,4.2309 -1.51713,7.01578c-0.83442,2.78489 -1.82055,7.97978 -2.04812,11.51445c-0.30342,3.53467 -0.75856,6.69446 -1.06199,6.96222c-0.30342,0.32133 -0.75856,1.28534 -1.06199,2.14223c-0.37928,1.17822 -0.30342,1.39245 0.30342,0.80333c0.53099,-0.58911 0.68271,0.16067 0.37928,2.62423c-0.15172,1.87445 -0.68271,3.64178 -1.2137,3.85601c-0.53099,0.21422 -0.68271,0.74978 -0.45514,1.28534c0.30342,0.482 0.22757,0.74978 -0.15172,0.58911c-0.83442,-0.37489 -2.73083,4.76645 -2.4274,6.748c0.07585,0.80333 -0.37928,2.03511 -0.98613,2.67778c-0.68271,0.64267 -1.2137,0.964 -1.2137,0.69622c0,-0.26778 -0.53099,0 -1.13784,0.58911c-0.60685,0.53556 -1.13784,1.55311 -1.13784,2.24934c0,0.64267 -0.37928,1.17822 -0.83442,1.17822c-0.53099,0 -0.60685,0.37489 -0.30342,0.964c0.91028,1.39245 0.98613,4.55223 0.22757,5.62334c-0.75856,1.07111 -2.12397,1.23178 -2.12397,0.21422c0,-0.37489 -0.45514,-1.17822 -1.06199,-1.71378c-1.06199,-1.01756 -1.13784,-1.01756 -2.65497,0.26778c-1.97227,1.66022 -2.04812,2.67778 -0.15172,2.67778c1.59298,0 2.35154,1.01756 2.35154,3.21334c0,0.91045 0.68271,2.03511 1.59298,2.62423c1.36541,0.85689 1.51713,1.39245 1.06199,3.05267c-1.13784,4.33801 -1.2137,6.37312 -0.30342,7.60489c0.68271,0.85689 0.75856,1.33889 0.22757,1.60667c-1.51713,0.69622 -2.88254,3.05267 -2.73083,4.60579c0.22757,1.55311 -2.19984,5.73045 -4.24796,7.39067c-0.53099,0.482 -0.83442,1.12467 -0.60685,1.446c0.30342,0.32133 0,1.12467 -0.68271,1.87445c-0.68271,0.69622 -1.13784,1.66022 -0.98613,2.03511c0.22757,0.91045 -3.94452,6.85511 -4.8548,6.85511c-0.30342,0 -0.60685,-0.37489 -0.60685,-0.80333c0,-0.42845 -0.30342,-0.80333 -0.60685,-0.80333c-0.83442,0 -3.33768,3.15978 -2.88254,3.69534c0.22757,0.21422 -0.45514,0.69622 -1.44127,1.01756c-1.82055,0.58911 -1.8964,0.53556 -1.44127,-0.85689c0.30342,-0.80333 0.83442,-1.76734 1.28956,-2.14223c0.60685,-0.53556 0.53099,-0.85689 -0.07585,-1.12467c-0.68271,-0.32133 -0.53099,-0.74978 0.60685,-1.76734c1.2137,-1.12467 1.36541,-1.66022 0.68271,-2.94556c-0.53099,-1.12467 -0.53099,-2.67778 0,-5.03423c0.98613,-4.17734 1.06199,-11.78223 0.15172,-13.44246c-3.6411,-6.69446 -4.17209,-11.78223 -1.66884,-15.37046c2.19984,-2.99912 0.83442,-2.41 -1.82055,0.80333c-1.97227,2.41 -2.04812,2.67778 -1.28956,6.05179c0.45514,1.928 1.13784,4.49867 1.59298,5.6769c1.8964,4.60579 1.44127,16.44157 -0.68271,18.20891c-0.37928,0.32133 -0.53099,0.74978 -0.37928,0.91045c0.75856,0.482 -1.97227,11.88934 -2.9584,12.63912c-0.75856,0.53556 -0.91028,-0.482 -0.75856,-5.1949c0.15172,-6.1589 -0.60685,-8.08689 -3.33768,-8.08689c-1.13784,-0.05356 -1.13784,-0.10711 0.15172,-0.80333c1.44127,-0.80333 1.44127,-0.80333 -0.15172,-0.80333c-0.91028,0 -1.66884,-0.21422 -1.66884,-0.53556c0,-0.26778 0.45514,-0.53556 1.06199,-0.53556c1.82055,0 2.04812,-1.49956 0.30342,-1.71378c-1.8964,-0.21422 -2.80668,-1.49956 -1.06199,-1.49956c1.7447,0 1.51713,-0.80333 -0.45514,-1.49956l-1.7447,-0.58911l1.66884,-0.32133c1.7447,-0.37489 1.59298,-1.87445 -0.15172,-1.87445c-0.60685,0 -0.91028,-0.53556 -0.75856,-1.33889c0.07585,-0.85689 -0.22757,-1.33889 -0.91028,-1.33889c-0.60685,0 -0.91028,-0.21422 -0.68271,-0.482c0.75856,-0.85689 -0.37928,-2.19578 -1.8964,-2.19578c-1.97227,0 -1.82055,-0.80333 0.30342,-1.49956c1.59298,-0.53556 1.51713,-0.58911 -0.75856,-0.58911c-1.97227,-0.05356 -2.35154,-0.21422 -1.97227,-0.91045c0.30342,-0.53556 -0.07585,-1.17822 -0.83442,-1.55311c-1.06199,-0.53556 -1.13784,-0.91045 -0.45514,-2.19578c0.98613,-1.82089 0.98613,-2.08867 0,-2.14223c-0.37928,-0.05356 -1.06199,-0.10711 -1.44127,-0.16067c-0.30342,0 -0.45514,-0.64267 -0.30342,-1.28534c0.30342,-1.07111 -0.15172,-1.446 -2.50326,-2.24934c-1.59298,-0.53556 -3.71696,-1.12467 -4.77895,-1.33889c-1.06199,-0.16067 -1.82055,-0.42845 -1.66884,-0.58911c0.68271,-0.42845 -1.51713,-2.62423 -2.27569,-2.30289c-0.53099,0.21422 -0.53099,0.53556 0,0.91045c1.2137,0.85689 0.98613,1.60667 -0.37928,1.23178c-1.44127,-0.37489 -4.8548,1.12467 -4.8548,2.19578c0,1.33889 -4.39966,-1.49956 -5.3858,-3.53467c-0.45514,-0.964 -0.68271,-2.57067 -0.45514,-3.58823c0.37928,-1.55311 0.15172,-1.98156 -1.66884,-2.892c-1.2137,-0.58911 -2.73083,-1.98156 -3.48939,-3.05267c-0.68271,-1.12467 -1.7447,-2.73134 -2.35154,-3.58823c-0.60685,-0.85689 -1.06199,-1.928 -1.06199,-2.41c0,-0.482 -0.53099,-1.82089 -1.13784,-2.99912c-1.2137,-2.46356 -1.51713,-5.83757 -0.45514,-5.35556c0.45514,0.16067 1.13784,-0.21422 1.59298,-0.85689c1.2137,-1.55311 0.30342,-7.12289 -1.13784,-6.748c-1.2137,0.37489 -2.88254,-2.08867 -2.27569,-3.42756c0.75856,-1.60667 -0.91028,-3.21334 -2.9584,-2.83845c-0.98613,0.16067 -2.04812,0.05356 -2.27569,-0.26778c-0.83442,-0.91045 -2.19984,-0.69622 -1.66884,0.21422c0.60685,1.12467 -1.28956,1.55311 -3.26182,0.80333c-1.7447,-0.64267 -1.97227,-0.42845 -0.83442,1.07111c1.06199,1.33889 -1.13784,2.94556 -5.3858,3.96312c-2.9584,0.74978 -3.18596,0.69622 -3.48939,-0.26778c-0.37928,-0.964 -0.45514,-0.964 -1.36541,-0.16067c-0.83442,0.85689 -1.06199,0.85689 -2.57911,-0.16067c-0.98613,-0.64267 -2.27569,-1.01756 -3.18596,-0.85689c-0.98613,0.21422 -1.44127,0 -1.44127,-0.58911c0,-0.58911 -0.68271,-0.85689 -2.04812,-0.85689c-3.18596,0 -4.32381,-0.74978 -3.71696,-2.35645c0.68271,-1.928 -0.30342,-1.76734 -3.48939,0.64267c-2.27569,1.66022 -2.65497,2.30289 -2.4274,4.12379c0.22757,2.57067 -2.35154,6.748 -4.70309,7.44423c-1.8964,0.58911 -5.30994,3.96312 -6.06851,5.89112c-0.22757,0.80333 -0.98613,1.60667 -1.59298,1.76734c-0.83442,0.21422 -0.98613,1.49956 -0.83442,6.26601c0.15172,3.26689 -0.07585,7.33711 -0.37928,9.10445c-0.60685,3.10623 -2.27569,5.6769 -3.71696,5.6769c-1.44127,0 -3.6411,-1.98156 -3.18596,-2.83845c0.22757,-0.53556 0.07585,-0.91045 -0.37928,-0.91045c-0.45514,0 -0.83442,-0.64267 -0.83442,-1.446c0,-0.85689 -0.30342,-1.87445 -0.75856,-2.30289c-0.45514,-0.482 -0.37928,-0.91045 0.15172,-1.12467c1.36541,-0.58911 -0.91028,-3.58823 -2.50326,-3.32045c-0.83442,0.16067 -1.13784,0.58911 -0.91028,1.07111c0.60685,1.01756 -2.50326,2.78489 -4.8548,2.83845c-1.8964,0 -2.19984,0.53556 -0.91028,1.446c0.60685,0.42845 -0.45514,0.53556 -3.94452,0.37489l-4.8548,-0.21422l2.50326,1.12467c2.88254,1.33889 3.18596,2.24934 0.60685,1.76734c-2.19984,-0.37489 -3.26182,0.58911 -1.44127,1.33889c1.13784,0.482 0.98613,0.53556 -1.06199,0.58911c-1.7447,0 -2.50326,0.26778 -2.50326,0.80333c0,0.42845 -0.37928,0.80333 -0.83442,0.80333c-0.60685,0 -0.60685,0.26778 0.07585,0.80333c0.75856,0.64267 0.68271,0.85689 -0.22757,1.12467c-0.68271,0.16067 -1.06199,0.58911 -0.83442,0.964c0.22757,0.37489 -0.53099,0.964 -1.59298,1.39245c-1.06199,0.37489 -1.8964,1.01756 -1.8964,1.39245c0,0.37489 -0.83442,1.39245 -1.8964,2.24934c-1.36541,1.17822 -1.59298,1.71378 -0.98613,2.14223c0.60685,0.42845 0.60685,0.64267 0.07585,0.64267c-1.28956,0 -2.9584,3.21334 -1.82055,3.69534c0.60685,0.26778 0.22757,0.58911 -0.98613,1.01756c-1.28956,0.42845 -1.82055,0.91045 -1.59298,1.66022c0.37928,1.33889 -1.51713,4.12379 -3.26182,4.87356c-0.91028,0.32133 -0.98613,0.64267 -0.45514,0.91045c1.36541,0.69622 1.2137,4.28445 -0.22757,4.65934c-0.91028,0.26778 -1.06199,0.80333 -0.75856,2.19578c0.22757,1.01756 0.15172,1.87445 -0.22757,1.87445c-0.37928,0 -0.30342,0.74978 0.15172,1.60667c0.37928,0.91045 0.60685,1.928 0.37928,2.30289c-0.22757,0.42845 0.22757,0.964 0.98613,1.28534c1.13784,0.53556 1.28956,0.42845 0.98613,-1.23178c-0.22757,-1.71378 -0.15172,-1.82089 1.59298,-1.49956c1.28956,0.21422 2.04812,0.05356 2.57911,-0.64267c0.37928,-0.482 1.36541,-0.964 2.12397,-1.01756c0.83442,-0.05356 2.04812,-0.32133 2.80668,-0.53556c0.75856,-0.21422 3.18596,-0.26778 5.46165,-0.16067c2.27569,0.16067 4.17209,0.16067 4.17209,0.05356c0,-0.10711 -1.13784,-0.58911 -2.4274,-1.01756l-2.50326,-0.74978l2.88254,0.32133c1.66884,0.21422 2.80668,0.10711 2.80668,-0.21422c0,-0.85689 2.9584,-1.12467 5.53751,-0.53556c2.80668,0.69622 5.23409,2.08867 8.04077,4.7129c1.13784,1.07111 2.73083,1.928 3.86867,2.03511c2.12397,0.16067 3.33768,1.23178 2.04812,1.82089c-0.98613,0.42845 -1.2137,3.21334 -0.30342,3.69534c0.30342,0.16067 0.75856,1.71378 0.91028,3.48112c0.22757,1.71378 0.53099,3.96312 0.75856,4.92712c0.30342,0.964 0.15172,1.71378 -0.30342,1.71378c-0.45514,0 -0.30342,0.80333 0.37928,1.87445c1.36541,2.41 1.36541,2.41 -0.98613,2.41l-2.04812,0l1.66884,0.85689c1.13784,0.53556 1.59298,1.17822 1.28956,1.82089c-0.22757,0.53556 0.15172,1.33889 0.91028,1.928c0.75856,0.53556 1.28956,1.01756 1.2137,1.12467c-0.15172,0.10711 -0.15172,0.26778 -0.15172,0.42845c0.07585,0.16067 0.22757,0.53556 0.30342,0.80333c0.07585,0.32133 0.22757,0.74978 0.30342,1.01756c0,0.21422 1.51713,1.12467 3.33768,1.928c1.7447,0.80333 4.02039,2.14223 5.08237,2.99912c1.06199,0.80333 3.26182,1.928 4.93066,2.41c2.4274,0.69622 2.73083,0.964 1.66884,1.23178c-1.06199,0.26778 -0.30342,0.69622 3.03425,1.87445c2.4274,0.85689 3.94452,1.66022 3.41353,1.76734c-0.53099,0.16067 -1.82055,-0.16067 -2.88254,-0.64267c-1.06199,-0.482 -2.12397,-0.74978 -2.35154,-0.58911c-0.22757,0.16067 0.98613,0.74978 2.65497,1.28534c2.57911,0.80333 2.9584,1.12467 2.19984,1.71378c-0.68271,0.53556 -0.68271,0.58911 0.07585,0.32133c0.45514,-0.21422 0.91028,-0.16067 0.91028,0.10711c0,0.26778 0.60685,0.64267 1.36541,0.74978c0.75856,0.16067 1.44127,0.64267 1.44127,1.12467c0,0.64267 -0.37928,0.74978 -1.36541,0.37489c-0.75856,-0.32133 -2.04812,-0.32133 -3.03425,-0.10711c-1.59298,0.42845 -1.51713,0.482 0.91028,1.17822c1.44127,0.42845 4.09624,1.87445 5.91679,3.21334c3.18596,2.35645 3.26182,2.41 1.51713,2.73134c-1.7447,0.26778 -1.7447,0.32133 0.45514,0.74978l2.27569,0.42845l-1.8964,0.37489c-1.7447,0.42845 -1.82055,0.42845 -0.22757,0.482c0.91028,0.05356 2.04812,0.58911 2.57911,1.17822c0.83442,1.12467 0.75856,1.17822 -1.66884,0.80333c-1.82055,-0.21422 -2.27569,-0.16067 -1.44127,0.21422c0.60685,0.26778 1.7447,0.53556 2.4274,0.53556c0.68271,0 1.59298,0.32133 1.8964,0.74978c0.30342,0.37489 1.13784,0.85689 1.7447,1.01756c0.75856,0.21422 0.60685,0.32133 -0.53099,0.32133c-2.57911,0.05356 -2.73083,1.01756 -0.22757,1.39245c1.28956,0.21422 2.12397,0.58911 1.82055,0.85689c-0.22757,0.26778 0.15172,0.482 0.75856,0.482c1.44127,0 1.59298,0.58911 0.37928,1.446c-0.60685,0.42845 -0.37928,0.80333 0.60685,1.28534c1.7447,0.91045 2.80668,2.62423 1.59298,2.62423c-0.45514,0 -0.60685,0.16067 -0.37928,0.37489c0.30342,0.16067 -0.07585,0.64267 -0.83442,1.01756c-1.13784,0.64267 -1.06199,0.74978 1.13784,1.07111c2.73083,0.37489 2.65497,1.28534 -0.07585,1.28534c-0.98613,0 -2.19984,0.32133 -2.65497,0.74978c-0.68271,0.58911 -0.45514,0.80333 1.2137,1.12467c1.59298,0.26778 1.82055,0.42845 0.91028,0.85689c-0.68271,0.32133 -0.75856,0.482 -0.07585,0.482c1.59298,0 0.98613,1.07111 -0.98613,1.71378c-2.19984,0.69622 -2.4274,1.33889 -0.53099,1.66022c0.68271,0.16067 0.15172,0.26778 -1.28956,0.32133l-2.57911,0.05356l1.7447,1.07111c1.51713,0.964 1.59298,1.07111 0.37928,1.07111c-1.36541,0 -1.36541,0.05356 0.07585,0.85689c0.75856,0.42845 1.06199,0.69622 0.60685,0.53556c-0.53099,-0.16067 -1.28956,0.05356 -1.82055,0.482c-1.06199,0.91045 -1.06199,0.91045 1.13784,1.76734c1.28956,0.53556 1.06199,0.58911 -1.66884,0.64267c-3.71696,0 -4.17209,0.58911 -1.2137,1.55311c1.59298,0.53556 1.82055,0.74978 0.98613,1.12467c-0.91028,0.37489 -0.68271,0.58911 0.75856,1.01756c1.66884,0.42845 1.66884,0.53556 0.37928,0.58911c-0.91028,0 -1.2137,0.16067 -0.68271,0.42845c0.45514,0.21422 0.98613,0.80333 1.28956,1.33889c0.45514,0.80333 0.22757,0.91045 -1.06199,0.64267c-1.36541,-0.32133 -1.51713,-0.21422 -1.06199,0.85689c0.45514,0.964 0.30342,1.12467 -0.75856,0.80333c-1.8964,-0.482 -2.88254,0.16067 -1.7447,1.17822c0.83442,0.69622 0.75856,0.80333 -1.13784,0.53556c-2.04812,-0.26778 -2.04812,-0.26778 -0.83442,0.69622c1.13784,0.91045 0.98613,1.28534 -0.60685,1.07111c-1.06199,-0.10711 -0.68271,0.85689 0.60685,1.60667c1.06199,0.58911 1.06199,0.69622 0,1.12467c-0.91028,0.37489 -0.98613,0.74978 -0.45514,1.76734c0.37928,0.74978 0.53099,1.33889 0.30342,1.33889c-0.30342,0 -0.07585,0.32133 0.37928,0.69622c0.45514,0.42845 0.60685,0.91045 0.30342,1.07111c-0.22757,0.21422 0.30342,1.01756 1.36541,1.82089c0.98613,0.80333 1.2137,1.12467 0.45514,0.74978c-1.13784,-0.64267 -1.28956,-0.64267 -0.83442,0.16067c0.22757,0.482 0.75856,0.85689 1.06199,0.85689c0.30342,0 0.75856,0.74978 1.06199,1.60667c0.22757,0.91045 1.97227,2.73134 3.86867,4.12379c2.12397,1.49956 3.18596,2.62423 2.65497,2.83845c-1.36541,0.58911 1.36541,1.82089 4.24796,1.87445c1.36541,0.05356 2.35154,-0.10711 2.12397,-0.37489c-0.22757,-0.21422 -0.07585,-0.42845 0.37928,-0.42845c0.45514,0 1.51713,-0.964 2.35154,-2.08867c0.83442,-1.17822 1.97227,-2.35645 2.4274,-2.57067c0.53099,-0.21422 0.98613,-0.80333 0.98613,-1.23178c0,-0.42845 1.13784,-1.23178 2.57911,-1.71378c2.27569,-0.80333 2.65497,-0.80333 3.6411,-0.10711c0.68271,0.42845 1.7447,0.64267 2.57911,0.482c1.06199,-0.26778 1.28956,-0.10711 0.98613,0.482c-0.30342,0.53556 0,0.69622 1.06199,0.53556c0.75856,-0.16067 2.57911,0.05356 4.02039,0.482c1.59298,0.53556 2.04812,0.85689 1.2137,0.85689c-2.12397,0.05356 -0.83442,0.964 1.8964,1.33889c3.18596,0.42845 6.67535,1.55311 6.67535,2.03511c0,0.26778 0.68271,0.42845 1.44127,0.42845c0.75856,0 2.19984,0.482 3.18596,1.07111c1.59298,0.964 1.66884,1.01756 0.30342,0.74978c-1.13784,-0.21422 -1.28956,-0.21422 -0.45514,0.21422c0.60685,0.32133 1.51713,0.42845 2.04812,0.26778c1.06199,-0.26778 4.77895,1.39245 4.8548,2.24934c0.07585,0.32133 1.44127,1.60667 3.18596,2.94556c1.7447,1.33889 2.65497,1.98156 2.12397,1.446c-0.53099,-0.482 -0.75856,-1.07111 -0.60685,-1.23178c0.60685,-0.42845 2.88254,1.33889 2.88254,2.24934c0,0.42845 0.37928,0.74978 0.75856,0.74978c0.45514,0 0.75856,-0.53556 0.75856,-1.12467c0,-0.964 0.22757,-1.01756 1.13784,-0.482c0.60685,0.32133 1.06199,0.80333 0.98613,0.964c-0.15172,0.91045 0.22757,1.71378 0.75856,1.66022c1.66884,-0.21422 2.4274,0.16067 2.4274,1.12467c0,0.58911 0.53099,1.23178 1.13784,1.39245c0.60685,0.21422 0.91028,0.53556 0.68271,0.80333c-0.22757,0.26778 0.30342,0.53556 1.13784,0.53556c0.91028,0.05356 1.97227,0.16067 2.35154,0.21422c0.45514,0.05356 0.98613,0.16067 1.36541,0.21422c0.30342,0 1.51713,0.64267 2.65497,1.39245c1.13784,0.74978 2.04812,1.17822 2.04812,0.964c0,-0.26778 1.28956,-0.37489 2.9584,-0.26778c1.59298,0.10711 3.18596,-0.05356 3.41353,-0.37489c0.91028,-1.01756 2.19984,-0.64267 1.7447,0.482c-0.22757,0.58911 -0.07585,1.07111 0.37928,1.07111c0.37928,0 0.45514,0.32133 0.15172,0.69622c-0.45514,0.482 -0.37928,0.482 0.53099,0c1.28956,-0.69622 2.4274,-0.32133 3.18596,1.07111c0.37928,0.69622 0.07585,0.91045 -1.13784,0.91045c-1.36541,0 -1.44127,-0.10711 -0.53099,-0.91045c0.60685,-0.58911 0.30342,-0.53556 -0.83442,0.16067c-1.06199,0.64267 -3.86867,1.446 -6.22021,1.82089c-5.23409,0.74978 -9.25447,3.10623 -10.08889,5.89112c-1.66884,5.40912 -7.35806,10.4969 -16.30911,14.56713c-5.76508,2.62423 -10.54402,4.28445 -11.30259,3.90956c-0.37928,-0.16067 -0.83442,-0.05356 -0.98613,0.21422c-0.07585,0.32133 -1.06199,0.64267 -2.12397,0.80333c-1.06199,0.16067 -3.18596,0.53556 -4.77895,0.80333c-1.51713,0.26778 -3.56525,0.32133 -4.47553,0.16067c-1.06199,-0.16067 -1.44127,-0.05356 -1.06199,0.32133c0.30342,0.37489 0.15172,0.53556 -0.45514,0.42845c-0.53099,-0.10711 -2.19984,-0.37489 -3.6411,-0.53556c-1.8964,-0.21422 -2.35154,-0.16067 -1.51713,0.21422c0.83442,0.37489 0.37928,0.482 -1.66884,0.37489c-1.59298,-0.05356 -2.88254,-0.32133 -2.88254,-0.58911l-0.00001,0l0.00004,0zm27.0807,-8.83667c4.93066,-0.964 8.19248,-6.48023 4.70309,-7.97978c-1.36541,-0.58911 -1.59298,-0.58911 -1.8964,0.26778c-0.37928,1.01756 -3.33768,1.39245 -4.47553,0.58911c-0.30342,-0.21422 -0.98613,-0.21422 -1.59298,-0.05356c-0.60685,0.16067 -1.06199,0.05356 -1.06199,-0.26778c0,-0.26778 -0.91028,-0.64267 -2.04812,-0.80333c-2.27569,-0.32133 -7.66149,1.446 -6.29608,2.03511c0.45514,0.21422 0.60685,0.80333 0.37928,1.39245c-0.98613,2.14223 5.15823,6.10534 8.4959,5.51623c0.45514,-0.10711 2.19984,-0.42845 3.79282,-0.69622l0,0zm-143.59598,-7.28356c0.83442,-0.42845 1.28956,-0.91045 1.06199,-1.07111c-0.22757,-0.16067 -1.2137,0.16067 -2.19984,0.74978c-2.04812,1.23178 -1.06199,1.49956 1.13784,0.32133zm-4.09624,-4.82001c0,-0.53556 -3.03425,0.482 -3.33768,1.12467c-0.30342,0.58911 0,0.58911 1.44127,-0.10711c1.06199,-0.482 1.8964,-0.964 1.8964,-1.01756l0,0l0.00001,0zm88.75188,-1.33889c0,-0.26778 -0.37928,-0.53556 -0.83442,-0.53556c-0.37928,0 -0.53099,0.26778 -0.30342,0.53556c0.22757,0.32133 0.60685,0.53556 0.83442,0.53556c0.15172,0 0.30342,-0.21422 0.30342,-0.53556zm-92.31712,-0.91045c-0.22757,-0.37489 -0.68271,-0.53556 -1.06199,-0.37489c-1.06199,0.42845 -0.83442,1.12467 0.37928,1.12467c0.60685,0 0.91028,-0.32133 0.68271,-0.74978l0,0zm95.35137,0.10711c0,-0.10711 -0.75856,-0.482 -1.66884,-0.80333c-1.66884,-0.58911 -1.66884,-0.53556 -0.30342,0.21422c1.59298,0.91045 1.97227,1.01756 1.97227,0.58911l0,0l-0.00001,0zm8.3442,0.05356c0,-0.10711 -0.60685,-0.53556 -1.28956,-0.91045c-1.2137,-0.69622 -1.28956,-0.64267 -0.30342,0.21422c0.98613,0.85689 1.59298,1.12467 1.59298,0.69622l0,0l0,0.00001zm-5.68922,-2.46356c-0.22757,-0.26778 -0.83442,-0.53556 -1.2137,-0.53556c-0.45514,0 -0.53099,0.26778 -0.30342,0.53556c0.22757,0.32133 0.83442,0.53556 1.2137,0.53556c0.45514,0 0.53099,-0.21422 0.30342,-0.53556zm-3.79282,-0.53556c-0.22757,-0.26778 -0.07585,-0.53556 0.45514,-0.53556c0.53099,0 0.75856,-0.16067 0.45514,-0.32133c-0.68271,-0.482 -2.12397,0.32133 -1.66884,0.91045c0.30342,0.26778 0.60685,0.482 0.83442,0.482c0.22757,0 0.15172,-0.21422 -0.07585,-0.53556l-0.00001,0zm2.9584,-1.33889c-0.30342,-0.42845 -0.83442,-0.80333 -1.2137,-0.80333c-0.45514,0 -0.37928,0.32133 0.15172,0.80333c0.53099,0.42845 1.06199,0.80333 1.2137,0.80333c0.15172,0 0.07585,-0.37489 -0.15172,-0.80333zm41.18997,-2.08867c-0.22757,-0.42845 -1.66884,-0.91045 -3.18596,-1.07111c-3.18596,-0.42845 -3.03425,-0.80333 0.53099,-1.39245c2.35154,-0.37489 2.35154,-0.42845 0.45514,-0.482c-2.80668,-0.05356 -5.91679,1.01756 -5.91679,2.03511c0,0.64267 0.15172,0.69622 0.60685,0.16067c0.45514,-0.482 0.91028,-0.32133 1.51713,0.64267c0.98613,1.60667 5.68922,2.78489 6.06851,1.55311c0.15172,-0.42845 0.07585,-1.07111 -0.07585,-1.446l-0.00001,0zm-46.04477,1.60667c0,-0.10711 -0.53099,-0.37489 -1.2137,-0.53556c-0.60685,-0.16067 -0.91028,-0.10711 -0.68271,0.21422c0.45514,0.53556 1.8964,0.74978 1.8964,0.32133l0,0l0,0.00001zm-51.27886,-2.83845c1.7447,-1.49956 1.28956,-1.60667 -0.91028,-0.21422c-0.91028,0.53556 -1.44127,1.12467 -1.13784,1.33889c0.22757,0.16067 0.53099,0.26778 0.53099,0.21422c0.07585,-0.10711 0.75856,-0.69622 1.51713,-1.33889zm85.79348,-0.69622c0.22757,-0.26778 0.07585,-0.53556 -0.30342,-0.53556c-0.45514,0 -0.83442,0.26778 -0.83442,0.53556c0,0.32133 0.15172,0.53556 0.30342,0.53556c0.22757,0 0.60685,-0.21422 0.83442,-0.53556zm-47.18262,-2.14223c-0.22757,-0.64267 -0.60685,-1.01756 -0.83442,-0.85689c-0.37928,0.32133 0.37928,1.928 0.91028,1.928c0.15172,0 0.15172,-0.482 -0.07585,-1.07111zm51.734,0.53556c0.30342,-0.37489 -0.22757,-0.482 -1.44127,-0.32133c-1.36541,0.16067 -1.7447,0.05356 -1.51713,-0.482c0.30342,-0.53556 -0.07585,-0.64267 -1.13784,-0.42845c-1.28956,0.21422 -1.44127,0.42845 -0.75856,1.01756c0.98613,0.85689 4.17209,1.01756 4.8548,0.21422l0,0zm45.89306,0.32133c0,-0.16067 -0.30342,-0.42845 -0.75856,-0.58911c-0.37928,-0.16067 -0.75856,-0.05356 -0.75856,0.21422c0,0.32133 0.37928,0.58911 0.75856,0.58911c0.45514,0 0.75856,-0.10711 0.75856,-0.21422zm-40.9624,-1.17822c0,-0.10711 -0.53099,-0.21422 -1.13784,-0.21422c-0.60685,0 -1.13784,0.21422 -1.13784,0.53556c0,0.26778 0.53099,0.37489 1.13784,0.21422c0.60685,-0.21422 1.13784,-0.42845 1.13784,-0.53556zm-57.8025,-2.892c-0.98613,-2.14223 -2.12397,-2.57067 -2.12397,-0.80333c0,0.80333 0.30342,1.28534 0.75856,1.07111c0.45514,-0.16067 0.75856,0.05356 0.75856,0.482c0,0.482 0.30342,0.85689 0.68271,0.85689c0.45514,0 0.45514,-0.64267 -0.07585,-1.60667l0,0zm-17.44695,-6.1589c-0.22757,-0.64267 -2.19984,-0.42845 -3.26182,0.37489c-0.53099,0.32133 -0.07585,0.42845 1.36541,0.32133c1.13784,-0.10711 1.97227,-0.37489 1.8964,-0.69622l0,0zm-33.22506,-1.33889c0,-0.26778 -0.37928,-0.53556 -0.83442,-0.53556c-0.37928,0 -0.53099,0.26778 -0.30342,0.53556c0.22757,0.32133 0.60685,0.53556 0.83442,0.53556c0.15172,0 0.30342,-0.21422 0.30342,-0.53556zm36.6386,-19.65491c-0.53099,-0.10711 -1.44127,-0.10711 -1.8964,0c-0.53099,0.16067 -0.15172,0.26778 0.91028,0.26778c1.06199,0 1.44127,-0.10711 0.98613,-0.26778zm-6.14436,-15.26335c-0.68271,-0.482 -0.91028,-0.37489 -0.91028,0.64267c0,1.01756 0.22757,1.12467 0.91028,0.64267c0.68271,-0.482 0.68271,-0.80333 0,-1.28534zm-27.0807,-67.05162c-0.68271,-0.69622 -1.7447,-1.446 -2.35154,-1.60667c-0.83442,-0.21422 -0.68271,0.16067 0.45514,1.28534c1.8964,1.928 3.6411,2.19578 1.8964,0.32133l0,0zm0.75856,-2.83845c-0.30342,-0.53556 -0.60685,-1.28534 -0.60685,-1.66022c0,-0.42845 -0.30342,-0.482 -0.75856,-0.16067c-0.83442,0.58911 0,2.73134 1.13784,2.73134c0.45514,0 0.53099,-0.37489 0.22757,-0.91045l0,0zm-7.13049,-2.67778c-0.75856,-0.91045 -0.75856,-0.85689 -0.83442,0.16067c0,1.23178 0.98613,2.19578 1.36541,1.33889c0.15172,-0.32133 -0.07585,-0.964 -0.53099,-1.49956zm33.6802,-14.56713c-1.13784,-1.55311 -2.50326,-2.51712 -3.03425,-2.08867c-0.30342,0.21422 3.33768,3.64178 3.86867,3.64178c0.15172,0 -0.15172,-0.69622 -0.83442,-1.55311zm124.70776,-43.59427c0.45514,-0.964 0.68271,-4.33801 0.53099,-7.60489c-0.30342,-7.33711 -0.30342,-7.23 -1.13784,-7.23c-0.75856,0 -0.75856,-0.10711 -0.98613,9.37223c-0.15172,3.85601 -0.53099,7.33711 -0.91028,7.76556c-0.60685,0.69622 -0.53099,0.69622 0.53099,0.10711c0.68271,-0.42845 1.59298,-1.49956 1.97227,-2.41l0,0l0,-0.00001zm-29.5081,-0.26778c0,-0.80333 -0.15172,-0.80333 -0.75856,-0.10711c-0.98613,1.07111 -0.98613,1.76734 0,1.33889c0.45514,-0.16067 0.75856,-0.74978 0.75856,-1.23178l0,0zm28.52197,-19.11936c-0.22757,-1.49956 -1.2137,-2.51712 -1.2137,-1.17822c0,0.85689 0.75856,2.51712 1.13784,2.51712c0.15172,0 0.15172,-0.58911 0.07585,-1.33889l0,-0.00001zm-127.36273,-5.73045c-0.22757,-0.42845 -0.45514,-0.26778 -0.45514,0.32133c-0.07585,0.58911 0.15172,0.91045 0.37928,0.69622c0.22757,-0.16067 0.30342,-0.64267 0.07585,-1.01756l0,0.00001zm125.39046,-1.49956c0,-0.58911 -0.30342,-1.07111 -0.68271,-1.07111c-0.37928,0 -0.53099,0.482 -0.30342,1.07111c0.22757,0.58911 0.53099,1.07111 0.68271,1.07111c0.15172,0 0.30342,-0.482 0.30342,-1.07111zm-2.50326,-7.06935c-0.22757,-0.42845 -0.45514,-0.26778 -0.45514,0.32133c-0.07585,0.58911 0.15172,0.91045 0.37928,0.69622c0.22757,-0.16067 0.30342,-0.64267 0.07585,-1.01756l0,0.00001zm31.10108,-6.42668c-0.22757,-0.42845 -0.45514,-0.26778 -0.45514,0.32133c-0.07585,0.58911 0.15172,0.91045 0.37928,0.69622c0.22757,-0.16067 0.30342,-0.64267 0.07585,-1.01756l0,0.00001zm-107.56423,-6.96222c0.98613,-0.21422 0.91028,-0.26778 -0.07585,-0.53556c-0.75856,-0.21422 -1.7447,0.10711 -2.65497,0.74978c-1.36541,1.07111 -1.36541,1.12467 0.15172,0.58911c0.83442,-0.32133 2.04812,-0.64267 2.57911,-0.80333l0,0zm3.48939,-3.64178c0.22757,-0.32133 -0.07585,-0.37489 -0.68271,-0.21422c-1.36541,0.37489 -1.59298,0.74978 -0.53099,0.74978c0.45514,0 0.98613,-0.21422 1.2137,-0.53556zm-7.96491,-5.6769c0,-1.12467 -0.30342,-1.76734 -0.75856,-1.55311c-0.37928,0.16067 -0.75856,1.17822 -0.75856,2.19578c0,1.12467 0.30342,1.76734 0.75856,1.55311c0.45514,-0.16067 0.75856,-1.17822 0.75856,-2.19578zm18.96407,-0.26778c0,-0.26778 -0.30342,-0.482 -0.75856,-0.482c-0.37928,0 -0.75856,0.37489 -0.75856,0.85689c0,0.42845 0.37928,0.64267 0.75856,0.482c0.45514,-0.16067 0.75856,-0.53556 0.75856,-0.85689zm-0.68271,-25.43891c1.28956,-1.82089 2.04812,-2.35645 3.48939,-2.35645c2.57911,0 4.55138,-3.21334 3.26182,-5.40912c-1.06199,-1.76734 -2.4274,-2.67778 -4.32381,-2.83845c-1.44127,-0.16067 -5.46165,4.12379 -5.99264,6.31957c-0.07585,0.64267 -0.45514,2.14223 -0.75856,3.37401c-0.30342,1.55311 -0.15172,2.57067 0.45514,3.10623c1.2137,1.07111 2.04812,0.64267 3.86867,-2.19578l0,-0.00001zm77.14586,-23.8858c0.53099,-0.37489 4.17209,-0.80333 8.3442,-0.964c6.22021,-0.26778 7.8132,-0.53556 10.08889,-1.60667c1.36541,-0.74978 3.6411,-1.71378 4.8548,-2.14223c2.19984,-0.80333 2.27569,-0.91045 2.27569,-4.65934c0,-2.14223 -0.37928,-4.12379 -0.83442,-4.44512c-0.45514,-0.32133 -1.82055,-0.37489 -3.26182,-0.21422c-2.19984,0.32133 -2.35154,0.482 -1.97227,1.928c0.45514,1.23178 0.07585,1.82089 -1.82055,3.21334l-2.35154,1.71378l0,-1.49956c0,-2.35645 -1.82055,-1.33889 -2.35154,1.28534c-0.22757,1.28534 -0.83442,2.46356 -1.28956,2.57067c-0.53099,0.10711 -0.91028,0.482 -0.91028,0.80333c0,0.42845 -1.66884,0.64267 -4.77895,0.64267c-4.17209,0 -5.00652,0.16067 -6.82707,1.446c-2.4274,1.71378 -5.08237,1.55311 -2.9584,-0.16067c0.68271,-0.53556 1.66884,-1.01756 2.12397,-1.01756c0.91028,0 1.82055,-1.17822 1.82055,-2.19578c0,-0.32133 -0.68271,-0.42845 -1.44127,-0.21422c-0.83442,0.16067 -2.73083,-0.05356 -4.24796,-0.53556c-1.59298,-0.42845 -2.9584,-0.80333 -3.18596,-0.80333c-0.15172,0 -0.07585,0.91045 0.22757,2.03511c0.98613,4.01667 5.76508,6.748 8.4959,4.82001l0,0l0.00001,0.00001z" id="svg_2"/>
   <path stroke="null" d="m202.31898,6781.78149c0.22757,-0.26778 0.98613,-0.53556 1.66884,-0.53556c1.06199,0 6.29608,-1.82089 8.42005,-2.94556c0.60685,-0.26778 3.18596,-2.08867 5.84094,-3.96312c4.02039,-2.94556 4.8548,-3.85601 5.68922,-6.42668c0.53099,-1.66022 1.28956,-3.32045 1.82055,-3.7489c0.60685,-0.64267 0.60685,-0.69622 -0.07585,-0.37489c-0.53099,0.21422 -0.98613,0.10711 -0.98613,-0.21422c0,-0.32133 0.53099,-0.69622 1.13784,-0.85689c0.60685,-0.21422 1.13784,-0.74978 1.13784,-1.28534c0,-1.23178 3.48939,-2.83845 5.3858,-2.51712c0.75856,0.16067 1.59298,0.05356 1.82055,-0.21422c0.68271,-0.69622 4.17209,-0.37489 4.17209,0.42845c0,0.37489 -1.36541,1.60667 -3.03425,2.78489c-3.94452,2.73134 -7.8132,6.37312 -9.48204,8.83667c-1.82055,2.73134 -9.33033,7.39067 -15.01955,9.31867c-5.30994,1.76734 -9.25447,2.62423 -8.4959,1.71378l0,0l-0.00001,0.00002z" id="svg_3"/>
   <path stroke="null" d="m47.95142,6771.07037c0.45514,-0.58911 0.98613,-1.07111 1.2137,-1.07111c0.15172,0 0,0.482 -0.45514,1.07111c-0.45514,0.58911 -0.98613,1.07111 -1.2137,1.07111c-0.15172,0 0,-0.482 0.45514,-1.07111z" id="svg_4"/>
   <path stroke="null" d="m46.43429,6770.32059c0,-0.10711 0.60685,-0.53556 1.36541,-0.91045c1.13784,-0.69622 1.2137,-0.64267 0.22757,0.21422c-0.98613,0.85689 -1.59298,1.12467 -1.59298,0.69622l0,0l0,0.00001z" id="svg_5"/>
   <path stroke="null" d="m49.46855,6768.55326c0,-0.69622 0.37928,-1.23178 0.75856,-1.23178c0.98613,0 0.98613,0.58911 0,1.60667c-0.60685,0.64267 -0.75856,0.58911 -0.75856,-0.37489z" id="svg_6"/>
   <path stroke="null" d="m46.43429,6768.71392c0,-0.10711 0.60685,-0.53556 1.36541,-0.91045c1.13784,-0.69622 1.2137,-0.64267 0.22757,0.21422c-0.98613,0.85689 -1.59298,1.12467 -1.59298,0.69622l0,0l0,0.00001z" id="svg_7"/>
   <path stroke="null" d="m72.22543,6767.26792c0,-1.23178 2.65497,-3.48112 3.26182,-2.78489c0.30342,0.32133 -0.37928,1.23178 -1.36541,2.08867c-1.36541,1.12467 -1.8964,1.28534 -1.8964,0.69622l0,0z" id="svg_8"/>
   <path stroke="null" d="m102.18867,6765.17925c0.22757,-0.26778 0.60685,-0.53556 0.83442,-0.53556c0.15172,0 0.30342,0.26778 0.30342,0.53556c0,0.32133 -0.37928,0.53556 -0.83442,0.53556c-0.37928,0 -0.53099,-0.21422 -0.30342,-0.53556z" id="svg_9"/>
   <path stroke="null" d="m77.76294,6764.42947c0,-0.42845 0.45514,-0.64267 1.06199,-0.482c0.53099,0.16067 0.98613,0 0.98613,-0.32133c0,-0.32133 0.91028,-0.58911 2.04812,-0.58911c1.97227,0 1.8964,0.05356 -0.91028,1.07111c-1.66884,0.58911 -3.03425,1.07111 -3.03425,1.07111c-0.07585,0 -0.15172,-0.32133 -0.15172,-0.74978z" id="svg_10"/>
   <path stroke="null" d="m40.74506,6763.09058c-0.22757,-0.26778 -0.07585,-0.64267 0.37928,-0.85689c0.37928,-0.16067 0.75856,0.05356 0.75856,0.482c0,0.964 -0.45514,1.12467 -1.13784,0.37489z" id="svg_11"/>
   <path stroke="null" d="m82.08675,6761.37681c0,-0.26778 0.37928,-0.37489 0.75856,-0.21422c0.45514,0.16067 0.75856,0.42845 0.75856,0.58911c0,0.10711 -0.30342,0.21422 -0.75856,0.21422c-0.37928,0 -0.75856,-0.26778 -0.75856,-0.58911z" id="svg_12"/>
   <path stroke="null" d="m84.36244,6760.68059c0,-0.10711 0.53099,-0.37489 1.2137,-0.53556c0.60685,-0.16067 0.91028,-0.10711 0.68271,0.21422c-0.45514,0.53556 -1.8964,0.74978 -1.8964,0.32133l0,0l0,0.00001z" id="svg_13"/>
   <path stroke="null" d="m90.43094,6760.09148c0,-0.10711 0.75856,-0.53556 1.7447,-0.85689c1.51713,-0.58911 1.59298,-0.58911 0.60685,0.21422c-0.98613,0.85689 -2.35154,1.23178 -2.35154,0.64267l0,0l-0.00001,0z" id="svg_14"/>
   <path stroke="null" d="m87.39669,6758.48481c0,-0.42845 0.15172,-0.80333 0.30342,-0.80333c0.15172,0 0.45514,0.37489 0.75856,0.80333c0.22757,0.42845 0.07585,0.80333 -0.30342,0.80333c-0.45514,0 -0.75856,-0.37489 -0.75856,-0.80333z" id="svg_15"/>
   <path stroke="null" d="m253.74956,6757.30658c-2.4274,-0.58911 -3.26182,-1.07111 -3.26182,-1.87445c0,-0.58911 -0.60685,-1.17822 -1.44127,-1.33889c-2.35154,-0.42845 -2.4274,-1.66022 -0.22757,-2.83845c4.55138,-2.46356 5.84094,-3.42756 5.84094,-4.60579c0.07585,-0.69622 -0.22757,-1.28534 -0.60685,-1.28534c-0.30342,0 -0.37928,-0.21422 -0.15172,-0.53556c0.30342,-0.32133 -0.07585,-0.37489 -0.91028,-0.16067c-0.75856,0.16067 -1.13784,0.16067 -0.83442,-0.10711c0.30342,-0.21422 0.15172,-0.80333 -0.37928,-1.23178c-0.75856,-0.69622 -0.68271,-0.74978 0.07585,-0.42845c0.53099,0.21422 1.13784,0.05356 1.36541,-0.482c0.37928,-0.58911 0.75856,-0.69622 1.44127,-0.26778c0.68271,0.42845 1.13784,0.42845 1.51713,0c0.22757,-0.26778 0.07585,-0.53556 -0.37928,-0.53556c-0.45514,0 -0.60685,-0.26778 -0.30342,-0.64267c0.37928,-0.42845 0.15172,-0.482 -0.68271,-0.26778c-3.03425,0.80333 -4.93066,-1.66022 -2.57911,-3.32045c0.75856,-0.53556 0.60685,-0.58911 -0.53099,-0.26778c-1.2137,0.32133 -1.36541,0.21422 -1.06199,-1.01756c0.22757,-0.80333 0.07585,-1.28534 -0.22757,-1.12467c-0.37928,0.16067 -0.68271,0.05356 -0.68271,-0.26778c0,-0.26778 -0.22757,-0.85689 -0.45514,-1.33889c-0.30342,-0.58911 -0.07585,-0.85689 0.75856,-0.85689c0.68271,0 1.2137,0.37489 1.2137,0.80333c0,0.482 0.45514,0.80333 0.98613,0.69622c1.44127,-0.21422 8.11663,1.33889 8.11663,1.87445c0,0.26778 0.53099,0.37489 1.13784,0.16067c0.60685,-0.16067 1.13784,-0.05356 1.13784,0.21422c0,0.32133 0.37928,0.53556 0.75856,0.53556c0.45514,0 0.75856,-0.21422 0.75856,-0.53556c0,-0.53556 -5.46165,-2.67778 -6.82707,-2.67778c-0.45514,0 -3.26182,-0.80333 -6.29608,-1.76734c-5.53751,-1.87445 -13.8817,-4.07023 -15.70226,-4.2309c-0.22757,0 -1.2137,-0.26778 -2.27569,-0.53556c-2.73083,-0.80333 -5.30994,-0.964 -5.30994,-0.32133c0,0.26778 -0.91028,0 -2.04812,-0.58911c-1.06199,-0.64267 -2.57911,-1.01756 -3.26182,-0.85689c-0.75856,0.16067 -1.7447,-0.05356 -2.27569,-0.53556c-0.53099,-0.42845 -1.59298,-0.80333 -2.35154,-0.80333c-0.75856,0 -1.59298,-0.482 -1.82055,-1.07111c-0.22757,-0.58911 -0.91028,-1.07111 -1.36541,-1.07111c-0.53099,0 -2.35154,-0.42845 -4.09624,-0.91045c-5.76508,-1.71378 -5.91679,-5.78401 -0.22757,-4.33801c1.82055,0.42845 2.65497,0.42845 2.80668,0.05356c0.30342,-0.53556 2.19984,-0.42845 4.77895,0.21422c0.60685,0.21422 1.44127,0.26778 1.82055,0.21422c0.37928,-0.05356 0.91028,0.16067 1.2137,0.53556c0.37928,0.37489 0.98613,0.42845 1.59298,0.16067c2.12397,-0.91045 4.47553,-0.64267 6.14436,0.74978c3.26182,2.62423 7.66149,5.46268 8.4959,5.46268c0.45514,0 0.37928,-0.26778 -0.15172,-0.64267c-0.53099,-0.37489 -0.91028,-0.85689 -0.91028,-1.17822c0,-0.32133 0.37928,-0.26778 0.83442,0.05356c0.45514,0.32133 1.36541,0.482 1.8964,0.32133c0.60685,-0.16067 1.28956,0.10711 1.51713,0.58911c0.22757,0.482 0.75856,0.85689 1.13784,0.85689c0.45514,0 0.37928,-0.42845 -0.07585,-1.01756c-1.06199,-1.49956 -0.91028,-2.03511 0.22757,-0.85689c0.68271,0.58911 1.44127,0.80333 1.97227,0.53556c0.75856,-0.32133 0.83442,-0.16067 0.15172,0.69622c-0.60685,0.80333 -0.53099,1.07111 0.15172,1.01756c3.48939,-0.05356 7.35806,0.21422 7.13049,0.58911c-0.22757,0.21422 0.45514,0.42845 1.44127,0.42845c1.82055,0.10711 4.09624,1.33889 4.09624,2.30289c0,0.32133 0.68271,0.80333 1.51713,1.12467c1.36541,0.53556 1.82055,0.37489 1.59298,-0.64267c0,-0.21422 0.68271,-0.53556 1.51713,-0.69622c1.13784,-0.26778 2.19984,0.05356 3.71696,1.07111c1.2137,0.85689 2.12397,1.66022 2.04812,1.82089c-0.07585,0.16067 0.37928,0.85689 0.91028,1.55311c0.53099,0.69622 0.75856,1.60667 0.53099,2.03511c-0.22757,0.482 -0.07585,0.64267 0.30342,0.482c0.45514,-0.16067 0.75856,0.16067 0.75856,0.74978c0,0.64267 0.37928,1.12467 0.83442,1.12467c0.45514,0 0.68271,0.482 0.45514,1.07111c-0.22757,0.58911 -0.07585,1.07111 0.30342,1.07111c0.37928,0 0.68271,0.21422 0.68271,0.482c0,0.37489 2.12397,4.01667 3.6411,6.10534c0.15172,0.21422 -0.37928,0.21422 -1.13784,0c-1.13784,-0.32133 -1.2137,-0.26778 -0.37928,0.482c0.83442,0.69622 0.83442,1.76734 0.07585,5.62334c-0.45514,2.57067 -1.2137,4.98068 -1.66884,5.24845c-0.53099,0.37489 -0.60685,0.21422 -0.30342,-0.37489c0.30342,-0.53556 0.15172,-0.964 -0.22757,-0.964c-0.45514,0 -0.75856,0.21422 -0.75856,0.53556c0,2.14223 -11.15088,3.26689 -17.21938,1.76734l0,0l0.00002,0.00005z" id="svg_16"/>
   <path stroke="null" d="m243.50896,6756.77103c0.53099,-0.16067 1.2137,-0.10711 1.44127,0.05356c0.30342,0.16067 -0.15172,0.32133 -0.98613,0.26778c-0.83442,0 -1.06199,-0.16067 -0.45514,-0.32133l0,-0.00001z" id="svg_17"/>
   <path stroke="null" d="m97.25801,6750.66568c0,-0.26778 0.37928,-0.37489 0.75856,-0.21422c0.45514,0.16067 0.75856,0.42845 0.75856,0.58911c0,0.10711 -0.30342,0.21422 -0.75856,0.21422c-0.37928,0 -0.75856,-0.26778 -0.75856,-0.58911z" id="svg_18"/>
   <path stroke="null" d="m253.1427,6747.50591c-0.22757,-0.26778 -0.07585,-0.53556 0.30342,-0.53556c0.45514,0 0.83442,0.26778 0.83442,0.53556c0,0.32133 -0.15172,0.53556 -0.30342,0.53556c-0.22757,0 -0.60685,-0.21422 -0.83442,-0.53556z" id="svg_19"/>
   <path stroke="null" d="m237.21289,6743.75701c-0.22757,-0.26778 -0.07585,-0.53556 0.30342,-0.53556c0.45514,0 0.83442,0.26778 0.83442,0.53556c0,0.32133 -0.15172,0.53556 -0.30342,0.53556c-0.22757,0 -0.60685,-0.21422 -0.83442,-0.53556z" id="svg_20"/>
   <path stroke="null" d="m243.28139,6743.75701c-0.22757,-0.26778 -0.15172,-0.53556 0.30342,-0.53556c0.37928,0 0.98613,0.26778 1.2137,0.53556c0.22757,0.32133 0.15172,0.53556 -0.30342,0.53556c-0.37928,0 -0.98613,-0.21422 -1.2137,-0.53556z" id="svg_21"/>
   <path stroke="null" d="m248.66719,6743.48923c0.30342,-0.42845 0.75856,-0.64267 1.13784,-0.482c1.06199,0.42845 0.75856,1.28534 -0.45514,1.28534c-0.68271,0 -0.91028,-0.32133 -0.68271,-0.80333l0,0l0,-0.00001z" id="svg_22"/>
   <path stroke="null" d="m230.30996,6741.88257c-1.36541,-0.74978 -1.36541,-0.74978 0.37928,-0.53556c2.19984,0.26778 4.02039,1.33889 2.27569,1.33889c-0.60685,0 -1.82055,-0.37489 -2.65497,-0.80333l0,0z" id="svg_23"/>
   <path stroke="null" d="m223.48289,6739.74034c-1.36541,-0.69622 -1.36541,-0.74978 0.30342,-0.42845c0.91028,0.16067 1.8964,0.482 2.12397,0.74978c0.60685,0.74978 -0.75856,0.58911 -2.4274,-0.32133l0.00001,0z" id="svg_24"/>
   <path stroke="null" d="m247.22591,6740.22234c-0.22757,-0.16067 -0.22757,-0.64267 0,-1.07111c0.30342,-0.58911 0.68271,-0.64267 1.44127,-0.16067c0.60685,0.32133 0.83442,0.80333 0.60685,1.07111c-0.45514,0.53556 -1.36541,0.64267 -2.04812,0.16067l0,0z" id="svg_25"/>
   <path stroke="null" d="m237.06117,6739.15123c-0.60685,-1.17822 0.37928,-1.60667 1.7447,-0.64267c1.06199,0.74978 1.06199,0.85689 -0.07585,1.12467c-0.68271,0.21422 -1.36541,0.05356 -1.66884,-0.482l-0.00001,0z" id="svg_26"/>
   <path stroke="null" d="m241.76426,6739.47256c0.22757,-0.26778 0.98613,-0.53556 1.59298,-0.53556c0.60685,0 1.06199,0.26778 1.06199,0.53556c0,0.32133 -0.68271,0.53556 -1.59298,0.53556c-0.83442,0 -1.28956,-0.21422 -1.06199,-0.53556z" id="svg_27"/>
   <path stroke="null" d="m231.97881,6738.08011c-0.30342,-0.58911 -0.07585,-0.74978 0.83442,-0.64267c0.68271,0.10711 1.36541,0.482 1.59298,0.85689c0.45514,0.964 -1.8964,0.80333 -2.4274,-0.21422l0,0z" id="svg_28"/>
   <path stroke="null" d="m228.26184,6736.58056c-0.22757,-0.42845 -0.22757,-0.91045 0,-1.07111c0.68271,-0.482 2.57911,0.80333 2.04812,1.33889c-0.60685,0.69622 -1.59298,0.58911 -2.04812,-0.26778z" id="svg_29"/>
   <path stroke="null" d="m248.13619,6736.95545c-0.83442,-0.16067 -1.06199,-0.64267 -0.83442,-1.71378c0.15172,-0.85689 -0.07585,-1.71378 -0.53099,-1.87445c-0.45514,-0.21422 -0.83442,-0.74978 -0.83442,-1.23178c0,-0.69622 0.22757,-0.69622 1.13784,-0.16067c0.68271,0.37489 0.98613,0.80333 0.83442,0.91045c-0.15172,0.16067 0.15172,1.17822 0.68271,2.35645c0.60685,1.12467 0.98613,2.03511 0.91028,2.03511c-0.07585,-0.05356 -0.68271,-0.16067 -1.36541,-0.32133l0,0z" id="svg_30"/>
   <path stroke="null" d="m223.17947,6735.4559c-0.83442,-0.69622 -0.75856,-0.74978 0.30342,-0.482c0.68271,0.16067 1.2137,0.53556 1.2137,0.80333c0,0.69622 -0.45514,0.58911 -1.51713,-0.32133l0.00001,0z" id="svg_31"/>
   <path stroke="null" d="m242.52283,6735.72368c-0.30342,-0.32133 -0.22757,-0.85689 0.22757,-1.17822c0.45514,-0.32133 0.91028,-0.32133 1.28956,0.10711c0.30342,0.32133 0.22757,0.85689 -0.22757,1.17822c-0.45514,0.32133 -0.91028,0.32133 -1.28956,-0.10711z" id="svg_32"/>
   <path stroke="null" d="m233.79936,6734.11701c0,-0.26778 0.37928,-0.53556 0.75856,-0.53556c0.45514,0 0.75856,0.26778 0.75856,0.53556c0,0.32133 -0.30342,0.53556 -0.75856,0.53556c-0.37928,0 -0.75856,-0.21422 -0.75856,-0.53556z" id="svg_33"/>
   <path stroke="null" d="m238.0473,6734.00989c0.22757,-0.21422 0.68271,-0.42845 1.13784,-0.42845c0.37928,0 0.68271,0.21422 0.68271,0.42845c0,0.26778 -0.53099,0.482 -1.13784,0.482c-0.60685,0 -0.91028,-0.21422 -0.68271,-0.482z" id="svg_34"/>
   <path stroke="null" d="m80.03863,6730.58233c1.2137,-0.42845 1.8964,-1.07111 1.59298,-1.39245c-0.30342,-0.32133 -0.22757,-0.42845 0.30342,-0.21422c0.45514,0.16067 0.98613,0.10711 1.28956,-0.21422c0.22757,-0.26778 0.83442,-0.53556 1.2137,-0.53556c0.45514,0 0.53099,0.26778 0.30342,0.53556c-0.22757,0.32133 0.07585,0.53556 0.68271,0.53556c0.68271,0 1.2137,0.21422 1.2137,0.53556c0,0.53556 -4.77895,1.60667 -7.20635,1.60667c-1.28956,-0.05356 -1.13784,-0.16067 0.60685,-0.85689l0,0l0.00001,-0.00001z" id="svg_35"/>
   <path stroke="null" d="m237.66803,6721.47788c0,-0.58911 0.22757,-0.74978 0.45514,-0.32133c0.22757,0.37489 0.15172,0.85689 -0.07585,1.01756c-0.22757,0.21422 -0.45514,-0.10711 -0.37928,-0.69622l0,-0.00001z" id="svg_36"/>
   <path stroke="null" d="m98.54757,6679.81162c-0.30342,-0.53556 -0.37928,-1.12467 -0.15172,-1.28534c0.68271,-0.482 1.28956,0.32133 0.98613,1.33889c-0.22757,0.91045 -0.30342,0.91045 -0.83442,-0.05356l0.00001,0.00001z" id="svg_37"/>
   <path stroke="null" d="m186.76844,6674.67028c0,-0.37489 -0.53099,-0.482 -1.2137,-0.32133c-0.83442,0.21422 -1.13784,0.10711 -0.83442,-0.42845c0.30342,-0.53556 0.07585,-0.69622 -0.60685,-0.53556c-1.44127,0.42845 -2.27569,-1.76734 -0.98613,-2.892c0.91028,-0.80333 0.83442,-0.85689 -0.30342,-0.16067c-0.75856,0.37489 -1.8964,0.53556 -2.57911,0.37489c-1.06199,-0.26778 -1.06199,-0.482 -0.22757,-1.23178c0.60685,-0.53556 0.68271,-0.74978 0.15172,-0.53556c-0.98613,0.42845 -4.47553,-1.82089 -5.99264,-3.85601c-0.83442,-1.07111 -0.75856,-1.55311 0.22757,-2.94556l1.2137,-1.66022l-1.66884,1.01756l-1.59298,1.01756l0.45514,-1.76734c0.53099,-1.71378 0.45514,-1.71378 -1.28956,-1.07111c-1.66884,0.64267 -1.7447,0.64267 -0.75856,-0.21422c0.68271,-0.53556 0.83442,-1.07111 0.37928,-1.28534c-0.37928,-0.21422 -0.68271,-2.03511 -0.68271,-4.12379c0,-2.03511 -0.30342,-3.90956 -0.68271,-4.12379c-0.45514,-0.21422 -0.37928,-0.69622 0.22757,-1.17822c0.68271,-0.58911 0.75856,-0.85689 0.15172,-0.85689c-0.60685,0 -0.53099,-0.53556 0.22757,-1.82089c0.98613,-1.66022 0.98613,-1.82089 -0.07585,-1.55311c-0.91028,0.26778 -1.06199,0.16067 -0.53099,-0.42845c0.30342,-0.42845 0.60685,-1.28534 0.68271,-1.87445c0,-0.64267 0.60685,-1.66022 1.36541,-2.24934c1.06199,-0.80333 1.13784,-1.12467 0.37928,-1.33889c-0.75856,-0.21422 -0.75856,-0.32133 0,-0.32133c0.45514,-0.05356 0.91028,-0.32133 0.91028,-0.58911c0,-0.32133 -0.83442,-0.42845 -2.04812,-0.21422c-1.7447,0.32133 -1.8964,0.21422 -1.51713,-0.64267c0.45514,-0.85689 0.37928,-0.91045 -0.45514,-0.21422c-0.53099,0.42845 -1.7447,1.28534 -2.80668,1.87445c-1.51713,0.85689 -1.66884,0.85689 -0.83442,0.10711c1.7447,-1.60667 0.37928,-1.60667 -1.82055,0c-1.66884,1.17822 -1.97227,1.28534 -1.51713,0.42845c1.44127,-2.78489 1.7447,-4.01667 1.06199,-4.28445c-0.37928,-0.21422 -0.68271,-0.05356 -0.68271,0.21422c0,0.32133 -0.30342,0.58911 -0.75856,0.58911c-0.37928,0 -0.53099,-0.37489 -0.30342,-0.80333c0.30342,-0.42845 0.07585,-0.80333 -0.30342,-0.80333c-0.45514,0 -0.98613,0.42845 -1.13784,0.964c-0.15172,0.482 -0.37928,0.21422 -0.37928,-0.69622c0,-0.85689 -0.15172,-2.03511 -0.30342,-2.51712c-0.30342,-0.964 -1.59298,-2.14223 -1.36541,-1.23178c0.07585,0.32133 0.07585,1.01756 0,1.60667c-0.07585,0.80333 -0.45514,0.53556 -1.51713,-0.964c-0.68271,-1.12467 -2.27569,-2.73134 -3.48939,-3.53467c-2.65497,-1.76734 -4.47553,-4.01667 -5.23409,-6.48023c-0.53099,-1.66022 -0.45514,-1.76734 0.68271,-1.12467c1.51713,0.91045 1.51713,0.53556 0.07585,-1.928c-1.28956,-2.14223 -1.51713,-3.90956 -0.45514,-3.90956c0.37928,0 0.53099,-0.964 0.37928,-2.14223c-0.15172,-1.23178 0.07585,-2.14223 0.53099,-2.14223c0.45514,0 0.60685,-0.21422 0.37928,-0.482c-0.60685,-0.69622 0.30342,-2.24934 1.13784,-1.87445c0.37928,0.16067 0.68271,-0.10711 0.68271,-0.53556c0,-1.07111 1.06199,-1.07111 2.27569,-0.05356c1.36541,1.12467 1.82055,0.58911 0.75856,-0.80333c-0.75856,-1.01756 -0.68271,-1.07111 0.53099,-0.64267c2.19984,0.80333 5.08237,1.55311 5.76508,1.49956c0.37928,0 1.06199,0.53556 1.66884,1.23178l0.98613,1.28534l0.45514,-1.12467c0.68271,-1.49956 1.36541,-1.49956 4.09624,0.16067c1.44127,0.80333 2.50326,1.12467 2.80668,0.80333c0.83442,-0.91045 1.8964,-0.58911 2.65497,0.80333c0.60685,1.17822 1.06199,1.28534 3.41353,1.07111c2.04812,-0.16067 2.65497,-0.05356 2.65497,0.64267c0,0.64267 0.22757,0.69622 1.06199,0.21422c1.51713,-0.91045 6.75121,-0.21422 6.22021,0.80333c-0.30342,0.58911 0.37928,0.74978 2.88254,0.74978c1.8964,0 3.48939,0.16067 3.6411,0.42845c0.15172,0.21422 1.2137,0.91045 2.4274,1.60667c1.82055,1.01756 1.97227,1.17822 0.75856,1.23178c-0.83442,0.05356 0.30342,0.26778 2.35154,0.482c2.12397,0.26778 5.46165,0.85689 7.43392,1.33889c2.88254,0.74978 3.6411,1.17822 3.33768,1.928c-0.30342,0.80333 0.15172,1.07111 2.19984,1.33889c1.44127,0.16067 2.80668,0.58911 3.11011,0.964c0.91028,0.964 1.06199,5.08779 0.30342,7.06935c-0.45514,1.12467 -0.45514,1.82089 0,1.82089c1.06199,0 0.83442,1.928 -0.37928,2.67778c-0.60685,0.32133 -0.91028,0.964 -0.68271,1.39245c0.22757,0.42845 0,0.74978 -0.53099,0.74978c-0.53099,0 -0.75856,0.37489 -0.45514,0.85689c0.53099,1.01756 -2.27569,4.49867 -3.56525,4.49867c-0.53099,0 -0.30342,0.37489 0.45514,0.74978c1.7447,0.964 1.06199,3.15978 -1.44127,4.33801c-0.98613,0.42845 -1.82055,1.12467 -1.82055,1.446c0,0.32133 0.68271,0.16067 1.51713,-0.37489c0.83442,-0.53556 1.51713,-0.74978 1.51713,-0.482c-0.07585,0.74978 -1.97227,2.35645 -2.50326,2.03511c-0.22757,-0.16067 -0.83442,-0.16067 -1.28956,0.05356c-0.60685,0.26778 -0.60685,0.58911 0.07585,1.12467c0.68271,0.58911 0.45514,1.17822 -0.91028,2.62423c-0.98613,1.01756 -2.27569,1.76734 -2.73083,1.60667c-0.53099,-0.10711 -1.36541,0.26778 -1.82055,0.91045c-0.75856,0.964 -0.68271,1.07111 0.53099,0.74978c1.36541,-0.32133 1.36541,-0.26778 0.15172,0.42845c-0.75856,0.37489 -1.36541,0.85689 -1.36541,1.07111c0,0.16067 -1.2137,1.49956 -2.65497,2.94556c-1.44127,1.39245 -2.65497,2.78489 -2.65497,2.99912c0,0.21422 -1.2137,1.446 -2.65497,2.73134c-2.80668,2.41 -4.47553,4.82001 -3.79282,5.56979c0.22757,0.26778 0,0.64267 -0.45514,0.85689c-0.60685,0.26778 -0.60685,0.482 0.07585,0.74978c0.68271,0.26778 0.68271,0.482 0.07585,0.74978c-0.45514,0.21422 -0.83442,0.10711 -0.83442,-0.21422l0,0l-0.00001,-0.00002zm18.20551,-22.86824c0,-0.37489 -0.22757,-0.69622 -0.45514,-0.69622c-0.91028,0 -2.57911,1.55311 -2.57911,2.46356c0,0.85689 0.07585,0.85689 1.51713,-0.05356c0.83442,-0.53556 1.51713,-1.28534 1.51713,-1.71378l0,0l-0.00001,0z" id="svg_38"/>
   <path stroke="null" d="m83.52802,6666.79761c-0.98613,-0.85689 -0.91028,-0.91045 0.30342,-0.21422c1.2137,0.69622 1.59298,1.12467 0.98613,1.12467c-0.15172,0 -0.75856,-0.42845 -1.28956,-0.91045l0.00001,0z" id="svg_39"/>
   <path stroke="null" d="m220.5245,6631.29023c-0.22757,-0.26778 0.30342,-1.60667 1.2137,-2.99912c1.2137,-1.87445 1.7447,-2.35645 2.27569,-1.76734c0.98613,1.07111 0.83442,1.55311 -0.45514,1.55311c-0.75856,0 -1.13784,0.53556 -1.13784,1.55311c0,1.66022 -1.06199,2.62423 -1.8964,1.66022l0,0.00002z" id="svg_40"/>
   <path stroke="null" d="m229.24798,6621.436c0,-0.42845 0.53099,-0.85689 1.13784,-1.07111c0.98613,-0.21422 1.06199,-0.10711 0.37928,0.74978c-0.98613,1.23178 -1.51713,1.39245 -1.51713,0.32133z" id="svg_41"/>
   <path stroke="null" d="m94.60304,6578.21663c-0.83442,-0.91045 0.07585,-1.12467 1.13784,-0.21422c0.60685,0.482 0.60685,0.80333 0.15172,0.80333c-0.45514,0 -1.06199,-0.26778 -1.28956,-0.58911l0,0z" id="svg_42"/>
   <path stroke="null" d="m104.9195,6574.68195c0.53099,-0.64267 1.13784,-1.07111 1.36541,-0.91045c0.22757,0.10711 -0.22757,0.64267 -0.98613,1.17822c-1.28956,0.85689 -1.36541,0.85689 -0.37928,-0.26778l0,0.00001z" id="svg_43"/>
   <path stroke="null" d="m187.60287,6501.36433c0,-0.58911 0.22757,-0.74978 0.45514,-0.32133c0.22757,0.37489 0.15172,0.85689 -0.07585,1.01756c-0.22757,0.21422 -0.45514,-0.10711 -0.37928,-0.69622l0,-0.00001z" id="svg_44"/>
   <path stroke="null" d="m230.23411,6491.6172c-1.28956,-0.58911 -1.51713,-2.35645 -0.30342,-2.67778c0.68271,-0.16067 0.83442,0 0.53099,0.37489c-0.30342,0.37489 -0.15172,1.01756 0.37928,1.446c1.06199,0.85689 0.68271,1.39245 -0.60685,0.85689z" id="svg_45"/>
   <path stroke="null" d="m98.92685,6465.85696c-2.80668,-1.82089 -3.11011,-2.73134 -0.91028,-2.73134c0.98613,0 2.04812,0.74978 3.03425,2.14223c1.82055,2.57067 1.2137,2.73134 -2.12397,0.58911l0,0z" id="svg_46"/>
   <path stroke="null" d="m83.9073,6463.17917c-3.18596,-1.39245 -3.6411,-2.03511 -1.7447,-2.35645c1.06199,-0.21422 1.51713,-0.58911 1.2137,-1.07111c-0.22757,-0.42845 0.07585,-1.23178 0.68271,-1.82089c0.98613,-0.91045 1.06199,-0.85689 0.60685,0.53556c-0.37928,1.07111 0,1.928 1.51713,3.26689c1.06199,1.01756 1.97227,1.98156 1.97227,2.14223c0,0.64267 -1.97227,0.26778 -4.24796,-0.69622l0,0l0,-0.00001z" id="svg_47"/>
   <path stroke="null" d="m112.42927,6461.14406c0.91028,-0.85689 1.82055,-1.39245 2.04812,-1.33889c0.22757,0.10711 0.68271,-0.10711 1.06199,-0.53556c0.37928,-0.42845 0,-1.39245 -0.83442,-2.46356c-0.83442,-0.964 -1.51713,-2.14223 -1.51713,-2.57067c0,-0.42845 -0.30342,-0.74978 -0.75856,-0.74978c-0.37928,0 -0.75856,-0.482 -0.75856,-1.07111c0,-0.58911 0.45514,-1.07111 1.06199,-1.07111c0.53099,0 1.2137,-0.482 1.44127,-1.01756c0.22757,-0.74978 0.07585,-0.964 -0.68271,-0.74978c-0.60685,0.16067 -1.06199,0.482 -1.06199,0.80333c0,0.26778 -0.45514,0.26778 -1.2137,0c-0.68271,-0.26778 -1.8964,-0.37489 -2.73083,-0.21422c-1.28956,0.21422 -1.36541,0.32133 -0.22757,1.55311c1.36541,1.39245 0.83442,2.57067 -0.45514,1.23178c-0.60685,-0.58911 -0.68271,-0.482 -0.30342,0.482c0.37928,0.85689 0.30342,1.12467 -0.30342,0.91045c-0.53099,-0.26778 -0.68271,-0.05356 -0.37928,0.42845c0.75856,1.446 -3.03425,1.01756 -5.30994,-0.53556c-1.36541,-0.964 -1.97227,-1.17822 -1.97227,-0.64267c0,0.42845 0.68271,1.23178 1.59298,1.82089c1.44127,0.91045 4.47553,4.49867 4.47553,5.30201c0,0.21422 -0.98613,-0.16067 -2.27569,-0.80333c-1.2137,-0.64267 -2.27569,-1.446 -2.27569,-1.76734c0,-0.37489 -1.36541,-1.49956 -3.03425,-2.51712c-2.73083,-1.66022 -3.11011,-2.19578 -3.33768,-4.7129c-0.30342,-2.62423 -0.15172,-2.83845 1.66884,-3.15978c1.06199,-0.16067 9.10276,-0.16067 17.90209,0c19.2675,0.37489 21.23976,0.69622 16.38496,2.67778c-1.51713,0.64267 -2.27569,1.39245 -2.27569,2.24934c0,0.80333 -0.37928,1.23178 -0.91028,1.07111c-0.53099,-0.16067 -1.59298,0.42845 -2.27569,1.33889c-0.98613,1.23178 -1.82055,1.60667 -3.71696,1.60667c-1.97227,0 -2.27569,0.10711 -1.44127,0.80333c1.2137,1.01756 0.22757,1.98156 -1.59298,1.60667c-0.83442,-0.21422 -1.44127,-0.10711 -1.44127,0.26778c0,0.80333 -3.79282,3.21334 -5.08237,3.21334c-0.83442,0 -0.68271,-0.37489 0.53099,-1.446l0,0l-0.00002,0.00001zm4.17209,-11.30023c-0.60685,-0.42845 -1.8964,1.07111 -1.44127,1.60667c0.22757,0.21422 -0.15172,0.42845 -0.91028,0.42845c-0.98613,0 -0.83442,0.21422 0.53099,1.01756l1.82055,1.01756l0.22757,-1.87445c0.15172,-1.01756 0.07585,-2.03511 -0.22757,-2.19578l0,-0.00001z" id="svg_48"/>
   <path stroke="null" d="m213.84915,6461.84028c-0.30342,-0.58911 0.07585,-1.55311 1.06199,-2.51712c1.7447,-1.71378 2.80668,-1.76734 1.59298,-0.10711c-0.45514,0.53556 -1.06199,1.55311 -1.44127,2.24934c-0.60685,1.17822 -0.75856,1.17822 -1.2137,0.37489l-0.00001,0z" id="svg_49"/>
   <path stroke="null" d="m90.96194,6460.44785c-1.06199,-0.85689 -2.35154,-1.60667 -2.88254,-1.60667c-0.53099,0 -0.68271,-0.42845 -0.37928,-1.17822c0.22757,-0.69622 0.45514,-1.55311 0.45514,-1.87445c0,-1.23178 1.36541,-0.74978 2.19984,0.80333c1.51713,2.51712 3.18596,4.39156 3.94452,4.39156c0.37928,0 0.68271,0.26778 0.68271,0.53556c0,1.07111 -2.19984,0.482 -4.02039,-1.07111l0.00001,0z" id="svg_50"/>
   <path stroke="null" d="m211.80102,6456.91317c-0.75856,-0.58911 -0.83442,-1.07111 -0.30342,-1.71378c1.13784,-1.23178 2.57911,-1.446 2.57911,-0.37489c0,0.64267 0.37928,0.80333 1.2137,0.58911c1.66884,-0.42845 0.98613,0.74978 -0.98613,1.66022c-1.28956,0.64267 -1.66884,0.58911 -2.50326,-0.16067l0,0l0,0.00001z" id="svg_51"/>
   <path stroke="null" d="m92.70663,6456.43117c-0.45514,-0.42845 -0.75856,-1.01756 -0.60685,-1.39245c0.15172,-0.32133 0.68271,0 1.2137,0.80333c0.98613,1.55311 0.75856,1.76734 -0.60685,0.58911l0,0l0.00001,0.00001z" id="svg_52"/>
   <path stroke="null" d="m200.19501,6456.05628c0.30342,-1.17822 0.30342,-1.17822 -0.75856,-0.26778c-1.36541,1.17822 -2.4274,0.37489 -1.82055,-1.39245c0.45514,-1.28534 -1.28956,-3.15978 -3.48939,-3.7489c-0.75856,-0.21422 -1.28956,-0.69622 -1.13784,-1.07111c0.30342,-0.482 4.62723,-0.69622 17.52281,-0.80333c9.48204,-0.05356 17.21938,0.05356 17.21938,0.32133c0,0.21422 -0.68271,0.80333 -1.51713,1.33889c-0.83442,0.482 -1.51713,1.28534 -1.51713,1.82089c0,0.69622 -0.22757,0.74978 -0.91028,0.26778c-0.53099,-0.37489 -1.36541,-0.64267 -1.8964,-0.64267c-0.83442,0 -0.83442,0.21422 -0.07585,1.01756c0.53099,0.58911 1.2137,0.91045 1.51713,0.80333c0.30342,-0.16067 0.60685,0.10711 0.60685,0.53556c0,0.964 -1.51713,1.71378 -1.59298,0.74978c0,-0.37489 -0.37928,-0.10711 -0.75856,0.58911c-0.37928,0.69622 -1.13784,1.12467 -1.7447,0.964c-0.53099,-0.16067 -1.36541,-0.05356 -1.82055,0.26778c-0.53099,0.37489 -0.68271,-0.26778 -0.37928,-2.19578c0.22757,-1.82089 0.07585,-2.73134 -0.45514,-2.73134c-0.53099,0 -1.06199,0.32133 -1.28956,0.74978c-0.37928,0.69622 -3.33768,1.01756 -3.33768,0.32133c0,-0.16067 -0.83442,-0.91045 -1.7447,-1.71378c-1.8964,-1.55311 -6.90292,-2.46356 -8.79933,-1.55311c-1.2137,0.58911 -0.45514,1.66022 1.2137,1.66022c0.98613,0 1.13784,0.42845 0.68271,2.46356c-0.53099,2.99912 -0.91028,3.42756 -2.73083,3.42756c-1.06199,0 -1.28956,-0.32133 -0.98613,-1.17822l0,0l0,0.00001z" id="svg_53"/>
   <path stroke="null" d="m226.21372,6457.07384c0,-0.69622 2.65497,-5.56979 3.18596,-5.99823c0.53099,-0.37489 0.60685,-0.16067 0.37928,0.53556c-0.22757,0.58911 -0.83442,2.08867 -1.28956,3.37401c-0.45514,1.23178 -1.13784,2.24934 -1.51713,2.24934c-0.45514,0 -0.75856,-0.05356 -0.75856,-0.16067l0,0l0,-0.00001z" id="svg_54"/>
   <path stroke="null" d="m91.26536,6453.16428c0,-0.58911 0.22757,-0.74978 0.45514,-0.32133c0.22757,0.37489 0.15172,0.85689 -0.07585,1.01756c-0.22757,0.21422 -0.45514,-0.10711 -0.37928,-0.69622l0,-0.00001z" id="svg_55"/>
  </g>
  <text fill="#ff9900" stroke-width="0" x="-23.41984" y="38.78695" id="svg_56" font-size="24" font-family="'Alumni Sans'" text-anchor="start" xml:space="preserve" transform="matrix(0.970335 0 0 1.65963 54.5224 -35.0285)" font-style="italic" font-weight="normal" stroke="#62612C">TOTO pizza</text>
  <line fill="none" x1="88.34611" y1="4.42312" x2="88.34611" y2="4.11543" id="svg_63" stroke="url(#svg_58)"/>
  <line fill="none" x1="103.42299" y1="-2.65378" x2="104.03837" y2="-2.65378" id="svg_64" stroke="url(#svg_58)"/>
 </g>
</svg>