<svg width="147" height="35" xmlns="http://www.w3.org/2000/svg" stroke="null" preserveAspectRatio="xMidYMid meet">
 <g stroke="null">
  <title stroke="null">background</title>
  <rect stroke="null" fill="none" id="canvas_background" height="37" width="149" y="-1" x="-1"/>
 </g>
 <defs stroke="null">
  <linearGradient id="svg_58" x1="0" y1="0" x2="1" y2="1">
   <stop stop-color="#ff006a" offset="0.40234"/>
   <stop stop-color="#00ff95" offset="1"/>
  </linearGradient>
 </defs>
 <g stroke="null">
  <title stroke="null">Layer 1</title>
  <path transform="rotate(179.475 73.6648 30.4862)" stroke="url(#svg_58)" id="svg_70" d="m-4.32958,-4.30677l155.98875,0l0,69.58596l-155.98875,0l0,-69.58596z" opacity="undefined" stroke-width="0" fill="url(#svg_58)" fill-opacity="0.3"/>
  <g stroke="null" transform="rotate(-0.52906 13.8678 18.1917) translate(0 680) scale(0.1 -0.1)" id="svg_1" fill="#000000" stroke-width="0">
   <path stroke="null" id="svg_2" d="m157.279,6771.75752c0,-0.24496 -1.19252,-0.29395 -2.65005,-0.09798c-2.91506,0.34294 -11.46147,-0.78387 -14.37652,-1.91068c-0.99377,-0.39194 -2.25254,-0.73487 -2.7163,-0.73487c-0.46376,0 -2.5838,-0.5879 -4.63759,-1.32277c-2.05379,-0.73487 -3.90883,-1.32277 -4.10758,-1.32277c-0.79502,-0.09798 -7.55265,-3.23345 -6.95638,-3.23345c0.39751,0 -0.33126,-0.39194 -1.59003,-0.88185c-1.25877,-0.44092 -2.5838,-1.27379 -2.9813,-1.7637c-0.39751,-0.53891 -1.25877,-1.42076 -1.85503,-1.95967c-1.12627,-0.88185 -1.78878,-0.97983 -7.15514,-0.83286c-5.83011,0.14698 -11.26273,-0.09798 -11.59397,-0.48992c-0.265,-0.24496 0.19875,-1.07781 0.99377,-1.86168c0.79502,-0.88185 1.06002,-1.56773 0.72876,-1.7637c-0.39751,-0.14698 -0.19875,-0.97983 0.59626,-2.10664c2.38505,-3.47841 4.70384,-7.98564 4.30633,-8.42657c-0.265,-0.29395 -0.13251,-0.48992 0.265,-0.48992c0.99377,0 1.72254,1.07781 1.52378,2.44958c-0.13251,1.17581 -0.13251,1.17581 0.92752,-0.24496c1.39127,-1.81269 1.78878,-7.29976 0.46376,-6.31993c-1.06002,0.78387 -2.8488,0.39194 -2.8488,-0.63689c0,-0.63689 -0.19875,-0.63689 -1.65628,0.049c-1.19252,0.5879 -3.31257,0.78387 -7.7514,0.83286c-5.63135,0.049 -6.02886,0.09798 -4.50509,0.68589c1.52378,0.63689 1.52378,0.68589 0.33126,0.78387c-1.12627,0.049 -1.06002,0.09798 0.33126,0.44092l1.65628,0.39194l-1.65628,0.049c-0.99377,0.049 -2.12004,-0.24496 -2.65005,-0.53891c-0.53001,-0.34294 -0.39751,-0.14698 0.265,0.48992c0.72876,0.5879 0.92752,1.07781 0.53001,1.07781c-0.39751,0 -0.92752,-0.19596 -1.12627,-0.48992c-0.19875,-0.24496 -0.72876,-0.48992 -1.06002,-0.48992c-0.33126,0 -0.13251,0.53891 0.46376,1.22479c0.92752,1.07781 0.92752,1.22479 0.06625,1.22479c-1.78878,0 -5.1676,2.89051 -4.77009,4.06631c0.33126,0.83286 -0.06625,1.22479 -1.59003,1.71471c-1.12627,0.39194 -2.31879,0.53891 -2.7163,0.34294c-0.33126,-0.14698 -1.45753,0.049 -2.45129,0.44092l-1.85503,0.73487l1.85503,0.049l1.85503,0l-1.85503,1.17581c-1.25877,0.83286 -2.12004,1.02883 -2.65005,0.68589c-0.72876,-0.44092 -3.51132,0.24496 -3.51132,0.88185c0,0.09798 0.59626,0 1.32503,-0.29395c1.25877,-0.48992 1.32503,-0.48992 0.53001,0.44092c-0.46376,0.5879 -1.06002,1.02883 -1.39127,1.02883c-0.265,0 -0.33126,0.19596 -0.13251,0.48992c0.19875,0.29395 -0.06625,0.34294 -0.59626,0.19596c-1.19252,-0.34294 -2.7163,1.95967 -1.98754,2.84152c0.265,0.34294 0.13251,0.39194 -0.33126,0.19596c-0.39751,-0.19596 -0.59626,-0.78387 -0.39751,-1.32277c0.33126,-0.73487 0.19875,-0.88185 -0.79502,-0.63689c-0.66251,0.14698 -0.19875,-0.39194 1.12627,-1.27379c1.25877,-0.88185 1.78878,-1.42076 1.19252,-1.27379c-0.59626,0.09798 -1.25877,0 -1.45753,-0.34294c-0.13251,-0.34294 -0.33126,-0.09798 -0.33126,0.53891c-0.06625,0.63689 -0.33126,1.02883 -0.66251,0.88185c-0.33126,-0.14698 -0.92752,0.39194 -1.39127,1.17581c-0.46376,0.83286 -1.06002,1.46975 -1.39127,1.46975c-0.33126,0 -0.59626,0.19596 -0.59626,0.48992c0,0.24496 0.46376,0.34294 0.99377,0.19596c0.53001,-0.19596 0.99377,-0.049 0.99377,0.29395c0,0.29395 -0.265,0.44092 -0.59626,0.29395c-0.33126,-0.19596 -0.79502,0 -0.92752,0.29395c-0.265,0.48992 -0.39751,0.48992 -0.39751,0c-0.06625,-0.34294 -0.33126,-0.48992 -0.72876,-0.34294c-0.92752,0.44092 -0.79502,-0.049 0.39751,-1.86168l1.12627,-1.56773l-1.45753,0.93085c-1.39127,0.93085 -1.39127,0.93085 -1.39127,0c0,-0.78387 -0.13251,-0.78387 -0.66251,-0.19596c-0.33126,0.44092 -0.33126,0.93085 0.06625,1.32277c0.99377,0.83286 0.06625,2.89051 -0.92752,2.15564c-0.59626,-0.44092 -0.53001,-0.68589 0.13251,-0.97983c0.66251,-0.34294 0.72876,-0.48992 0,-0.78387c-0.53001,-0.24496 -1.39127,0.09798 -2.38505,1.02883c-0.86127,0.78387 -1.39127,1.07781 -1.19252,0.63689c0.59626,-1.22479 -0.79502,-1.61673 -1.65628,-0.44092c-0.72876,1.02883 -1.98754,1.32277 -1.98754,0.44092c0,-0.24496 0.265,-0.39194 0.59626,-0.24496c0.53001,0.24496 0.92752,-0.5879 1.52378,-3.38043c0.13251,-0.53891 0.66251,-1.32277 1.19252,-1.71471c0.59626,-0.39194 0.72876,-0.5879 0.265,-0.34294c-0.39751,0.19596 -1.25877,0.24496 -1.85503,0.049c-0.72876,-0.19596 -1.06002,-0.049 -1.06002,0.48992c0,0.53891 -0.59626,0.78387 -1.92129,0.78387c-1.06002,0 -2.25254,0.34294 -2.7163,0.78387c-0.53001,0.39194 -1.52378,0.97983 -2.25254,1.22479c-0.86127,0.34294 -0.59626,0.049 0.59626,-0.73487c1.12627,-0.68589 1.72254,-1.22479 1.45753,-1.27379c-0.265,0 -0.13251,-0.48992 0.33126,-1.07781c0.99377,-1.42076 1.25877,-2.44958 0.46376,-2.05766c-0.33126,0.14698 -0.59626,0 -0.59626,-0.24496c0,-0.29395 -0.33126,-0.53891 -0.72876,-0.53891c-0.39751,0 -0.53001,0.39194 -0.265,0.93085c0.19875,0.53891 -0.19875,1.37177 -0.92752,2.05766c-0.79502,0.68589 -1.32503,0.88185 -1.39127,0.53891c0,-0.34294 -0.33126,-0.48992 -0.79502,-0.29395c-0.46376,0.19596 -0.53001,0.14698 -0.265,-0.24496c0.265,-0.29395 0.72876,-0.44092 1.06002,-0.29395c0.53001,0.24496 1.65628,-1.17581 1.39127,-1.86168c-0.06625,-0.24496 0.79502,-1.27379 1.92129,-2.30262c1.06002,-1.02883 1.98754,-2.05766 1.98754,-2.30262c0,-0.29395 0.72876,-1.07781 1.65628,-1.81269c0.86127,-0.68589 1.45753,-1.27379 1.32503,-1.27379c-0.06625,0 2.5838,-2.10664 6.02886,-4.65422c3.44506,-2.54757 6.55887,-4.65422 6.89014,-4.65422c0.39751,0 1.25877,-0.24496 1.98754,-0.5879c0.99377,-0.48992 1.52378,-0.44092 2.5838,0.29395c1.39127,0.93085 1.39127,0.93085 1.39127,-1.56773c0,-2.20462 -0.19875,-2.54757 -1.32503,-2.54757c-0.72876,0 -1.32503,-0.24496 -1.32503,-0.53891c0,-0.29395 0.46376,-0.39194 1.06002,-0.24496c0.53001,0.14698 0.79502,0.09798 0.59626,-0.19596c-0.39751,-0.44092 0.53001,-0.68589 1.92129,-0.53891c0.265,0.049 0.92752,-0.29395 1.45753,-0.78387c0.79502,-0.78387 0.86127,-0.83286 0.92752,-0.049c0,0.44092 -0.33126,0.97983 -0.66251,1.12681c-0.53001,0.24496 -0.46376,0.53891 0.06625,1.02883c0.99377,0.93085 2.18629,0.88185 1.65628,-0.09798c-0.19875,-0.39194 -0.13251,-0.5879 0.265,-0.44092c0.39751,0.14698 0.66251,-0.049 0.66251,-0.44092c0,-0.44092 0.33126,-0.78387 0.66251,-0.78387c0.39751,0 0.66251,-0.34294 0.66251,-0.73487c0,-0.39194 0.53001,-0.73487 1.19252,-0.73487c0.66251,0 1.52378,-0.24496 1.98754,-0.5879c1.06002,-0.78387 1.06002,0.19596 0,1.07781c-0.72876,0.5879 -0.66251,0.5879 0.33126,0.049c0.59626,-0.34294 1.12627,-0.97983 1.12627,-1.32277c0,-0.39194 0.46376,-0.68589 0.99377,-0.68589c0.53001,0 0.99377,-0.19596 0.99377,-0.48992c0,-0.24496 0.46376,-0.48992 0.99377,-0.48992c0.53001,0 0.99377,-0.19596 0.99377,-0.44092c0,-0.5879 4.17383,-0.14698 4.70384,0.53891c0.59626,0.73487 3.24631,-0.83286 3.24631,-1.91068c0,-0.88185 1.06002,-0.83286 1.59003,0.09798c0.19875,0.39194 0.92752,0.73487 1.59003,0.73487c2.5838,0 5.36635,3.47841 3.31257,4.06631c-0.46376,0.14698 0.66251,0.14698 2.45129,0.049l3.31257,-0.24496l-2.12004,0.73487c-1.19252,0.39194 -3.18006,1.07781 -4.50509,1.56773c-2.25254,0.78387 -2.31879,0.78387 -3.64382,-0.34294c-0.72876,-0.63689 -1.12627,-1.42076 -0.99377,-1.7637c0.19875,-0.44092 -0.33126,-0.53891 -1.85503,-0.29395c-1.19252,0.14698 -2.18629,0.34294 -2.31879,0.39194c-0.265,0.14698 2.05379,3.42943 2.78255,3.77237c1.19252,0.5879 4.50509,0.29395 7.15514,-0.68589c1.39127,-0.48992 2.8488,-0.88185 3.31257,-0.88185c0.46376,0 2.05379,-0.78387 3.51132,-1.7637c1.52378,-1.02883 2.12004,-1.61673 1.39127,-1.42076c-1.25877,0.29395 -1.25877,0.24496 -0.06625,-0.73487c1.19252,-0.97983 1.19252,-0.97983 -0.92752,-0.44092c-2.9813,0.78387 -3.24631,0.24496 -0.39751,-0.73487c2.38505,-0.83286 2.8488,-1.46975 1.59003,-2.00866c-0.39751,-0.19596 -0.53001,-0.63689 -0.33126,-0.97983c0.39751,-0.73487 -1.32503,-1.42076 -3.18006,-1.27379c-0.99377,0.09798 -1.12627,-0.049 -0.79502,-0.78387c1.45753,-2.69454 1.45753,-2.69454 -4.77009,-2.54757c-7.02264,0.19596 -8.41391,-0.09798 -11.46147,-2.54757c-2.8488,-2.25362 -4.24008,-2.3516 -7.08889,-0.53891c-1.72254,1.07781 -2.12004,1.71471 -2.25254,3.62539c-0.13251,1.32277 -0.46376,2.3516 -0.86127,2.3516c-0.79502,0 -4.96884,3.47841 -4.96884,4.1153c0,0.19596 0.59626,0.29395 1.39127,0.14698c1.32503,-0.24496 1.32503,-0.24496 0.13251,0.78387c-0.66251,0.5879 -1.52378,1.32277 -1.85503,1.61673c-0.39751,0.29395 -2.45129,1.17581 -4.57134,1.95967c-3.18006,1.12681 -3.64382,1.46975 -2.78255,1.91068c0.79502,0.44092 0.86127,0.68589 0.265,1.12681c-0.99377,0.73487 -2.05379,0.78387 -1.45753,0.049c0.265,-0.34294 0.06625,-0.48992 -0.46376,-0.34294c-0.46376,0.09798 -1.06002,0.73487 -1.32503,1.42076c-0.265,0.63689 -0.46376,1.02883 -0.53001,0.78387c-0.13251,-0.5879 -4.63759,2.64555 -5.0351,3.57639c-0.19875,0.44092 -0.99377,1.07781 -1.85503,1.42076c-1.59003,0.63689 -5.10135,4.01732 -5.10135,4.94816c0,0.34294 -1.98754,2.25362 -4.37259,4.31127c-2.5838,2.15564 -4.17383,3.91934 -3.97508,4.36026c0.19875,0.39194 -0.33126,1.27379 -1.25877,2.00866c-1.65628,1.27379 -2.38505,2.79253 -0.86127,1.66572c1.59003,-1.17581 2.05379,-0.53891 0.46376,0.73487c-0.86127,0.68589 -1.12627,1.12681 -0.59626,0.93085c0.53001,-0.19596 0.39751,0 -0.265,0.39194c-0.72876,0.44092 -1.06002,0.78387 -0.79502,0.78387c0.33126,0 0.06625,0.5879 -0.59626,1.27379c-1.06002,1.22479 -1.06002,1.22479 0.46376,0.63689c1.45753,-0.5879 1.45753,-0.53891 0.53001,0.34294c-0.53001,0.48992 -1.59003,1.32277 -2.31879,1.81269c-1.12627,0.78387 -1.12627,0.88185 -0.13251,0.63689c1.19252,-0.29395 1.59003,0.44092 0.46376,0.93085c-0.33126,0.14698 -0.66251,0.53891 -0.66251,0.83286c0,0.29395 0.59626,0.14698 1.32503,-0.34294c0.72876,-0.48992 1.32503,-0.68589 1.32503,-0.48992c0,0.24496 1.12627,-0.34294 2.45129,-1.27379c2.18629,-1.51874 2.31879,-1.51874 0.92752,-0.24496c-0.99377,0.97983 -1.19252,1.56773 -0.66251,1.7637c0.53001,0.29395 0.53001,0.68589 -0.06625,1.51874c-0.72876,1.02883 -0.59626,1.02883 1.25877,-0.29395c1.65628,-1.12681 2.05379,-1.27379 1.65628,-0.48992c-0.46376,0.93085 -0.46376,0.93085 0.86127,0.09798c1.32503,-0.83286 1.39127,-0.83286 1.72254,0.19596c0.33126,0.97983 0.53001,1.02883 1.52378,0.39194c0.86127,-0.53891 1.19252,-0.53891 1.39127,-0.049c0.19875,0.29395 0.66251,0.5879 1.06002,0.5879c0.33126,0 0.46376,-0.14698 0.265,-0.34294c-0.265,-0.14698 0.06625,-0.5879 0.72876,-0.93085c0.92752,-0.48992 1.32503,-0.48992 2.25254,0.14698c0.99377,0.63689 1.19252,0.63689 1.45753,0.09798c0.79502,-1.91068 1.06002,-1.95967 0.72876,-0.19596c-0.33126,1.7637 -0.265,1.86168 0.46376,0.88185c0.46376,-0.5879 1.06002,-1.02883 1.32503,-0.97983c0.265,0.049 0.92752,-0.34294 1.52378,-0.88185c0.92752,-0.83286 1.06002,-0.83286 0.72876,-0.09798c-0.59626,1.42076 0.86127,0.93085 2.25254,-0.73487c1.25877,-1.56773 1.32503,-1.56773 1.39127,-0.39194c0,1.12681 0.06625,1.12681 0.53001,0.24496c0.53001,-0.93085 0.59626,-0.88185 0.86127,0.24496l0.33126,1.22479l0.72876,-1.22479l0.72876,-1.22479l0.06625,1.22479c0,0.97983 0.13251,1.07781 0.72876,0.48992c0.53001,-0.53891 0.79502,-0.5879 1.06002,-0.09798c0.39751,0.73487 2.18629,0.78387 2.18629,0.049c0,-0.24496 -0.265,-0.34294 -0.66251,-0.19596c-0.79502,0.39194 -0.86127,-0.24496 -0.06625,-1.12681c0.39751,-0.48992 0.66251,-0.39194 0.92752,0.44092c0.46376,1.27379 -0.53001,2.4006 -2.12004,2.4006c-0.59626,0 -1.45753,0.24496 -1.85503,0.53891c-0.39751,0.29395 -1.92129,0.73487 -3.31257,0.93085c-1.39127,0.19596 -5.96262,1.02883 -10.2027,1.86168c-11.46147,2.20462 -18.94787,2.89051 -23.2542,2.10664c-4.83634,-0.78387 -7.68515,-2.3516 -8.21516,-4.36026c-0.72876,-2.79253 0.92752,-5.29111 6.95638,-10.38624c8.41391,-7.10379 10.66646,-9.11245 15.2378,-13.71767c5.23384,-5.24211 11.26273,-9.9943 15.56905,-12.3459c6.42637,-3.52741 7.02264,-4.01732 9.40768,-7.74068c0.59626,-0.93085 2.31879,-2.74354 3.84257,-3.96833c1.45753,-1.22479 3.57757,-3.03749 4.57134,-4.01732c1.06002,-1.02883 2.45129,-1.81269 3.18006,-1.81269c0.79502,0 1.12627,-0.19596 0.86127,-0.53891c-0.79502,-0.97983 7.7514,-0.34294 9.87144,0.68589c1.06002,0.53891 2.9813,1.02883 4.30633,1.12681l2.45129,0.19596l-1.92129,-0.68589c-1.52378,-0.53891 -1.65628,-0.68589 -0.72876,-0.97983c0.59626,-0.14698 1.45753,-0.14698 1.78878,0.049c0.46376,0.19596 0.53001,0.049 0.19875,-0.34294c-0.39751,-0.48992 -0.265,-0.5879 0.46376,-0.34294c0.59626,0.14698 1.59003,-0.049 2.31879,-0.39194c1.85503,-1.07781 2.51755,-0.83286 0.79502,0.29395c-0.86127,0.53891 -1.12627,0.83286 -0.59626,0.63689c0.53001,-0.19596 1.92129,-0.34294 3.11381,-0.29395c1.25877,0.09798 2.18629,-0.09798 2.18629,-0.44092c0,-0.29395 -0.46376,-0.44092 -0.99377,-0.24496c-0.59626,0.14698 -0.99377,0 -0.99377,-0.44092c0,-0.63689 1.65628,-0.97983 3.44506,-0.78387c0.265,0 0.33126,-0.29395 0.13251,-0.68589c-0.46376,-0.88185 -0.92752,-0.88185 -2.51755,0c-1.59003,0.88185 -2.51755,0.93085 -2.31879,0.14698c0.19875,-1.02883 -0.79502,-2.3516 -1.78878,-2.3516c-0.59626,0 -0.92752,-0.5879 -0.92752,-1.66572c0,-0.93085 -0.33126,-1.86168 -0.66251,-2.00866c-0.39751,-0.19596 -0.53001,-0.53891 -0.33126,-0.78387c0.19875,-0.24496 -0.19875,-0.88185 -0.86127,-1.42076c-1.52378,-1.22479 -2.8488,-5.43808 -2.51755,-8.08362c0.13251,-1.07781 -0.06625,-2.25362 -0.53001,-2.64555c-0.53001,-0.5879 -0.53001,-0.63689 0.13251,-0.34294c0.53001,0.24496 0.79502,0 0.79502,-0.78387c0,-0.83286 -0.19875,-0.93085 -0.59626,-0.44092c-0.92752,1.02883 -1.32503,-2.00866 -1.12627,-8.91649c0.13251,-6.12397 -0.33126,-8.18161 -1.52378,-6.80985c-0.39751,0.53891 -0.72876,0.48992 -1.65628,-0.14698c-1.59003,-1.22479 -2.5838,-2.69454 -1.72254,-2.69454c0.39751,0 1.06002,0.53891 1.45753,1.22479c0.79502,1.37177 1.85503,1.61673 1.85503,0.48992c0,-0.39194 -0.265,-0.73487 -0.66251,-0.73487c-0.33126,0 -1.12627,-1.07781 -1.78878,-2.44958c-0.66251,-1.32277 -1.39127,-2.44958 -1.65628,-2.44958c-0.72876,0 -0.66251,0.88185 0.13251,1.22479c0.39751,0.14698 0.66251,0.68589 0.66251,1.12681c0,0.53891 -0.46376,0.24496 -1.32503,-0.78387c-0.72876,-0.88185 -1.25877,-1.7637 -1.19252,-1.95967c0.19875,-0.63689 -0.86127,-3.52741 -1.32503,-3.52741c-0.265,0 -1.19252,-1.12681 -2.05379,-2.44958c-1.85503,-2.89051 -2.7163,-2.89051 -1.12627,0c0.59626,1.07781 0.92752,1.95967 0.72876,1.95967c-0.59626,0 -3.64382,-4.26228 -3.64382,-5.09514c0,-0.48992 -0.39751,-0.78387 -1.12627,-0.68589c-1.45753,0.19596 -4.30633,-3.38043 -3.97508,-4.89917c0.19875,-0.5879 0,-1.22479 -0.265,-1.37177c-0.86127,-0.39194 -0.72876,-2.15564 0.13251,-2.15564c0.53001,0 0.53001,-0.24496 -0.06625,-0.73487c-0.59626,-0.48992 -0.59626,-0.73487 -0.06625,-0.73487c0.39751,0 0.72876,-0.29395 0.72876,-0.68589c0,-0.39194 0.33126,-0.78387 0.72876,-0.88185c0.53001,-0.14698 0.59626,-1.02883 0.265,-2.79253c-0.33126,-1.7637 -0.66251,-2.4006 -1.06002,-1.95967c-0.39751,0.48992 -0.59626,0.53891 -0.59626,0.09798c0,-0.34294 -0.33126,-0.63689 -0.66251,-0.63689c-0.46376,0 -0.46376,0.39194 0.06625,1.07781c0.59626,0.83286 0.59626,1.12681 0,1.27379c-0.59626,0.14698 -0.59626,0.34294 0,0.88185c1.59003,1.42076 0.06625,1.12681 -1.78878,-0.39194c-1.25877,-0.97983 -1.52378,-1.42076 -0.72876,-1.22479c0.59626,0.19596 1.12627,0.14698 1.12627,-0.09798c0,-0.24496 -0.59626,-0.53891 -1.32503,-0.68589c-0.72876,-0.14698 -1.32503,-0.48992 -1.32503,-0.83286c0,-0.29395 0.33126,-0.39194 0.86127,-0.19596c0.39751,0.19596 0,-0.24496 -0.99377,-1.02883c-1.06002,-0.73487 -1.92129,-1.81269 -1.98754,-2.4006c-0.19875,-2.49858 -0.46376,-3.57639 -0.92752,-4.65422c-0.39751,-1.02883 -0.33126,-1.12681 0.92752,-0.93085c0.79502,0.19596 1.32503,0.09798 1.06002,-0.14698c-0.19875,-0.24496 -0.72876,-0.44092 -1.25877,-0.44092c-0.46376,0 -0.99377,-0.29395 -1.19252,-0.68589c-0.53001,-1.02883 -0.06625,-2.49858 0.79502,-2.3516c0.46376,0.049 0.39751,-0.29395 -0.19875,-0.97983c-0.79502,-0.93085 -1.45753,-3.38043 -1.12627,-4.31127c0.19875,-0.48992 0.86127,-7.6427 0.92752,-9.21043c0,-1.17581 0.265,-1.51874 0.92752,-1.32277c0.72876,0.19596 0.92752,-0.19596 0.86127,-1.61673c-0.06625,-0.97983 -0.06625,-1.91068 0,-2.05766c0.33126,-0.53891 0.79502,-3.33143 0.99377,-6.61387c0.13251,-1.86168 0.72876,-4.40926 1.32503,-5.63405c1.45753,-3.03749 8.21516,-12.73784 9.67269,-14.01163c0.72876,-0.53891 1.25877,-1.56773 1.25877,-2.30262c0,-0.73487 0.33126,-1.32277 0.66251,-1.32277c1.06002,0 2.18629,-2.30262 1.65628,-3.28245c-0.46376,-0.78387 -0.59626,-0.73487 -0.92752,0.34294c-0.46376,1.17581 -0.46376,1.17581 -1.98754,-0.68589c-0.86127,-1.02883 -1.65628,-2.74354 -1.72254,-3.82135c-0.19875,-2.9395 4.43883,-16.02029 7.95016,-22.4382c1.72254,-3.08648 3.37881,-6.41791 3.77632,-7.34875c0.33126,-0.93085 0.86127,-2.15564 1.19252,-2.69454c0.33126,-0.53891 0.72876,-1.51874 0.86127,-2.20462c1.06002,-3.77237 2.45129,-7.0548 3.11381,-7.34875c0.46376,-0.24496 0.66251,-0.78387 0.39751,-1.22479c-0.99377,-1.91068 3.37881,-5.04615 5.96262,-4.31127c1.12627,0.29395 1.25877,1.46975 0.19875,1.71471c-0.46376,0.09798 -0.46376,0.53891 0.06625,1.46975c0.79502,1.22479 0.59626,3.18447 -1.06002,11.41507c-0.13251,0.83286 -0.39751,2.05766 -0.46376,2.84152c-0.13251,0.73487 -0.53001,1.56773 -0.92752,1.86168c-0.46376,0.34294 -0.59626,1.66572 -0.39751,3.33143c0.265,2.25362 0.13251,2.98849 -0.79502,3.67438c-0.92752,0.68589 -1.12627,1.37177 -0.79502,3.47841c0.265,1.95967 0.06625,3.03749 -0.79502,4.21329c-1.52378,2.05766 -1.06002,3.87035 0.92752,3.87035c0.86127,0 1.72254,0.34294 1.92129,0.83286c0.39751,0.68589 0.79502,0.53891 2.78255,-0.88185c1.32503,-0.93085 2.78255,-2.25362 3.31257,-3.03749c0.53001,-0.73487 1.32503,-1.32277 1.85503,-1.32277c0.46376,0 1.39127,-0.44092 2.05379,-0.97983c0.66251,-0.53891 1.45753,-0.83286 1.72254,-0.68589c0.33126,0.14698 0.59626,-0.09798 0.59626,-0.48992c0,-0.39194 0.46376,-0.93085 1.12627,-1.17581c1.06002,-0.44092 2.31879,-4.7522 2.25254,-7.49572c-0.06625,-0.68589 0.39751,-2.25362 0.99377,-3.42943c0.86127,-1.66572 1.06002,-3.77237 0.99377,-9.11245c-0.06625,-4.50724 0.13251,-7.0548 0.59626,-7.25077c0.39751,-0.19596 1.78878,0.24496 3.04756,0.97983c1.25877,0.73487 3.18006,1.46975 4.24008,1.71471c1.65628,0.34294 2.05379,0.24496 3.04756,-0.88185c0.59626,-0.73487 1.52378,-1.51874 2.05379,-1.71471c0.46376,-0.19596 0.86127,-0.83286 0.86127,-1.37177c0,-0.48992 0.265,-1.32277 0.59626,-1.81269c2.25254,-3.33143 4.37259,-10.19027 3.77632,-12.49288c-0.265,-0.97983 -1.19252,-2.44958 -2.12004,-3.23345c-1.39127,-1.27379 -3.64382,-4.50724 -3.57757,-5.19312c0.06625,-0.5879 -1.06002,-1.51874 -2.8488,-2.3516c-1.39127,-0.68589 -1.72254,-1.12681 -1.39127,-2.05766c0.19875,-0.63689 0,-2.69454 -0.39751,-4.55624c-0.72876,-2.84152 -0.66251,-3.82135 0.265,-6.51589c1.25877,-3.77237 1.25877,-3.87035 0.39751,-3.87035c-0.33126,0 -0.66251,0.29395 -0.66251,0.68589c0,0.93085 -1.78878,2.25362 -3.04756,2.25362c-1.45753,0 -1.12627,-2.3516 0.66251,-5.14413c1.25877,-1.91068 1.72254,-2.25362 2.05379,-1.61673c0.66251,1.27379 1.59003,1.07781 2.38505,-0.39194c0.46376,-1.02883 0.39751,-1.51874 -0.39751,-2.15564c-0.53001,-0.44092 -0.99377,-1.61673 -0.99377,-2.64555c0,-1.12681 -0.33126,-1.91068 -0.99377,-2.05766c-0.53001,-0.19596 -0.99377,-0.83286 -0.99377,-1.51874c0,-0.93085 0.265,-1.17581 1.06002,-0.93085c0.59626,0.14698 2.18629,0.29395 3.51132,0.29395c2.31879,0 2.51755,0.09798 2.25254,1.12681c-0.39751,1.42076 1.06002,2.3516 2.9813,1.95967c1.85503,-0.34294 1.85503,-1.32277 0.06625,-2.25362c-1.19252,-0.63689 -0.265,-0.73487 9.14268,-1.02883c5.76386,-0.14698 14.24403,-0.44092 18.81537,-0.5879l8.34766,-0.29395l0.39751,1.17581c0.66251,1.81269 0.53001,2.69454 -0.59626,3.57639c-0.72876,0.48992 -0.99377,1.32277 -0.72876,2.3516c0.13251,0.83286 0.06625,2.15564 -0.265,2.89051c-0.39751,1.02883 -0.13251,1.91068 1.12627,3.57639c0.92752,1.22479 1.59003,2.69454 1.39127,3.28245c-0.19875,0.97983 -0.33126,0.93085 -0.79502,-0.44092c-0.265,-0.88185 -0.72876,-1.61673 -0.99377,-1.61673c-1.12627,0 -1.25877,2.44958 -0.53001,7.20177c0.66251,4.21329 0.59626,5.24211 -0.19875,6.31993c-0.53001,0.78387 -0.92752,2.64555 -0.86127,4.55624c0,2.69454 -0.13251,2.98849 -0.66251,1.91068c-0.33126,-0.78387 -0.86127,-1.37177 -1.19252,-1.37177c-0.265,0 -0.53001,-0.39194 -0.53001,-0.83286c-0.06625,-0.97983 -1.92129,-3.62539 -1.98754,-2.84152c-0.72876,4.36026 -0.59626,8.03464 0.33126,9.65136c0.53001,1.02883 0.99377,2.44958 0.99377,3.18447c0,1.37177 2.91506,4.06631 4.37259,4.06631c0.46376,0 1.06002,0.73487 1.25877,1.56773c0.265,0.88185 0.79502,1.86168 1.12627,2.20462c1.59003,1.46975 3.18006,9.84732 3.24631,17.04912c0.06625,14.1586 0.92752,24.64282 2.05379,25.57367c0.59626,0.48992 1.45753,2.30262 1.92129,4.06631c0.46376,1.7637 1.12627,3.42943 1.45753,3.67438c0.39751,0.29395 0.53001,0.09798 0.265,-0.5879c-0.19875,-0.78387 -0.06625,-1.12681 0.59626,-1.12681c0.66251,0 0.92752,-0.44092 0.79502,-1.32277c-0.13251,-0.83286 0.13251,-1.32277 0.53001,-1.27379c1.65628,0.24496 1.85503,-4.65422 1.19252,-25.62265c-0.265,-7.54472 -0.13251,-8.96547 0.72876,-9.50439c0.53001,-0.34294 1.06002,-1.32277 1.06002,-2.15564c0.06625,-0.83286 0.19875,-1.12681 0.39751,-0.68589c0.46376,1.32277 1.52378,1.02883 2.38505,-0.5879c0.46376,-0.93085 1.19252,-1.46975 1.98754,-1.46975c0.86127,0 1.12627,0.24496 0.86127,0.73487c-0.19875,0.44092 0,0.73487 0.46376,0.73487c1.12627,0 3.97508,3.72337 3.44506,4.40926c-0.19875,0.24496 -0.19875,0.78387 0.13251,1.12681c0.265,0.29395 0.59626,0.97983 0.66251,1.42076c0.13251,0.44092 0.66251,1.7637 1.19252,2.9395c0.59626,1.17581 1.19252,2.84152 1.39127,3.72337c0.13251,0.93085 0.86127,2.44958 1.59003,3.42943l1.32503,1.81269l-0.39751,-2.69454c-0.19875,-1.46975 -0.66251,-3.42943 -1.06002,-4.31127c-0.72876,-1.86168 -0.86127,-6.66287 -0.265,-16.02029c0.33126,-5.48707 0.59626,-6.90783 1.39127,-7.00581c0.59626,-0.09798 0.99377,-0.73487 0.99377,-1.56773c0,-1.61673 1.25877,-3.91934 2.12004,-3.91934c0.33126,0 0.39751,0.24496 0.19875,0.48992c-0.53001,0.63689 -0.19875,0.63689 2.05379,0c1.98754,-0.5879 2.91506,0.049 3.37881,2.20462c0.13251,0.53891 0.53001,1.17581 0.86127,1.42076c0.86127,0.63689 5.83011,-0.63689 7.15514,-1.86168c0.59626,-0.5879 2.18629,-1.61673 3.51132,-2.3516l2.45129,-1.32277l-0.39751,-3.23345c-0.265,-2.98849 -0.19875,-3.38043 1.78878,-5.73203c2.31879,-2.74354 2.45129,-4.06631 0.86127,-8.72052c-0.46376,-1.22479 -0.92752,-2.79253 -1.12627,-3.57639c-0.59626,-2.15564 -2.5838,-3.28245 -5.89636,-3.28245c-3.51132,0 -8.67892,1.61673 -10.00394,3.13547c-0.59626,0.68589 -2.31879,1.37177 -4.30633,1.7637c-2.25254,0.44092 -3.24631,0.88185 -3.04756,1.32277c0.19875,0.34294 0.06625,0.63689 -0.265,0.63689c-0.39751,0 -0.66251,0.5879 -0.72876,1.37177c-0.06625,1.07781 -0.19875,0.97983 -0.72876,-0.63689c-1.25877,-3.82135 -0.33126,-7.15278 3.44506,-12.29692c1.92129,-2.64555 4.10758,-6.22195 4.96884,-7.98564l1.45753,-3.23345l7.22138,0.14698c3.97508,0.09798 9.60643,0.34294 12.52149,0.63689c2.91506,0.24496 6.75763,0.5879 8.48017,0.73487c3.77632,0.29395 6.42637,0.97983 6.42637,1.61673c0,0.29395 1.39127,1.02883 3.18006,1.61673c3.44506,1.32277 6.29387,4.36026 4.83634,5.43808c-0.39751,0.29395 -0.72876,0.34294 -0.72876,0.09798c0,-0.83286 -5.76386,-0.78387 -6.69138,0.049c-0.53001,0.48992 -0.59626,0.88185 -0.19875,1.07781c0.33126,0.19596 1.12627,0.93085 1.78878,1.71471c0.92752,1.07781 1.06002,1.91068 0.72876,4.65422c-0.265,1.81269 -0.86127,4.1153 -1.32503,5.19312c-0.53001,1.02883 -0.92752,2.64555 -0.92752,3.57639c0,1.46975 -0.66251,2.25362 -4.43883,5.14413c-3.90883,2.9395 -4.77009,3.33143 -6.49263,3.18447c-2.5838,-0.29395 -4.24008,1.22479 -4.30633,3.91934c0,2.49858 0.53001,3.57639 1.72254,3.57639c0.59626,0 0.92752,0.53891 0.92752,1.51874c0,1.32277 0.19875,1.46975 1.52378,1.17581c2.38505,-0.5879 2.78255,-1.12681 1.52378,-2.15564c-0.79502,-0.63689 -1.06002,-1.37177 -0.79502,-2.15564c0.53001,-1.61673 2.78255,-3.62539 3.51132,-3.13547c0.92752,0.68589 0.59626,7.98564 -0.39751,8.86749c-0.53001,0.48992 -0.72876,1.32277 -0.53001,2.25362c0.265,0.78387 0.13251,1.56773 -0.19875,1.71471c-0.39751,0.19596 -0.46376,0.83286 -0.265,1.42076c0.19875,0.68589 0,1.42076 -0.59626,1.81269c-0.46376,0.39194 -1.25877,1.17581 -1.72254,1.81269c-0.66251,0.88185 -0.59626,1.07781 0.19875,1.07781c0.59626,0 1.32503,0.44092 1.72254,1.02883c0.66251,0.83286 0.53001,1.02883 -0.59626,1.27379c-1.06002,0.19596 -1.39127,0.63689 -1.32503,2.05766c0,0.97983 -0.59626,3.87035 -1.32503,6.41791c-0.72876,2.54757 -1.59003,7.29976 -1.78878,10.53321c-0.265,3.23345 -0.66251,6.12397 -0.92752,6.36891c-0.265,0.29395 -0.66251,1.17581 -0.92752,1.95967c-0.33126,1.07781 -0.265,1.27379 0.265,0.73487c0.46376,-0.53891 0.59626,0.14698 0.33126,2.4006c-0.13251,1.71471 -0.59626,3.33143 -1.06002,3.52741c-0.46376,0.19596 -0.59626,0.68589 -0.39751,1.17581c0.265,0.44092 0.19875,0.68589 -0.13251,0.53891c-0.72876,-0.34294 -2.38505,4.36026 -2.12004,6.17295c0.06625,0.73487 -0.33126,1.86168 -0.86127,2.44958c-0.59626,0.5879 -1.06002,0.88185 -1.06002,0.63689c0,-0.24496 -0.46376,0 -0.99377,0.53891c-0.53001,0.48992 -0.99377,1.42076 -0.99377,2.05766c0,0.5879 -0.33126,1.07781 -0.72876,1.07781c-0.46376,0 -0.53001,0.34294 -0.265,0.88185c0.79502,1.27379 0.86127,4.1643 0.19875,5.14413c-0.66251,0.97983 -1.85503,1.12681 -1.85503,0.19596c0,-0.34294 -0.39751,-1.07781 -0.92752,-1.56773c-0.92752,-0.93085 -0.99377,-0.93085 -2.31879,0.24496c-1.72254,1.51874 -1.78878,2.44958 -0.13251,2.44958c1.39127,0 2.05379,0.93085 2.05379,2.9395c0,0.83286 0.59626,1.86168 1.39127,2.4006c1.19252,0.78387 1.32503,1.27379 0.92752,2.79253c-0.99377,3.96833 -1.06002,5.83001 -0.265,6.95681c0.59626,0.78387 0.66251,1.22479 0.19875,1.46975c-1.32503,0.63689 -2.51755,2.79253 -2.38505,4.21329c0.19875,1.42076 -1.92129,5.24211 -3.71008,6.76085c-0.46376,0.44092 -0.72876,1.02883 -0.53001,1.32277c0.265,0.29395 0,1.02883 -0.59626,1.71471c-0.59626,0.63689 -0.99377,1.51874 -0.86127,1.86168c0.19875,0.83286 -3.44506,6.27093 -4.24008,6.27093c-0.265,0 -0.53001,-0.34294 -0.53001,-0.73487c0,-0.39194 -0.265,-0.73487 -0.53001,-0.73487c-0.72876,0 -2.91506,2.89051 -2.51755,3.38043c0.19875,0.19596 -0.39751,0.63689 -1.25877,0.93085c-1.59003,0.53891 -1.65628,0.48992 -1.25877,-0.78387c0.265,-0.73487 0.72876,-1.61673 1.12627,-1.95967c0.53001,-0.48992 0.46376,-0.78387 -0.06625,-1.02883c-0.59626,-0.29395 -0.46376,-0.68589 0.53001,-1.61673c1.06002,-1.02883 1.19252,-1.51874 0.59626,-2.69454c-0.46376,-1.02883 -0.46376,-2.44958 0,-4.60522c0.86127,-3.82135 0.92752,-10.77817 0.13251,-12.29692c-3.18006,-6.12397 -3.64382,-10.77817 -1.45753,-14.06062c1.92129,-2.74354 0.72876,-2.20462 -1.59003,0.73487c-1.72254,2.20462 -1.78878,2.44958 -1.12627,5.53607c0.39751,1.7637 0.99377,4.1153 1.39127,5.19312c1.65628,4.21329 1.25877,15.04045 -0.59626,16.65718c-0.33126,0.29395 -0.46376,0.68589 -0.33126,0.83286c0.66251,0.44092 -1.72254,10.87615 -2.5838,11.56204c-0.66251,0.48992 -0.79502,-0.44092 -0.66251,-4.7522c0.13251,-5.63405 -0.53001,-7.39774 -2.91506,-7.39774c-0.99377,-0.049 -0.99377,-0.09798 0.13251,-0.73487c1.25877,-0.73487 1.25877,-0.73487 -0.13251,-0.73487c-0.79502,0 -1.45753,-0.19596 -1.45753,-0.48992c0,-0.24496 0.39751,-0.48992 0.92752,-0.48992c1.59003,0 1.78878,-1.37177 0.265,-1.56773c-1.65628,-0.19596 -2.45129,-1.37177 -0.92752,-1.37177c1.52378,0 1.32503,-0.73487 -0.39751,-1.37177l-1.52378,-0.53891l1.45753,-0.29395c1.52378,-0.34294 1.39127,-1.71471 -0.13251,-1.71471c-0.53001,0 -0.79502,-0.48992 -0.66251,-1.22479c0.06625,-0.78387 -0.19875,-1.22479 -0.79502,-1.22479c-0.53001,0 -0.79502,-0.19596 -0.59626,-0.44092c0.66251,-0.78387 -0.33126,-2.00866 -1.65628,-2.00866c-1.72254,0 -1.59003,-0.73487 0.265,-1.37177c1.39127,-0.48992 1.32503,-0.53891 -0.66251,-0.53891c-1.72254,-0.049 -2.05379,-0.19596 -1.72254,-0.83286c0.265,-0.48992 -0.06625,-1.07781 -0.72876,-1.42076c-0.92752,-0.48992 -0.99377,-0.83286 -0.39751,-2.00866c0.86127,-1.66572 0.86127,-1.91068 0,-1.95967c-0.33126,-0.049 -0.92752,-0.09798 -1.25877,-0.14698c-0.265,0 -0.39751,-0.5879 -0.265,-1.17581c0.265,-0.97983 -0.13251,-1.32277 -2.18629,-2.05766c-1.39127,-0.48992 -3.24631,-1.02883 -4.17383,-1.22479c-0.92752,-0.14698 -1.59003,-0.39194 -1.45753,-0.53891c0.59626,-0.39194 -1.32503,-2.4006 -1.98754,-2.10664c-0.46376,0.19596 -0.46376,0.48992 0,0.83286c1.06002,0.78387 0.86127,1.46975 -0.33126,1.12681c-1.25877,-0.34294 -4.24008,1.02883 -4.24008,2.00866c0,1.22479 -3.84257,-1.37177 -4.70384,-3.23345c-0.39751,-0.88185 -0.59626,-2.3516 -0.39751,-3.28245c0.33126,-1.42076 0.13251,-1.81269 -1.45753,-2.64555c-1.06002,-0.53891 -2.38505,-1.81269 -3.04756,-2.79253c-0.59626,-1.02883 -1.52378,-2.49858 -2.05379,-3.28245c-0.53001,-0.78387 -0.92752,-1.7637 -0.92752,-2.20462c0,-0.44092 -0.46376,-1.66572 -0.99377,-2.74354c-1.06002,-2.25362 -1.32503,-5.3401 -0.39751,-4.89917c0.39751,0.14698 0.99377,-0.19596 1.39127,-0.78387c1.06002,-1.42076 0.265,-6.51589 -0.99377,-6.17295c-1.06002,0.34294 -2.51755,-1.91068 -1.98754,-3.13547c0.66251,-1.46975 -0.79502,-2.9395 -2.5838,-2.59656c-0.86127,0.14698 -1.78878,0.049 -1.98754,-0.24496c-0.72876,-0.83286 -1.92129,-0.63689 -1.45753,0.19596c0.53001,1.02883 -1.12627,1.42076 -2.8488,0.73487c-1.52378,-0.5879 -1.72254,-0.39194 -0.72876,0.97983c0.92752,1.22479 -0.99377,2.69454 -4.70384,3.62539c-2.5838,0.68589 -2.78255,0.63689 -3.04756,-0.24496c-0.33126,-0.88185 -0.39751,-0.88185 -1.19252,-0.14698c-0.72876,0.78387 -0.92752,0.78387 -2.25254,-0.14698c-0.86127,-0.5879 -1.98754,-0.93085 -2.78255,-0.78387c-0.86127,0.19596 -1.25877,0 -1.25877,-0.53891c0,-0.53891 -0.59626,-0.78387 -1.78878,-0.78387c-2.78255,0 -3.77632,-0.68589 -3.24631,-2.15564c0.59626,-1.7637 -0.265,-1.61673 -3.04756,0.5879c-1.98754,1.51874 -2.31879,2.10664 -2.12004,3.77237c0.19875,2.3516 -2.05379,6.17295 -4.10758,6.80985c-1.65628,0.53891 -4.63759,3.62539 -5.30011,5.38909c-0.19875,0.73487 -0.86127,1.46975 -1.39127,1.61673c-0.72876,0.19596 -0.86127,1.37177 -0.72876,5.73203c0.13251,2.98849 -0.06625,6.71185 -0.33126,8.32858c-0.53001,2.84152 -1.98754,5.19312 -3.24631,5.19312c-1.25877,0 -3.18006,-1.81269 -2.78255,-2.59656c0.19875,-0.48992 0.06625,-0.83286 -0.33126,-0.83286c-0.39751,0 -0.72876,-0.5879 -0.72876,-1.32277c0,-0.78387 -0.265,-1.71471 -0.66251,-2.10664c-0.39751,-0.44092 -0.33126,-0.83286 0.13251,-1.02883c1.19252,-0.53891 -0.79502,-3.28245 -2.18629,-3.03749c-0.72876,0.14698 -0.99377,0.53891 -0.79502,0.97983c0.53001,0.93085 -2.18629,2.54757 -4.24008,2.59656c-1.65628,0 -1.92129,0.48992 -0.79502,1.32277c0.53001,0.39194 -0.39751,0.48992 -3.44506,0.34294l-4.24008,-0.19596l2.18629,1.02883c2.51755,1.22479 2.78255,2.05766 0.53001,1.61673c-1.92129,-0.34294 -2.8488,0.53891 -1.25877,1.22479c0.99377,0.44092 0.86127,0.48992 -0.92752,0.53891c-1.52378,0 -2.18629,0.24496 -2.18629,0.73487c0,0.39194 -0.33126,0.73487 -0.72876,0.73487c-0.53001,0 -0.53001,0.24496 0.06625,0.73487c0.66251,0.5879 0.59626,0.78387 -0.19875,1.02883c-0.59626,0.14698 -0.92752,0.53891 -0.72876,0.88185c0.19875,0.34294 -0.46376,0.88185 -1.39127,1.27379c-0.92752,0.34294 -1.65628,0.93085 -1.65628,1.27379c0,0.34294 -0.72876,1.27379 -1.65628,2.05766c-1.19252,1.07781 -1.39127,1.56773 -0.86127,1.95967c0.53001,0.39194 0.53001,0.5879 0.06625,0.5879c-1.12627,0 -2.5838,2.9395 -1.59003,3.38043c0.53001,0.24496 0.19875,0.53891 -0.86127,0.93085c-1.12627,0.39194 -1.59003,0.83286 -1.39127,1.51874c0.33126,1.22479 -1.32503,3.77237 -2.8488,4.45824c-0.79502,0.29395 -0.86127,0.5879 -0.39751,0.83286c1.19252,0.63689 1.06002,3.91934 -0.19875,4.26228c-0.79502,0.24496 -0.92752,0.73487 -0.66251,2.00866c0.19875,0.93085 0.13251,1.71471 -0.19875,1.71471c-0.33126,0 -0.265,0.68589 0.13251,1.46975c0.33126,0.83286 0.53001,1.7637 0.33126,2.10664c-0.19875,0.39194 0.19875,0.88185 0.86127,1.17581c0.99377,0.48992 1.12627,0.39194 0.86127,-1.12681c-0.19875,-1.56773 -0.13251,-1.66572 1.39127,-1.37177c1.12627,0.19596 1.78878,0.049 2.25254,-0.5879c0.33126,-0.44092 1.19252,-0.88185 1.85503,-0.93085c0.72876,-0.049 1.78878,-0.29395 2.45129,-0.48992c0.66251,-0.19596 2.78255,-0.24496 4.77009,-0.14698c1.98754,0.14698 3.64382,0.14698 3.64382,0.049c0,-0.09798 -0.99377,-0.53891 -2.12004,-0.93085l-2.18629,-0.68589l2.51755,0.29395c1.45753,0.19596 2.45129,0.09798 2.45129,-0.19596c0,-0.78387 2.5838,-1.02883 4.83634,-0.48992c2.45129,0.63689 4.57134,1.91068 7.02264,4.31127c0.99377,0.97983 2.38505,1.7637 3.37881,1.86168c1.85503,0.14698 2.91506,1.12681 1.78878,1.66572c-0.86127,0.39194 -1.06002,2.9395 -0.265,3.38043c0.265,0.14698 0.66251,1.56773 0.79502,3.18447c0.19875,1.56773 0.46376,3.62539 0.66251,4.50724c0.265,0.88185 0.13251,1.56773 -0.265,1.56773c-0.39751,0 -0.265,0.73487 0.33126,1.71471c1.19252,2.20462 1.19252,2.20462 -0.86127,2.20462l-1.78878,0l1.45753,0.78387c0.99377,0.48992 1.39127,1.07781 1.12627,1.66572c-0.19875,0.48992 0.13251,1.22479 0.79502,1.7637c0.66251,0.48992 1.12627,0.93085 1.06002,1.02883c-0.13251,0.09798 -0.13251,0.24496 -0.13251,0.39194c0.06625,0.14698 0.19875,0.48992 0.265,0.73487c0.06625,0.29395 0.19875,0.68589 0.265,0.93085c0,0.19596 1.32503,1.02883 2.91506,1.7637c1.52378,0.73487 3.51132,1.95967 4.43883,2.74354c0.92752,0.73487 2.8488,1.7637 4.30633,2.20462c2.12004,0.63689 2.38505,0.88185 1.45753,1.12681c-0.92752,0.24496 -0.265,0.63689 2.65005,1.71471c2.12004,0.78387 3.44506,1.51874 2.9813,1.61673c-0.46376,0.14698 -1.59003,-0.14698 -2.51755,-0.5879c-0.92752,-0.44092 -1.85503,-0.68589 -2.05379,-0.53891c-0.19875,0.14698 0.86127,0.68589 2.31879,1.17581c2.25254,0.73487 2.5838,1.02883 1.92129,1.56773c-0.59626,0.48992 -0.59626,0.53891 0.06625,0.29395c0.39751,-0.19596 0.79502,-0.14698 0.79502,0.09798c0,0.24496 0.53001,0.5879 1.19252,0.68589c0.66251,0.14698 1.25877,0.5879 1.25877,1.02883c0,0.5879 -0.33126,0.68589 -1.19252,0.34294c-0.66251,-0.29395 -1.78878,-0.29395 -2.65005,-0.09798c-1.39127,0.39194 -1.32503,0.44092 0.79502,1.07781c1.25877,0.39194 3.57757,1.71471 5.1676,2.9395c2.78255,2.15564 2.8488,2.20462 1.32503,2.49858c-1.52378,0.24496 -1.52378,0.29395 0.39751,0.68589l1.98754,0.39194l-1.65628,0.34294c-1.52378,0.39194 -1.59003,0.39194 -0.19875,0.44092c0.79502,0.049 1.78878,0.53891 2.25254,1.07781c0.72876,1.02883 0.66251,1.07781 -1.45753,0.73487c-1.59003,-0.19596 -1.98754,-0.14698 -1.25877,0.19596c0.53001,0.24496 1.52378,0.48992 2.12004,0.48992c0.59626,0 1.39127,0.29395 1.65628,0.68589c0.265,0.34294 0.99377,0.78387 1.52378,0.93085c0.66251,0.19596 0.53001,0.29395 -0.46376,0.29395c-2.25254,0.049 -2.38505,0.93085 -0.19875,1.27379c1.12627,0.19596 1.85503,0.53891 1.59003,0.78387c-0.19875,0.24496 0.13251,0.44092 0.66251,0.44092c1.25877,0 1.39127,0.53891 0.33126,1.32277c-0.53001,0.39194 -0.33126,0.73487 0.53001,1.17581c1.52378,0.83286 2.45129,2.4006 1.39127,2.4006c-0.39751,0 -0.53001,0.14698 -0.33126,0.34294c0.265,0.14698 -0.06625,0.5879 -0.72876,0.93085c-0.99377,0.5879 -0.92752,0.68589 0.99377,0.97983c2.38505,0.34294 2.31879,1.17581 -0.06625,1.17581c-0.86127,0 -1.92129,0.29395 -2.31879,0.68589c-0.59626,0.53891 -0.39751,0.73487 1.06002,1.02883c1.39127,0.24496 1.59003,0.39194 0.79502,0.78387c-0.59626,0.29395 -0.66251,0.44092 -0.06625,0.44092c1.39127,0 0.86127,0.97983 -0.86127,1.56773c-1.92129,0.63689 -2.12004,1.22479 -0.46376,1.51874c0.59626,0.14698 0.13251,0.24496 -1.12627,0.29395l-2.25254,0.049l1.52378,0.97983c1.32503,0.88185 1.39127,0.97983 0.33126,0.97983c-1.19252,0 -1.19252,0.049 0.06625,0.78387c0.66251,0.39194 0.92752,0.63689 0.53001,0.48992c-0.46376,-0.14698 -1.12627,0.049 -1.59003,0.44092c-0.92752,0.83286 -0.92752,0.83286 0.99377,1.61673c1.12627,0.48992 0.92752,0.53891 -1.45753,0.5879c-3.24631,0 -3.64382,0.53891 -1.06002,1.42076c1.39127,0.48992 1.59003,0.68589 0.86127,1.02883c-0.79502,0.34294 -0.59626,0.53891 0.66251,0.93085c1.45753,0.39194 1.45753,0.48992 0.33126,0.53891c-0.79502,0 -1.06002,0.14698 -0.59626,0.39194c0.39751,0.19596 0.86127,0.73487 1.12627,1.22479c0.39751,0.73487 0.19875,0.83286 -0.92752,0.5879c-1.19252,-0.29395 -1.32503,-0.19596 -0.92752,0.78387c0.39751,0.88185 0.265,1.02883 -0.66251,0.73487c-1.65628,-0.44092 -2.51755,0.14698 -1.52378,1.07781c0.72876,0.63689 0.66251,0.73487 -0.99377,0.48992c-1.78878,-0.24496 -1.78878,-0.24496 -0.72876,0.63689c0.99377,0.83286 0.86127,1.17581 -0.53001,0.97983c-0.92752,-0.09798 -0.59626,0.78387 0.53001,1.46975c0.92752,0.53891 0.92752,0.63689 0,1.02883c-0.79502,0.34294 -0.86127,0.68589 -0.39751,1.61673c0.33126,0.68589 0.46376,1.22479 0.265,1.22479c-0.265,0 -0.06625,0.29395 0.33126,0.63689c0.39751,0.39194 0.53001,0.83286 0.265,0.97983c-0.19875,0.19596 0.265,0.93085 1.19252,1.66572c0.86127,0.73487 1.06002,1.02883 0.39751,0.68589c-0.99377,-0.5879 -1.12627,-0.5879 -0.72876,0.14698c0.19875,0.44092 0.66251,0.78387 0.92752,0.78387c0.265,0 0.66251,0.68589 0.92752,1.46975c0.19875,0.83286 1.72254,2.49858 3.37881,3.77237c1.85503,1.37177 2.78255,2.4006 2.31879,2.59656c-1.19252,0.53891 1.19252,1.66572 3.71008,1.71471c1.19252,0.049 2.05379,-0.09798 1.85503,-0.34294c-0.19875,-0.19596 -0.06625,-0.39194 0.33126,-0.39194c0.39751,0 1.32503,-0.88185 2.05379,-1.91068c0.72876,-1.07781 1.72254,-2.15564 2.12004,-2.3516c0.46376,-0.19596 0.86127,-0.73487 0.86127,-1.12681c0,-0.39194 0.99377,-1.12681 2.25254,-1.56773c1.98754,-0.73487 2.31879,-0.73487 3.18006,-0.09798c0.59626,0.39194 1.52378,0.5879 2.25254,0.44092c0.92752,-0.24496 1.12627,-0.09798 0.86127,0.44092c-0.265,0.48992 0,0.63689 0.92752,0.48992c0.66251,-0.14698 2.25254,0.049 3.51132,0.44092c1.39127,0.48992 1.78878,0.78387 1.06002,0.78387c-1.85503,0.049 -0.72876,0.88185 1.65628,1.22479c2.78255,0.39194 5.83011,1.42076 5.83011,1.86168c0,0.24496 0.59626,0.39194 1.25877,0.39194c0.66251,0 1.92129,0.44092 2.78255,0.97983c1.39127,0.88185 1.45753,0.93085 0.265,0.68589c-0.99377,-0.19596 -1.12627,-0.19596 -0.39751,0.19596c0.53001,0.29395 1.32503,0.39194 1.78878,0.24496c0.92752,-0.24496 4.17383,1.27379 4.24008,2.05766c0.06625,0.29395 1.25877,1.46975 2.78255,2.69454c1.52378,1.22479 2.31879,1.81269 1.85503,1.32277c-0.46376,-0.44092 -0.66251,-0.97983 -0.53001,-1.12681c0.53001,-0.39194 2.51755,1.22479 2.51755,2.05766c0,0.39194 0.33126,0.68589 0.66251,0.68589c0.39751,0 0.66251,-0.48992 0.66251,-1.02883c0,-0.88185 0.19875,-0.93085 0.99377,-0.44092c0.53001,0.29395 0.92752,0.73487 0.86127,0.88185c-0.13251,0.83286 0.19875,1.56773 0.66251,1.51874c1.45753,-0.19596 2.12004,0.14698 2.12004,1.02883c0,0.53891 0.46376,1.12681 0.99377,1.27379c0.53001,0.19596 0.79502,0.48992 0.59626,0.73487c-0.19875,0.24496 0.265,0.48992 0.99377,0.48992c0.79502,0.049 1.72254,0.14698 2.05379,0.19596c0.39751,0.049 0.86127,0.14698 1.19252,0.19596c0.265,0 1.32503,0.5879 2.31879,1.27379c0.99377,0.68589 1.78878,1.07781 1.78878,0.88185c0,-0.24496 1.12627,-0.34294 2.5838,-0.24496c1.39127,0.09798 2.78255,-0.049 2.9813,-0.34294c0.79502,-0.93085 1.92129,-0.5879 1.52378,0.44092c-0.19875,0.53891 -0.06625,0.97983 0.33126,0.97983c0.33126,0 0.39751,0.29395 0.13251,0.63689c-0.39751,0.44092 -0.33126,0.44092 0.46376,0c1.12627,-0.63689 2.12004,-0.29395 2.78255,0.97983c0.33126,0.63689 0.06625,0.83286 -0.99377,0.83286c-1.19252,0 -1.25877,-0.09798 -0.46376,-0.83286c0.53001,-0.53891 0.265,-0.48992 -0.72876,0.14698c-0.92752,0.5879 -3.37881,1.32277 -5.4326,1.66572c-4.57134,0.68589 -8.08266,2.84152 -8.81142,5.38909c-1.45753,4.94816 -6.42637,9.60237 -14.24403,13.32574c-5.0351,2.4006 -9.20892,3.91934 -9.87144,3.57639c-0.33126,-0.14698 -0.72876,-0.049 -0.86127,0.19596c-0.06625,0.29395 -0.92752,0.5879 -1.85503,0.73487c-0.92752,0.14698 -2.78255,0.48992 -4.17383,0.73487c-1.32503,0.24496 -3.11381,0.29395 -3.90883,0.14698c-0.92752,-0.14698 -1.25877,-0.049 -0.92752,0.29395c0.265,0.34294 0.13251,0.48992 -0.39751,0.39194c-0.46376,-0.09798 -1.92129,-0.34294 -3.18006,-0.48992c-1.65628,-0.19596 -2.05379,-0.14698 -1.32503,0.19596c0.72876,0.34294 0.33126,0.44092 -1.45753,0.34294c-1.39127,-0.049 -2.51755,-0.29395 -2.51755,-0.53891l-0.00001,0l0.00003,0l0.0001,-0.00012zm23.65171,-8.08362c4.30633,-0.88185 7.15514,-5.928 4.10758,-7.29976c-1.19252,-0.53891 -1.39127,-0.53891 -1.65628,0.24496c-0.33126,0.93085 -2.91506,1.27379 -3.90883,0.53891c-0.265,-0.19596 -0.86127,-0.19596 -1.39127,-0.049c-0.53001,0.14698 -0.92752,0.049 -0.92752,-0.24496c0,-0.24496 -0.79502,-0.5879 -1.78878,-0.73487c-1.98754,-0.29395 -6.69138,1.32277 -5.49886,1.86168c0.39751,0.19596 0.53001,0.73487 0.33126,1.27379c-0.86127,1.95967 4.50509,5.58505 7.42014,5.04615c0.39751,-0.09798 1.92129,-0.39194 3.31257,-0.63689l0,0l0.00001,-0.00001zm-125.41369,-6.66287c0.72876,-0.39194 1.12627,-0.83286 0.92752,-0.97983c-0.19875,-0.14698 -1.06002,0.14698 -1.92129,0.68589c-1.78878,1.12681 -0.92752,1.37177 0.99377,0.29395l0.00001,0zm-3.57757,-4.40926c0,-0.48992 -2.65005,0.44092 -2.91506,1.02883c-0.265,0.53891 0,0.53891 1.25877,-0.09798c0.92752,-0.44092 1.65628,-0.88185 1.65628,-0.93085l0,0l0.00001,0zm77.51401,-1.22479c0,-0.24496 -0.33126,-0.48992 -0.72876,-0.48992c-0.33126,0 -0.46376,0.24496 -0.265,0.48992c0.19875,0.29395 0.53001,0.48992 0.72876,0.48992c0.13251,0 0.265,-0.19596 0.265,-0.48992zm-80.62782,-0.83286c-0.19875,-0.34294 -0.59626,-0.48992 -0.92752,-0.34294c-0.92752,0.39194 -0.72876,1.02883 0.33126,1.02883c0.53001,0 0.79502,-0.29395 0.59626,-0.68589l0,0zm83.27787,0.09798c0,-0.09798 -0.66251,-0.44092 -1.45753,-0.73487c-1.45753,-0.53891 -1.45753,-0.48992 -0.265,0.19596c1.39127,0.83286 1.72254,0.93085 1.72254,0.53891l0,0l-0.00001,0zm7.28765,0.049c0,-0.09798 -0.53001,-0.48992 -1.12627,-0.83286c-1.06002,-0.63689 -1.12627,-0.5879 -0.265,0.19596c0.86127,0.78387 1.39127,1.02883 1.39127,0.63689l0,0l0,0.00001zm-4.96884,-2.25362c-0.19875,-0.24496 -0.72876,-0.48992 -1.06002,-0.48992c-0.39751,0 -0.46376,0.24496 -0.265,0.48992c0.19875,0.29395 0.72876,0.48992 1.06002,0.48992c0.39751,0 0.46376,-0.19596 0.265,-0.48992zm-3.31257,-0.48992c-0.19875,-0.24496 -0.06625,-0.48992 0.39751,-0.48992c0.46376,0 0.66251,-0.14698 0.39751,-0.29395c-0.59626,-0.44092 -1.85503,0.29395 -1.45753,0.83286c0.265,0.24496 0.53001,0.44092 0.72876,0.44092c0.19875,0 0.13251,-0.19596 -0.06625,-0.48992l-0.00001,0zm2.5838,-1.22479c-0.265,-0.39194 -0.72876,-0.73487 -1.06002,-0.73487c-0.39751,0 -0.33126,0.29395 0.13251,0.73487c0.46376,0.39194 0.92752,0.73487 1.06002,0.73487c0.13251,0 0.06625,-0.34294 -0.13251,-0.73487zm35.97445,-1.91068c-0.19875,-0.39194 -1.45753,-0.83286 -2.78255,-0.97983c-2.78255,-0.39194 -2.65005,-0.73487 0.46376,-1.27379c2.05379,-0.34294 2.05379,-0.39194 0.39751,-0.44092c-2.45129,-0.049 -5.1676,0.93085 -5.1676,1.86168c0,0.5879 0.13251,0.63689 0.53001,0.14698c0.39751,-0.44092 0.79502,-0.29395 1.32503,0.5879c0.86127,1.46975 4.96884,2.54757 5.30011,1.42076c0.13251,-0.39194 0.06625,-0.97983 -0.06625,-1.32277l-0.00001,0l-0.00001,0zm-40.21453,1.46975c0,-0.09798 -0.46376,-0.34294 -1.06002,-0.48992c-0.53001,-0.14698 -0.79502,-0.09798 -0.59626,0.19596c0.39751,0.48992 1.65628,0.68589 1.65628,0.29395l0,0l0,0.00001l0.00001,0zm-44.78587,-2.59656c1.52378,-1.37177 1.12627,-1.46975 -0.79502,-0.19596c-0.79502,0.48992 -1.25877,1.02883 -0.99377,1.22479c0.19875,0.14698 0.46376,0.24496 0.46376,0.19596c0.06625,-0.09798 0.66251,-0.63689 1.32503,-1.22479zm74.93021,-0.63689c0.19875,-0.24496 0.06625,-0.48992 -0.265,-0.48992c-0.39751,0 -0.72876,0.24496 -0.72876,0.48992c0,0.29395 0.13251,0.48992 0.265,0.48992c0.19875,0 0.53001,-0.19596 0.72876,-0.48992zm-41.2083,-1.95967c-0.19875,-0.5879 -0.53001,-0.93085 -0.72876,-0.78387c-0.33126,0.29395 0.33126,1.7637 0.79502,1.7637c0.13251,0 0.13251,-0.44092 -0.06625,-0.97983l-0.00001,0zm45.18338,0.48992c0.265,-0.34294 -0.19875,-0.44092 -1.25877,-0.29395c-1.19252,0.14698 -1.52378,0.049 -1.32503,-0.44092c0.265,-0.48992 -0.06625,-0.5879 -0.99377,-0.39194c-1.12627,0.19596 -1.25877,0.39194 -0.66251,0.93085c0.86127,0.78387 3.64382,0.93085 4.24008,0.19596l0,0zm40.08203,0.29395c0,-0.14698 -0.265,-0.39194 -0.66251,-0.53891c-0.33126,-0.14698 -0.66251,-0.049 -0.66251,0.19596c0,0.29395 0.33126,0.53891 0.66251,0.53891c0.39751,0 0.66251,-0.09798 0.66251,-0.19596zm-35.77569,-1.07781c0,-0.09798 -0.46376,-0.19596 -0.99377,-0.19596c-0.53001,0 -0.99377,0.19596 -0.99377,0.48992c0,0.24496 0.46376,0.34294 0.99377,0.19596c0.53001,-0.19596 0.99377,-0.39194 0.99377,-0.48992zm-50.48348,-2.64555c-0.86127,-1.95967 -1.85503,-2.3516 -1.85503,-0.73487c0,0.73487 0.265,1.17581 0.66251,0.97983c0.39751,-0.14698 0.66251,0.049 0.66251,0.44092c0,0.44092 0.265,0.78387 0.59626,0.78387c0.39751,0 0.39751,-0.5879 -0.06625,-1.46975l0,0l-0.00001,0zm-15.2378,-5.63405c-0.19875,-0.5879 -1.92129,-0.39194 -2.8488,0.34294c-0.46376,0.29395 -0.06625,0.39194 1.19252,0.29395c0.99377,-0.09798 1.72254,-0.34294 1.65628,-0.63689l0,0l0.00001,0zm-29.01806,-1.22479c0,-0.24496 -0.33126,-0.48992 -0.72876,-0.48992c-0.33126,0 -0.46376,0.24496 -0.265,0.48992c0.19875,0.29395 0.53001,0.48992 0.72876,0.48992c0.13251,0 0.265,-0.19596 0.265,-0.48992zm31.99938,-17.97995c-0.46376,-0.09798 -1.25877,-0.09798 -1.65628,0c-0.46376,0.14698 -0.13251,0.24496 0.79502,0.24496c0.92752,0 1.25877,-0.09798 0.86127,-0.24496l-0.00001,0zm-5.36635,-13.96263c-0.59626,-0.44092 -0.79502,-0.34294 -0.79502,0.5879c0,0.93085 0.19875,1.02883 0.79502,0.5879c0.59626,-0.44092 0.59626,-0.73487 0,-1.17581zm-23.65171,-61.3376c-0.59626,-0.63689 -1.52378,-1.32277 -2.05379,-1.46975c-0.72876,-0.19596 -0.59626,0.14698 0.39751,1.17581c1.65628,1.7637 3.18006,2.00866 1.65628,0.29395l0,0zm0.66251,-2.59656c-0.265,-0.48992 -0.53001,-1.17581 -0.53001,-1.51874c0,-0.39194 -0.265,-0.44092 -0.66251,-0.14698c-0.72876,0.53891 0,2.49858 0.99377,2.49858c0.39751,0 0.46376,-0.34294 0.19875,-0.83286l0,0zm-6.22762,-2.44958c-0.66251,-0.83286 -0.66251,-0.78387 -0.72876,0.14698c0,1.12681 0.86127,2.00866 1.19252,1.22479c0.13251,-0.29395 -0.06625,-0.88185 -0.46376,-1.37177zm29.41557,-13.32574c-0.99377,-1.42076 -2.18629,-2.30262 -2.65005,-1.91068c-0.265,0.19596 2.91506,3.33143 3.37881,3.33143c0.13251,0 -0.13251,-0.63689 -0.72876,-1.42076zm108.91712,-39.87924c0.39751,-0.88185 0.59626,-3.96833 0.46376,-6.95681c-0.265,-6.71185 -0.265,-6.61387 -0.99377,-6.61387c-0.66251,0 -0.66251,-0.09798 -0.86127,8.57354c-0.13251,3.52741 -0.46376,6.71185 -0.79502,7.10379c-0.53001,0.63689 -0.46376,0.63689 0.46376,0.09798c0.59626,-0.39194 1.39127,-1.37177 1.72254,-2.20462l0,0l0,-0.00001zm-25.77175,-0.24496c0,-0.73487 -0.13251,-0.73487 -0.66251,-0.09798c-0.86127,0.97983 -0.86127,1.61673 0,1.22479c0.39751,-0.14698 0.66251,-0.68589 0.66251,-1.12681l0,0zm24.91048,-17.49004c-0.19875,-1.37177 -1.06002,-2.30262 -1.06002,-1.07781c0,0.78387 0.66251,2.30262 0.99377,2.30262c0.13251,0 0.13251,-0.53891 0.06625,-1.22479l0,-0.00001l0.00001,0zm-111.23591,-5.24211c-0.19875,-0.39194 -0.39751,-0.24496 -0.39751,0.29395c-0.06625,0.53891 0.13251,0.83286 0.33126,0.63689c0.19875,-0.14698 0.265,-0.5879 0.06625,-0.93085l0,0.00001l0.00001,0zm109.51337,-1.37177c0,-0.53891 -0.265,-0.97983 -0.59626,-0.97983c-0.33126,0 -0.46376,0.44092 -0.265,0.97983c0.19875,0.53891 0.46376,0.97983 0.59626,0.97983c0.13251,0 0.265,-0.44092 0.265,-0.97983zm-2.18629,-6.46691c-0.19875,-0.39194 -0.39751,-0.24496 -0.39751,0.29395c-0.06625,0.53891 0.13251,0.83286 0.33126,0.63689c0.19875,-0.14698 0.265,-0.5879 0.06625,-0.93085l0,0.00001l0.00001,0zm27.16302,-5.87901c-0.19875,-0.39194 -0.39751,-0.24496 -0.39751,0.29395c-0.06625,0.53891 0.13251,0.83286 0.33126,0.63689c0.19875,-0.14698 0.265,-0.5879 0.06625,-0.93085l0,0.00001l0.00001,0zm-93.94432,-6.36891c0.86127,-0.19596 0.79502,-0.24496 -0.06625,-0.48992c-0.66251,-0.19596 -1.52378,0.09798 -2.31879,0.68589c-1.19252,0.97983 -1.19252,1.02883 0.13251,0.53891c0.72876,-0.29395 1.78878,-0.5879 2.25254,-0.73487l0,0l-0.00001,0zm3.04756,-3.33143c0.19875,-0.29395 -0.06625,-0.34294 -0.59626,-0.19596c-1.19252,0.34294 -1.39127,0.68589 -0.46376,0.68589c0.39751,0 0.86127,-0.19596 1.06002,-0.48992zm-6.95638,-5.19312c0,-1.02883 -0.265,-1.61673 -0.66251,-1.42076c-0.33126,0.14698 -0.66251,1.07781 -0.66251,2.00866c0,1.02883 0.265,1.61673 0.66251,1.42076c0.39751,-0.14698 0.66251,-1.07781 0.66251,-2.00866zm16.56282,-0.24496c0,-0.24496 -0.265,-0.44092 -0.66251,-0.44092c-0.33126,0 -0.66251,0.34294 -0.66251,0.78387c0,0.39194 0.33126,0.5879 0.66251,0.44092c0.39751,-0.14698 0.66251,-0.48992 0.66251,-0.78387zm-0.59626,-23.27105c1.12627,-1.66572 1.78878,-2.15564 3.04756,-2.15564c2.25254,0 3.97508,-2.9395 2.8488,-4.94816c-0.92752,-1.61673 -2.12004,-2.44958 -3.77632,-2.59656c-1.25877,-0.14698 -4.77009,3.77237 -5.23384,5.78103c-0.06625,0.5879 -0.39751,1.95967 -0.66251,3.08648c-0.265,1.42076 -0.13251,2.3516 0.39751,2.84152c1.06002,0.97983 1.78878,0.5879 3.37881,-2.00866l0,-0.00001l-0.00001,0zm67.37756,-21.85029c0.46376,-0.34294 3.64382,-0.73487 7.28765,-0.88185c5.4326,-0.24496 6.82388,-0.48992 8.81142,-1.46975c1.19252,-0.68589 3.18006,-1.56773 4.24008,-1.95967c1.92129,-0.73487 1.98754,-0.83286 1.98754,-4.26228c0,-1.95967 -0.33126,-3.77237 -0.72876,-4.06631c-0.39751,-0.29395 -1.59003,-0.34294 -2.8488,-0.19596c-1.92129,0.29395 -2.05379,0.44092 -1.72254,1.7637c0.39751,1.12681 0.06625,1.66572 -1.59003,2.9395l-2.05379,1.56773l0,-1.37177c0,-2.15564 -1.59003,-1.22479 -2.05379,1.17581c-0.19875,1.17581 -0.72876,2.25362 -1.12627,2.3516c-0.46376,0.09798 -0.79502,0.44092 -0.79502,0.73487c0,0.39194 -1.45753,0.5879 -4.17383,0.5879c-3.64382,0 -4.37259,0.14698 -5.96262,1.32277c-2.12004,1.56773 -4.43883,1.42076 -2.5838,-0.14698c0.59626,-0.48992 1.45753,-0.93085 1.85503,-0.93085c0.79502,0 1.59003,-1.07781 1.59003,-2.00866c0,-0.29395 -0.59626,-0.39194 -1.25877,-0.19596c-0.72876,0.14698 -2.38505,-0.049 -3.71008,-0.48992c-1.39127,-0.39194 -2.5838,-0.73487 -2.78255,-0.73487c-0.13251,0 -0.06625,0.83286 0.19875,1.86168c0.86127,3.67438 5.0351,6.17295 7.42014,4.40926l0,0l0.00001,0.00001l0.00001,0z"/>
   <path stroke="null" id="svg_3" d="m184.11076,6769.50391c0.19875,-0.24496 0.86127,-0.48992 1.45753,-0.48992c0.92752,0 5.49886,-1.66572 7.35389,-2.69454c0.53001,-0.24496 2.78255,-1.91068 5.10135,-3.62539c3.51132,-2.69454 4.24008,-3.52741 4.96884,-5.87901c0.46376,-1.51874 1.12627,-3.03749 1.59003,-3.42943c0.53001,-0.5879 0.53001,-0.63689 -0.06625,-0.34294c-0.46376,0.19596 -0.86127,0.09798 -0.86127,-0.19596c0,-0.29395 0.46376,-0.63689 0.99377,-0.78387c0.53001,-0.19596 0.99377,-0.68589 0.99377,-1.17581c0,-1.12681 3.04756,-2.59656 4.70384,-2.30262c0.66251,0.14698 1.39127,0.049 1.59003,-0.19596c0.59626,-0.63689 3.64382,-0.34294 3.64382,0.39194c0,0.34294 -1.19252,1.46975 -2.65005,2.54757c-3.44506,2.49858 -6.82388,5.83001 -8.28141,8.08362c-1.59003,2.49858 -8.14891,6.76085 -13.11776,8.52455c-4.63759,1.61673 -8.08266,2.4006 -7.42014,1.56773l0,0l-0.00001,0.00002l0.00001,0.00002z"/>
   <path stroke="null" id="svg_4" d="m49.28941,6759.70557c0.39751,-0.53891 0.86127,-0.97983 1.06002,-0.97983c0.13251,0 0,0.44092 -0.39751,0.97983c-0.39751,0.53891 -0.86127,0.97983 -1.06002,0.97983c-0.13251,0 0,-0.44092 0.39751,-0.97983z"/>
   <path stroke="null" id="svg_5" d="m47.96438,6759.01968c0,-0.09798 0.53001,-0.48992 1.19252,-0.83286c0.99377,-0.63689 1.06002,-0.5879 0.19875,0.19596c-0.86127,0.78387 -1.39127,1.02883 -1.39127,0.63689l0,0l0,0.00001z"/>
   <path stroke="null" id="svg_6" d="m50.61444,6757.40296c0,-0.63689 0.33126,-1.12681 0.66251,-1.12681c0.86127,0 0.86127,0.53891 0,1.46975c-0.53001,0.5879 -0.66251,0.53891 -0.66251,-0.34294z"/>
   <path stroke="null" id="svg_7" d="m47.96438,6757.54993c0,-0.09798 0.53001,-0.48992 1.19252,-0.83286c0.99377,-0.63689 1.06002,-0.5879 0.19875,0.19596c-0.86127,0.78387 -1.39127,1.02883 -1.39127,0.63689l0,0l0,0.00001z"/>
   <path stroke="null" id="svg_8" d="m70.48981,6756.22716c0,-1.12681 2.31879,-3.18447 2.8488,-2.54757c0.265,0.29395 -0.33126,1.12681 -1.19252,1.91068c-1.19252,1.02883 -1.65628,1.17581 -1.65628,0.63689l0,0l-0.00001,0z"/>
   <path stroke="null" id="svg_9" d="m96.65907,6754.31648c0.19875,-0.24496 0.53001,-0.48992 0.72876,-0.48992c0.13251,0 0.265,0.24496 0.265,0.48992c0,0.29395 -0.33126,0.48992 -0.72876,0.48992c-0.33126,0 -0.46376,-0.19596 -0.265,-0.48992z"/>
   <path stroke="null" id="svg_10" d="m75.32616,6753.63059c0,-0.39194 0.39751,-0.5879 0.92752,-0.44092c0.46376,0.14698 0.86127,0 0.86127,-0.29395c0,-0.29395 0.79502,-0.53891 1.78878,-0.53891c1.72254,0 1.65628,0.049 -0.79502,0.97983c-1.45753,0.53891 -2.65005,0.97983 -2.65005,0.97983c-0.06625,0 -0.13251,-0.29395 -0.13251,-0.68589l0.00001,0z"/>
   <path stroke="null" id="svg_11" d="m42.99553,6752.4058c-0.19875,-0.24496 -0.06625,-0.5879 0.33126,-0.78387c0.33126,-0.14698 0.66251,0.049 0.66251,0.44092c0,0.88185 -0.39751,1.02883 -0.99377,0.34294z"/>
   <path stroke="null" id="svg_12" d="m79.10248,6750.83808c0,-0.24496 0.33126,-0.34294 0.66251,-0.19596c0.39751,0.14698 0.66251,0.39194 0.66251,0.53891c0,0.09798 -0.265,0.19596 -0.66251,0.19596c-0.33126,0 -0.66251,-0.24496 -0.66251,-0.53891z"/>
   <path stroke="null" id="svg_13" d="m81.09002,6750.20119c0,-0.09798 0.46376,-0.34294 1.06002,-0.48992c0.53001,-0.14698 0.79502,-0.09798 0.59626,0.19596c-0.39751,0.48992 -1.65628,0.68589 -1.65628,0.29395l0,0l0,0.00001l-0.00001,0z"/>
   <path stroke="null" id="svg_14" d="m86.39012,6749.66228c0,-0.09798 0.66251,-0.48992 1.52378,-0.78387c1.32503,-0.53891 1.39127,-0.53891 0.53001,0.19596c-0.86127,0.78387 -2.05379,1.12681 -2.05379,0.5879l0,0l-0.00001,0z"/>
   <path stroke="null" id="svg_15" d="m83.74007,6748.19253c0,-0.39194 0.13251,-0.73487 0.265,-0.73487c0.13251,0 0.39751,0.34294 0.66251,0.73487c0.19875,0.39194 0.06625,0.73487 -0.265,0.73487c-0.39751,0 -0.66251,-0.34294 -0.66251,-0.73487z"/>
   <path stroke="null" id="svg_16" d="m229.02914,6747.1147c-2.12004,-0.53891 -2.8488,-0.97983 -2.8488,-1.71471c0,-0.53891 -0.53001,-1.07781 -1.25877,-1.22479c-2.05379,-0.39194 -2.12004,-1.51874 -0.19875,-2.59656c3.97508,-2.25362 5.10135,-3.13547 5.10135,-4.21329c0.06625,-0.63689 -0.19875,-1.17581 -0.53001,-1.17581c-0.265,0 -0.33126,-0.19596 -0.13251,-0.48992c0.265,-0.29395 -0.06625,-0.34294 -0.79502,-0.14698c-0.66251,0.14698 -0.99377,0.14698 -0.72876,-0.09798c0.265,-0.19596 0.13251,-0.73487 -0.33126,-1.12681c-0.66251,-0.63689 -0.59626,-0.68589 0.06625,-0.39194c0.46376,0.19596 0.99377,0.049 1.19252,-0.44092c0.33126,-0.53891 0.66251,-0.63689 1.25877,-0.24496c0.59626,0.39194 0.99377,0.39194 1.32503,0c0.19875,-0.24496 0.06625,-0.48992 -0.33126,-0.48992c-0.39751,0 -0.53001,-0.24496 -0.265,-0.5879c0.33126,-0.39194 0.13251,-0.44092 -0.59626,-0.24496c-2.65005,0.73487 -4.30633,-1.51874 -2.25254,-3.03749c0.66251,-0.48992 0.53001,-0.53891 -0.46376,-0.24496c-1.06002,0.29395 -1.19252,0.19596 -0.92752,-0.93085c0.19875,-0.73487 0.06625,-1.17581 -0.19875,-1.02883c-0.33126,0.14698 -0.59626,0.049 -0.59626,-0.24496c0,-0.24496 -0.19875,-0.78387 -0.39751,-1.22479c-0.265,-0.53891 -0.06625,-0.78387 0.66251,-0.78387c0.59626,0 1.06002,0.34294 1.06002,0.73487c0,0.44092 0.39751,0.73487 0.86127,0.63689c1.25877,-0.19596 7.08889,1.22479 7.08889,1.71471c0,0.24496 0.46376,0.34294 0.99377,0.14698c0.53001,-0.14698 0.99377,-0.049 0.99377,0.19596c0,0.29395 0.33126,0.48992 0.66251,0.48992c0.39751,0 0.66251,-0.19596 0.66251,-0.48992c0,-0.48992 -4.77009,-2.44958 -5.96262,-2.44958c-0.39751,0 -2.8488,-0.73487 -5.49886,-1.61673c-4.83634,-1.71471 -12.12398,-3.72337 -13.71402,-3.87035c-0.19875,0 -1.06002,-0.24496 -1.98754,-0.48992c-2.38505,-0.73487 -4.63759,-0.88185 -4.63759,-0.29395c0,0.24496 -0.79502,0 -1.78878,-0.53891c-0.92752,-0.5879 -2.25254,-0.93085 -2.8488,-0.78387c-0.66251,0.14698 -1.52378,-0.049 -1.98754,-0.48992c-0.46376,-0.39194 -1.39127,-0.73487 -2.05379,-0.73487c-0.66251,0 -1.39127,-0.44092 -1.59003,-0.97983c-0.19875,-0.53891 -0.79502,-0.97983 -1.19252,-0.97983c-0.46376,0 -2.05379,-0.39194 -3.57757,-0.83286c-5.0351,-1.56773 -5.1676,-5.29111 -0.19875,-3.96833c1.59003,0.39194 2.31879,0.39194 2.45129,0.049c0.265,-0.48992 1.92129,-0.39194 4.17383,0.19596c0.53001,0.19596 1.25877,0.24496 1.59003,0.19596c0.33126,-0.049 0.79502,0.14698 1.06002,0.48992c0.33126,0.34294 0.86127,0.39194 1.39127,0.14698c1.85503,-0.83286 3.90883,-0.5879 5.36635,0.68589c2.8488,2.4006 6.69138,4.99716 7.42014,4.99716c0.39751,0 0.33126,-0.24496 -0.13251,-0.5879c-0.46376,-0.34294 -0.79502,-0.78387 -0.79502,-1.07781c0,-0.29395 0.33126,-0.24496 0.72876,0.049c0.39751,0.29395 1.19252,0.44092 1.65628,0.29395c0.53001,-0.14698 1.12627,0.09798 1.32503,0.53891c0.19875,0.44092 0.66251,0.78387 0.99377,0.78387c0.39751,0 0.33126,-0.39194 -0.06625,-0.93085c-0.92752,-1.37177 -0.79502,-1.86168 0.19875,-0.78387c0.59626,0.53891 1.25877,0.73487 1.72254,0.48992c0.66251,-0.29395 0.72876,-0.14698 0.13251,0.63689c-0.53001,0.73487 -0.46376,0.97983 0.13251,0.93085c3.04756,-0.049 6.42637,0.19596 6.22762,0.53891c-0.19875,0.19596 0.39751,0.39194 1.25877,0.39194c1.59003,0.09798 3.57757,1.22479 3.57757,2.10664c0,0.29395 0.59626,0.73487 1.32503,1.02883c1.19252,0.48992 1.59003,0.34294 1.39127,-0.5879c0,-0.19596 0.59626,-0.48992 1.32503,-0.63689c0.99377,-0.24496 1.92129,0.049 3.24631,0.97983c1.06002,0.78387 1.85503,1.51874 1.78878,1.66572c-0.06625,0.14698 0.33126,0.78387 0.79502,1.42076c0.46376,0.63689 0.66251,1.46975 0.46376,1.86168c-0.19875,0.44092 -0.06625,0.5879 0.265,0.44092c0.39751,-0.14698 0.66251,0.14698 0.66251,0.68589c0,0.5879 0.33126,1.02883 0.72876,1.02883c0.39751,0 0.59626,0.44092 0.39751,0.97983c-0.19875,0.53891 -0.06625,0.97983 0.265,0.97983c0.33126,0 0.59626,0.19596 0.59626,0.44092c0,0.34294 1.85503,3.67438 3.18006,5.58505c0.13251,0.19596 -0.33126,0.19596 -0.99377,0c-0.99377,-0.29395 -1.06002,-0.24496 -0.33126,0.44092c0.72876,0.63689 0.72876,1.61673 0.06625,5.14413c-0.39751,2.3516 -1.06002,4.55624 -1.45753,4.80119c-0.46376,0.34294 -0.53001,0.19596 -0.265,-0.34294c0.265,-0.48992 0.13251,-0.88185 -0.19875,-0.88185c-0.39751,0 -0.66251,0.19596 -0.66251,0.48992c0,1.95967 -9.73894,2.98849 -15.03904,1.61673l0,0l0.00002,0.00005l0.00001,0z"/>
   <path stroke="null" id="svg_17" d="m220.08522,6746.62479c0.46376,-0.14698 1.06002,-0.09798 1.25877,0.049c0.265,0.14698 -0.13251,0.29395 -0.86127,0.24496c-0.72876,0 -0.92752,-0.14698 -0.39751,-0.29395l0,-0.00001z"/>
   <path stroke="null" id="svg_18" d="m92.35274,6741.03973c0,-0.24496 0.33126,-0.34294 0.66251,-0.19596c0.39751,0.14698 0.66251,0.39194 0.66251,0.53891c0,0.09798 -0.265,0.19596 -0.66251,0.19596c-0.33126,0 -0.66251,-0.24496 -0.66251,-0.53891z"/>
   <path stroke="null" id="svg_19" d="m228.49912,6738.14923c-0.19875,-0.24496 -0.06625,-0.48992 0.265,-0.48992c0.39751,0 0.72876,0.24496 0.72876,0.48992c0,0.29395 -0.13251,0.48992 -0.265,0.48992c-0.19875,0 -0.53001,-0.19596 -0.72876,-0.48992z"/>
   <path stroke="null" id="svg_20" d="m214.58637,6734.7198c-0.19875,-0.24496 -0.06625,-0.48992 0.265,-0.48992c0.39751,0 0.72876,0.24496 0.72876,0.48992c0,0.29395 -0.13251,0.48992 -0.265,0.48992c-0.19875,0 -0.53001,-0.19596 -0.72876,-0.48992z"/>
   <path stroke="null" id="svg_21" d="m219.88647,6734.7198c-0.19875,-0.24496 -0.13251,-0.48992 0.265,-0.48992c0.33126,0 0.86127,0.24496 1.06002,0.48992c0.19875,0.29395 0.13251,0.48992 -0.265,0.48992c-0.33126,0 -0.86127,-0.19596 -1.06002,-0.48992z"/>
   <path stroke="null" id="svg_22" d="m224.59031,6734.47484c0.265,-0.39194 0.66251,-0.5879 0.99377,-0.44092c0.92752,0.39194 0.66251,1.17581 -0.39751,1.17581c-0.59626,0 -0.79502,-0.29395 -0.59626,-0.73487l0,0l0,-0.00001l0.00001,0z"/>
   <path stroke="null" id="svg_23" d="m208.55749,6733.0051c-1.19252,-0.68589 -1.19252,-0.68589 0.33126,-0.48992c1.92129,0.24496 3.51132,1.22479 1.98754,1.22479c-0.53001,0 -1.59003,-0.34294 -2.31879,-0.73487l0,0z"/>
   <path stroke="null" id="svg_24" d="m202.59488,6731.04543c-1.19252,-0.63689 -1.19252,-0.68589 0.265,-0.39194c0.79502,0.14698 1.65628,0.44092 1.85503,0.68589c0.53001,0.68589 -0.66251,0.53891 -2.12004,-0.29395l0.00001,0z"/>
   <path stroke="null" id="svg_25" d="m223.33153,6731.48635c-0.19875,-0.14698 -0.19875,-0.5879 0,-0.97983c0.265,-0.53891 0.59626,-0.5879 1.25877,-0.14698c0.53001,0.29395 0.72876,0.73487 0.53001,0.97983c-0.39751,0.48992 -1.19252,0.5879 -1.78878,0.14698l0,0z"/>
   <path stroke="null" id="svg_26" d="m214.45386,6730.50652c-0.53001,-1.07781 0.33126,-1.46975 1.52378,-0.5879c0.92752,0.68589 0.92752,0.78387 -0.06625,1.02883c-0.59626,0.19596 -1.19252,0.049 -1.45753,-0.44092l-0.00001,0z"/>
   <path stroke="null" id="svg_27" d="m218.56144,6730.80047c0.19875,-0.24496 0.86127,-0.48992 1.39127,-0.48992c0.53001,0 0.92752,0.24496 0.92752,0.48992c0,0.29395 -0.59626,0.48992 -1.39127,0.48992c-0.72876,0 -1.12627,-0.19596 -0.92752,-0.48992z"/>
   <path stroke="null" id="svg_28" d="m210.01503,6729.52668c-0.265,-0.53891 -0.06625,-0.68589 0.72876,-0.5879c0.59626,0.09798 1.19252,0.44092 1.39127,0.78387c0.39751,0.88185 -1.65628,0.73487 -2.12004,-0.19596l0,0z"/>
   <path stroke="null" id="svg_29" d="m206.76871,6728.15492c-0.19875,-0.39194 -0.19875,-0.83286 0,-0.97983c0.59626,-0.44092 2.25254,0.73487 1.78878,1.22479c-0.53001,0.63689 -1.39127,0.53891 -1.78878,-0.24496z"/>
   <path stroke="null" id="svg_30" d="m224.12655,6728.49786c-0.72876,-0.14698 -0.92752,-0.5879 -0.72876,-1.56773c0.13251,-0.78387 -0.06625,-1.56773 -0.46376,-1.71471c-0.39751,-0.19596 -0.72876,-0.68589 -0.72876,-1.12681c0,-0.63689 0.19875,-0.63689 0.99377,-0.14698c0.59626,0.34294 0.86127,0.73487 0.72876,0.83286c-0.13251,0.14698 0.13251,1.07781 0.59626,2.15564c0.53001,1.02883 0.86127,1.86168 0.79502,1.86168c-0.06625,-0.049 -0.59626,-0.14698 -1.19252,-0.29395l0,0l-0.00001,0z"/>
   <path stroke="null" id="svg_31" d="m202.32987,6727.1261c-0.72876,-0.63689 -0.66251,-0.68589 0.265,-0.44092c0.59626,0.14698 1.06002,0.48992 1.06002,0.73487c0,0.63689 -0.39751,0.53891 -1.32503,-0.29395l0.00001,0z"/>
   <path stroke="null" id="svg_32" d="m219.22396,6727.37106c-0.265,-0.29395 -0.19875,-0.78387 0.19875,-1.07781c0.39751,-0.29395 0.79502,-0.29395 1.12627,0.09798c0.265,0.29395 0.19875,0.78387 -0.19875,1.07781c-0.39751,0.29395 -0.79502,0.29395 -1.12627,-0.09798z"/>
   <path stroke="null" id="svg_33" d="m211.60506,6725.90131c0,-0.24496 0.33126,-0.48992 0.66251,-0.48992c0.39751,0 0.66251,0.24496 0.66251,0.48992c0,0.29395 -0.265,0.48992 -0.66251,0.48992c-0.33126,0 -0.66251,-0.19596 -0.66251,-0.48992z"/>
   <path stroke="null" id="svg_34" d="m215.31512,6725.80332c0.19875,-0.19596 0.59626,-0.39194 0.99377,-0.39194c0.33126,0 0.59626,0.19596 0.59626,0.39194c0,0.24496 -0.46376,0.44092 -0.99377,0.44092c-0.53001,0 -0.79502,-0.19596 -0.59626,-0.44092z"/>
   <path stroke="null" id="svg_35" d="m77.3137,6722.66785c1.06002,-0.39194 1.65628,-0.97983 1.39127,-1.27379c-0.265,-0.29395 -0.19875,-0.39194 0.265,-0.19596c0.39751,0.14698 0.86127,0.09798 1.12627,-0.19596c0.19875,-0.24496 0.72876,-0.48992 1.06002,-0.48992c0.39751,0 0.46376,0.24496 0.265,0.48992c-0.19875,0.29395 0.06625,0.48992 0.59626,0.48992c0.59626,0 1.06002,0.19596 1.06002,0.48992c0,0.48992 -4.17383,1.46975 -6.29387,1.46975c-1.12627,-0.049 -0.99377,-0.14698 0.53001,-0.78387l0,0l0.00001,-0.00001z"/>
   <path stroke="null" id="svg_36" d="m214.98388,6714.33926c0,-0.53891 0.19875,-0.68589 0.39751,-0.29395c0.19875,0.34294 0.13251,0.78387 -0.06625,0.93085c-0.19875,0.19596 -0.39751,-0.09798 -0.33126,-0.63689l0,-0.00001l-0.00001,0z"/>
   <path stroke="null" id="svg_37" d="m93.47901,6676.22373c-0.265,-0.48992 -0.33126,-1.02883 -0.13251,-1.17581c0.59626,-0.44092 1.12627,0.29395 0.86127,1.22479c-0.19875,0.83286 -0.265,0.83286 -0.72876,-0.049l0.00001,0.00001z"/>
   <path stroke="null" id="svg_38" d="m170.52925,6671.52053c0,-0.34294 -0.46376,-0.44092 -1.06002,-0.29395c-0.72876,0.19596 -0.99377,0.09798 -0.72876,-0.39194c0.265,-0.48992 0.06625,-0.63689 -0.53001,-0.48992c-1.25877,0.39194 -1.98754,-1.61673 -0.86127,-2.64555c0.79502,-0.73487 0.72876,-0.78387 -0.265,-0.14698c-0.66251,0.34294 -1.65628,0.48992 -2.25254,0.34294c-0.92752,-0.24496 -0.92752,-0.44092 -0.19875,-1.12681c0.53001,-0.48992 0.59626,-0.68589 0.13251,-0.48992c-0.86127,0.39194 -3.90883,-1.66572 -5.23384,-3.52741c-0.72876,-0.97983 -0.66251,-1.42076 0.19875,-2.69454l1.06002,-1.51874l-1.45753,0.93085l-1.39127,0.93085l0.39751,-1.61673c0.46376,-1.56773 0.39751,-1.56773 -1.12627,-0.97983c-1.45753,0.5879 -1.52378,0.5879 -0.66251,-0.19596c0.59626,-0.48992 0.72876,-0.97983 0.33126,-1.17581c-0.33126,-0.19596 -0.59626,-1.86168 -0.59626,-3.77237c0,-1.86168 -0.265,-3.57639 -0.59626,-3.77237c-0.39751,-0.19596 -0.33126,-0.63689 0.19875,-1.07781c0.59626,-0.53891 0.66251,-0.78387 0.13251,-0.78387c-0.53001,0 -0.46376,-0.48992 0.19875,-1.66572c0.86127,-1.51874 0.86127,-1.66572 -0.06625,-1.42076c-0.79502,0.24496 -0.92752,0.14698 -0.46376,-0.39194c0.265,-0.39194 0.53001,-1.17581 0.59626,-1.71471c0,-0.5879 0.53001,-1.51874 1.19252,-2.05766c0.92752,-0.73487 0.99377,-1.02883 0.33126,-1.22479c-0.66251,-0.19596 -0.66251,-0.29395 0,-0.29395c0.39751,-0.049 0.79502,-0.29395 0.79502,-0.53891c0,-0.29395 -0.72876,-0.39194 -1.78878,-0.19596c-1.52378,0.29395 -1.65628,0.19596 -1.32503,-0.5879c0.39751,-0.78387 0.33126,-0.83286 -0.39751,-0.19596c-0.46376,0.39194 -1.52378,1.17581 -2.45129,1.71471c-1.32503,0.78387 -1.45753,0.78387 -0.72876,0.09798c1.52378,-1.46975 0.33126,-1.46975 -1.59003,0c-1.45753,1.07781 -1.72254,1.17581 -1.32503,0.39194c1.25877,-2.54757 1.52378,-3.67438 0.92752,-3.91934c-0.33126,-0.19596 -0.59626,-0.049 -0.59626,0.19596c0,0.29395 -0.265,0.53891 -0.66251,0.53891c-0.33126,0 -0.46376,-0.34294 -0.265,-0.73487c0.265,-0.39194 0.06625,-0.73487 -0.265,-0.73487c-0.39751,0 -0.86127,0.39194 -0.99377,0.88185c-0.13251,0.44092 -0.33126,0.19596 -0.33126,-0.63689c0,-0.78387 -0.13251,-1.86168 -0.265,-2.30262c-0.265,-0.88185 -1.39127,-1.95967 -1.19252,-1.12681c0.06625,0.29395 0.06625,0.93085 0,1.46975c-0.06625,0.73487 -0.39751,0.48992 -1.32503,-0.88185c-0.59626,-1.02883 -1.98754,-2.49858 -3.04756,-3.23345c-2.31879,-1.61673 -3.90883,-3.67438 -4.57134,-5.928c-0.46376,-1.51874 -0.39751,-1.61673 0.59626,-1.02883c1.32503,0.83286 1.32503,0.48992 0.06625,-1.7637c-1.12627,-1.95967 -1.32503,-3.57639 -0.39751,-3.57639c0.33126,0 0.46376,-0.88185 0.33126,-1.95967c-0.13251,-1.12681 0.06625,-1.95967 0.46376,-1.95967c0.39751,0 0.53001,-0.19596 0.33126,-0.44092c-0.53001,-0.63689 0.265,-2.05766 0.99377,-1.71471c0.33126,0.14698 0.59626,-0.09798 0.59626,-0.48992c0,-0.97983 0.92752,-0.97983 1.98754,-0.049c1.19252,1.02883 1.59003,0.53891 0.66251,-0.73487c-0.66251,-0.93085 -0.59626,-0.97983 0.46376,-0.5879c1.92129,0.73487 4.43883,1.42076 5.0351,1.37177c0.33126,0 0.92752,0.48992 1.45753,1.12681l0.86127,1.17581l0.39751,-1.02883c0.59626,-1.37177 1.19252,-1.37177 3.57757,0.14698c1.25877,0.73487 2.18629,1.02883 2.45129,0.73487c0.72876,-0.83286 1.65628,-0.53891 2.31879,0.73487c0.53001,1.07781 0.92752,1.17581 2.9813,0.97983c1.78878,-0.14698 2.31879,-0.049 2.31879,0.5879c0,0.5879 0.19875,0.63689 0.92752,0.19596c1.32503,-0.83286 5.89636,-0.19596 5.4326,0.73487c-0.265,0.53891 0.33126,0.68589 2.51755,0.68589c1.65628,0 3.04756,0.14698 3.18006,0.39194c0.13251,0.19596 1.06002,0.83286 2.12004,1.46975c1.59003,0.93085 1.72254,1.07781 0.66251,1.12681c-0.72876,0.049 0.265,0.24496 2.05379,0.44092c1.85503,0.24496 4.77009,0.78387 6.49263,1.22479c2.51755,0.68589 3.18006,1.07781 2.91506,1.7637c-0.265,0.73487 0.13251,0.97983 1.92129,1.22479c1.25877,0.14698 2.45129,0.53891 2.7163,0.88185c0.79502,0.88185 0.92752,4.65422 0.265,6.46691c-0.39751,1.02883 -0.39751,1.66572 0,1.66572c0.92752,0 0.72876,1.7637 -0.33126,2.44958c-0.53001,0.29395 -0.79502,0.88185 -0.59626,1.27379c0.19875,0.39194 0,0.68589 -0.46376,0.68589c-0.46376,0 -0.66251,0.34294 -0.39751,0.78387c0.46376,0.93085 -1.98754,4.1153 -3.11381,4.1153c-0.46376,0 -0.265,0.34294 0.39751,0.68589c1.52378,0.88185 0.92752,2.89051 -1.25877,3.96833c-0.86127,0.39194 -1.59003,1.02883 -1.59003,1.32277c0,0.29395 0.59626,0.14698 1.32503,-0.34294c0.72876,-0.48992 1.32503,-0.68589 1.32503,-0.44092c-0.06625,0.68589 -1.72254,2.15564 -2.18629,1.86168c-0.19875,-0.14698 -0.72876,-0.14698 -1.12627,0.049c-0.53001,0.24496 -0.53001,0.53891 0.06625,1.02883c0.59626,0.53891 0.39751,1.07781 -0.79502,2.4006c-0.86127,0.93085 -1.98754,1.61673 -2.38505,1.46975c-0.46376,-0.09798 -1.19252,0.24496 -1.59003,0.83286c-0.66251,0.88185 -0.59626,0.97983 0.46376,0.68589c1.19252,-0.29395 1.19252,-0.24496 0.13251,0.39194c-0.66251,0.34294 -1.19252,0.78387 -1.19252,0.97983c0,0.14698 -1.06002,1.37177 -2.31879,2.69454c-1.25877,1.27379 -2.31879,2.54757 -2.31879,2.74354c0,0.19596 -1.06002,1.32277 -2.31879,2.49858c-2.45129,2.20462 -3.90883,4.40926 -3.31257,5.09514c0.19875,0.24496 0,0.5879 -0.39751,0.78387c-0.53001,0.24496 -0.53001,0.44092 0.06625,0.68589c0.59626,0.24496 0.59626,0.44092 0.06625,0.68589c-0.39751,0.19596 -0.72876,0.09798 -0.72876,-0.19596l0,0l-0.00001,-0.00002l0.00001,0zm15.90031,-20.91945c0,-0.34294 -0.19875,-0.63689 -0.39751,-0.63689c-0.79502,0 -2.25254,1.42076 -2.25254,2.25362c0,0.78387 0.06625,0.78387 1.32503,-0.049c0.72876,-0.48992 1.32503,-1.17581 1.32503,-1.56773l0,0l-0.00001,0z"/>
   <path stroke="null" id="svg_39" d="m80.36126,6664.31875c-0.86127,-0.78387 -0.79502,-0.83286 0.265,-0.19596c1.06002,0.63689 1.39127,1.02883 0.86127,1.02883c-0.13251,0 -0.66251,-0.39194 -1.12627,-0.83286l0.00001,0z"/>
   <path stroke="null" id="svg_40" d="m200.01108,6631.83725c-0.19875,-0.24496 0.265,-1.46975 1.06002,-2.74354c1.06002,-1.71471 1.52378,-2.15564 1.98754,-1.61673c0.86127,0.97983 0.72876,1.42076 -0.39751,1.42076c-0.66251,0 -0.99377,0.48992 -0.99377,1.42076c0,1.51874 -0.92752,2.4006 -1.65628,1.51874l0,0.00002l-0.00001,0z"/>
   <path stroke="null" id="svg_41" d="m207.62998,6622.82278c0,-0.39194 0.46376,-0.78387 0.99377,-0.97983c0.86127,-0.19596 0.92752,-0.09798 0.33126,0.68589c-0.86127,1.12681 -1.32503,1.27379 -1.32503,0.29395l0.00001,0z"/>
   <path stroke="null" id="svg_42" d="m90.03394,6583.28649c-0.72876,-0.83286 0.06625,-1.02883 0.99377,-0.19596c0.53001,0.44092 0.53001,0.73487 0.13251,0.73487c-0.39751,0 -0.92752,-0.24496 -1.12627,-0.53891l0,0z"/>
   <path stroke="null" id="svg_43" d="m99.04412,6580.05303c0.46376,-0.5879 0.99377,-0.97983 1.19252,-0.83286c0.19875,0.09798 -0.19875,0.5879 -0.86127,1.07781c-1.12627,0.78387 -1.19252,0.78387 -0.33126,-0.24496l0,0.00001z"/>
   <path stroke="null" id="svg_44" d="m171.25803,6512.98341c0,-0.53891 0.19875,-0.68589 0.39751,-0.29395c0.19875,0.34294 0.13251,0.78387 -0.06625,0.93085c-0.19875,0.19596 -0.39751,-0.09798 -0.33126,-0.63689l0,-0.00001l-0.00001,0z"/>
   <path stroke="null" id="svg_45" d="m208.49125,6504.06691c-1.12627,-0.53891 -1.32503,-2.15564 -0.265,-2.44958c0.59626,-0.14698 0.72876,0 0.46376,0.34294c-0.265,0.34294 -0.13251,0.93085 0.33126,1.32277c0.92752,0.78387 0.59626,1.27379 -0.53001,0.78387z"/>
   <path stroke="null" id="svg_46" d="m93.81027,6480.50191c-2.45129,-1.66572 -2.7163,-2.49858 -0.79502,-2.49858c0.86127,0 1.78878,0.68589 2.65005,1.95967c1.59003,2.3516 1.06002,2.49858 -1.85503,0.53891l0,0z"/>
   <path stroke="null" id="svg_47" d="m80.69251,6478.05232c-2.78255,-1.27379 -3.18006,-1.86168 -1.52378,-2.15564c0.92752,-0.19596 1.32503,-0.53891 1.06002,-0.97983c-0.19875,-0.39194 0.06625,-1.12681 0.59626,-1.66572c0.86127,-0.83286 0.92752,-0.78387 0.53001,0.48992c-0.33126,0.97983 0,1.7637 1.32503,2.98849c0.92752,0.93085 1.72254,1.81269 1.72254,1.95967c0,0.5879 -1.72254,0.24496 -3.71008,-0.63689l0,0l0,-0.00001z"/>
   <path stroke="null" id="svg_48" d="m105.603,6476.19064c0.79502,-0.78387 1.59003,-1.27379 1.78878,-1.22479c0.19875,0.09798 0.59626,-0.09798 0.92752,-0.48992c0.33126,-0.39194 0,-1.27379 -0.72876,-2.25362c-0.72876,-0.88185 -1.32503,-1.95967 -1.32503,-2.3516c0,-0.39194 -0.265,-0.68589 -0.66251,-0.68589c-0.33126,0 -0.66251,-0.44092 -0.66251,-0.97983c0,-0.53891 0.39751,-0.97983 0.92752,-0.97983c0.46376,0 1.06002,-0.44092 1.25877,-0.93085c0.19875,-0.68589 0.06625,-0.88185 -0.59626,-0.68589c-0.53001,0.14698 -0.92752,0.44092 -0.92752,0.73487c0,0.24496 -0.39751,0.24496 -1.06002,0c-0.59626,-0.24496 -1.65628,-0.34294 -2.38505,-0.19596c-1.12627,0.19596 -1.19252,0.29395 -0.19875,1.42076c1.19252,1.27379 0.72876,2.3516 -0.39751,1.12681c-0.53001,-0.53891 -0.59626,-0.44092 -0.265,0.44092c0.33126,0.78387 0.265,1.02883 -0.265,0.83286c-0.46376,-0.24496 -0.59626,-0.049 -0.33126,0.39194c0.66251,1.32277 -2.65005,0.93085 -4.63759,-0.48992c-1.19252,-0.88185 -1.72254,-1.07781 -1.72254,-0.5879c0,0.39194 0.59626,1.12681 1.39127,1.66572c1.25877,0.83286 3.90883,4.1153 3.90883,4.85018c0,0.19596 -0.86127,-0.14698 -1.98754,-0.73487c-1.06002,-0.5879 -1.98754,-1.32277 -1.98754,-1.61673c0,-0.34294 -1.19252,-1.37177 -2.65005,-2.30262c-2.38505,-1.51874 -2.7163,-2.00866 -2.91506,-4.31127c-0.265,-2.4006 -0.13251,-2.59656 1.45753,-2.89051c0.92752,-0.14698 7.95016,-0.14698 15.63531,0c16.82783,0.34294 18.55036,0.63689 14.31028,2.44958c-1.32503,0.5879 -1.98754,1.27379 -1.98754,2.05766c0,0.73487 -0.33126,1.12681 -0.79502,0.97983c-0.46376,-0.14698 -1.39127,0.39194 -1.98754,1.22479c-0.86127,1.12681 -1.59003,1.46975 -3.24631,1.46975c-1.72254,0 -1.98754,0.09798 -1.25877,0.73487c1.06002,0.93085 0.19875,1.81269 -1.39127,1.46975c-0.72876,-0.19596 -1.25877,-0.09798 -1.25877,0.24496c0,0.73487 -3.31257,2.9395 -4.43883,2.9395c-0.72876,0 -0.59626,-0.34294 0.46376,-1.32277l0,0l-0.00002,0.00001l0.00002,0zm3.64382,-10.33724c-0.53001,-0.39194 -1.65628,0.97983 -1.25877,1.46975c0.19875,0.19596 -0.13251,0.39194 -0.79502,0.39194c-0.86127,0 -0.72876,0.19596 0.46376,0.93085l1.59003,0.93085l0.19875,-1.71471c0.13251,-0.93085 0.06625,-1.86168 -0.19875,-2.00866l0,-0.00001l0.00001,0z"/>
   <path stroke="null" id="svg_49" d="m194.18097,6476.82753c-0.265,-0.53891 0.06625,-1.42076 0.92752,-2.30262c1.52378,-1.56773 2.45129,-1.61673 1.39127,-0.09798c-0.39751,0.48992 -0.92752,1.42076 -1.25877,2.05766c-0.53001,1.07781 -0.66251,1.07781 -1.06002,0.34294l-0.00001,0l0.00001,0z"/>
   <path stroke="null" id="svg_50" d="m86.85389,6475.55376c-0.92752,-0.78387 -2.05379,-1.46975 -2.51755,-1.46975c-0.46376,0 -0.59626,-0.39194 -0.33126,-1.07781c0.19875,-0.63689 0.39751,-1.42076 0.39751,-1.71471c0,-1.12681 1.19252,-0.68589 1.92129,0.73487c1.32503,2.30262 2.78255,4.01732 3.44506,4.01732c0.33126,0 0.59626,0.24496 0.59626,0.48992c0,0.97983 -1.92129,0.44092 -3.51132,-0.97983l0.00001,0l-0.00001,0z"/>
   <path stroke="null" id="svg_51" d="m192.39218,6472.3203c-0.66251,-0.53891 -0.72876,-0.97983 -0.265,-1.56773c0.99377,-1.12681 2.25254,-1.32277 2.25254,-0.34294c0,0.5879 0.33126,0.73487 1.06002,0.53891c1.45753,-0.39194 0.86127,0.68589 -0.86127,1.51874c-1.12627,0.5879 -1.45753,0.53891 -2.18629,-0.14698l0,0l0,0.00001z"/>
   <path stroke="null" id="svg_52" d="m88.37766,6471.87937c-0.39751,-0.39194 -0.66251,-0.93085 -0.53001,-1.27379c0.13251,-0.29395 0.59626,0 1.06002,0.73487c0.86127,1.42076 0.66251,1.61673 -0.53001,0.53891l0,0l0.00001,0.00001l-0.00001,0z"/>
   <path stroke="null" id="svg_53" d="m182.25573,6471.53643c0.265,-1.07781 0.265,-1.07781 -0.66251,-0.24496c-1.19252,1.07781 -2.12004,0.34294 -1.59003,-1.27379c0.39751,-1.17581 -1.12627,-2.89051 -3.04756,-3.42943c-0.66251,-0.19596 -1.12627,-0.63689 -0.99377,-0.97983c0.265,-0.44092 4.04132,-0.63689 15.30405,-0.73487c8.28141,-0.049 15.03904,0.049 15.03904,0.29395c0,0.19596 -0.59626,0.73487 -1.32503,1.22479c-0.72876,0.44092 -1.32503,1.17581 -1.32503,1.66572c0,0.63689 -0.19875,0.68589 -0.79502,0.24496c-0.46376,-0.34294 -1.19252,-0.5879 -1.65628,-0.5879c-0.72876,0 -0.72876,0.19596 -0.06625,0.93085c0.46376,0.53891 1.06002,0.83286 1.32503,0.73487c0.265,-0.14698 0.53001,0.09798 0.53001,0.48992c0,0.88185 -1.32503,1.56773 -1.39127,0.68589c0,-0.34294 -0.33126,-0.09798 -0.66251,0.53891c-0.33126,0.63689 -0.99377,1.02883 -1.52378,0.88185c-0.46376,-0.14698 -1.19252,-0.049 -1.59003,0.24496c-0.46376,0.34294 -0.59626,-0.24496 -0.33126,-2.00866c0.19875,-1.66572 0.06625,-2.49858 -0.39751,-2.49858c-0.46376,0 -0.92752,0.29395 -1.12627,0.68589c-0.33126,0.63689 -2.91506,0.93085 -2.91506,0.29395c0,-0.14698 -0.72876,-0.83286 -1.52378,-1.56773c-1.65628,-1.42076 -6.02886,-2.25362 -7.68515,-1.42076c-1.06002,0.53891 -0.39751,1.51874 1.06002,1.51874c0.86127,0 0.99377,0.39194 0.59626,2.25362c-0.46376,2.74354 -0.79502,3.13547 -2.38505,3.13547c-0.92752,0 -1.12627,-0.29395 -0.86127,-1.07781l0,0l0,0.00001l-0.00001,0z"/>
   <path stroke="null" id="svg_54" d="m204.97992,6472.46727c0,-0.63689 2.31879,-5.09514 2.78255,-5.48707c0.46376,-0.34294 0.53001,-0.14698 0.33126,0.48992c-0.19875,0.53891 -0.72876,1.91068 -1.12627,3.08648c-0.39751,1.12681 -0.99377,2.05766 -1.32503,2.05766c-0.39751,0 -0.66251,-0.049 -0.66251,-0.14698l0,0l0,-0.00001l0.00001,0z"/>
   <path stroke="null" id="svg_55" d="m87.11889,6468.89088c0,-0.53891 0.19875,-0.68589 0.39751,-0.29395c0.19875,0.34294 0.13251,0.78387 -0.06625,0.93085c-0.19875,0.19596 -0.39751,-0.09798 -0.33126,-0.63689l0,-0.00001l-0.00001,0z"/>
  </g>
  <text stroke="#62612C" font-weight="normal" font-style="italic" transform="matrix(0.970335 0 0 1.65963 54.5224 -35.0285)" xml:space="preserve" text-anchor="start" font-family="'Alumni Sans'" font-size="24" id="svg_56" y="38.78695" x="-23.41984" stroke-width="0" fill="#ff9900">TOTO pizza</text>
  <line stroke="url(#svg_58)" id="svg_63" y2="4.11543" x2="88.34611" y1="4.42312" x1="88.34611" fill="none"/>
  <line stroke="url(#svg_58)" id="svg_64" y2="-2.65378" x2="104.03837" y1="-2.65378" x1="103.42299" fill="none"/>
  <rect id="svg_65" height="0" width="0.25157" y="-17.27987" x="128.00943" fill-opacity="0.3" stroke-width="0" stroke="#75646b" fill="url(#svg_58)"/>
  <rect id="svg_71" height="40.62893" width="2.13836" y="-2.94025" x="144.99056" stroke-width="0" stroke="#75646b" fill="#7f6d74"/>
  <rect id="svg_72" height="38.61635" width="6.91824" y="-0.29874" x="-5.70126" stroke-width="0" stroke="#75646b" fill="#7f6d74"/>
  <rect stroke="#75646b" id="svg_73" height="9.55975" width="150.31446" y="-8.47484" x="-3.18554" stroke-width="0" fill="#7f6d74"/>
  <rect stroke="#75646b" id="svg_74" height="14.33962" width="147.16982" y="34.04088" x="-0.41824" stroke-width="0" fill="#7f6d74"/>
 </g>
</svg>